<svg viewBox="0 0 975 400" xmlns="http://www.w3.org/2000/svg"><g><g><g><g><g><line x1="51.5625" y1="378" x2="46.5625" y2="378" style="visibility: inherit;" fill="rgb(0, 0, 0)" stroke="rgb(204, 204, 204)" stroke-width="1px"></line><line x1="51.5625" y1="330.75" x2="46.5625" y2="330.75" style="visibility: inherit;" fill="rgb(0, 0, 0)" stroke="rgb(204, 204, 204)" stroke-width="1px"></line><line x1="51.5625" y1="283.5" x2="46.5625" y2="283.5" style="visibility: inherit;" fill="rgb(0, 0, 0)" stroke="rgb(204, 204, 204)" stroke-width="1px"></line><line x1="51.5625" y1="236.25" x2="46.5625" y2="236.25" style="visibility: inherit;" fill="rgb(0, 0, 0)" stroke="rgb(204, 204, 204)" stroke-width="1px"></line><line x1="51.5625" y1="189" x2="46.5625" y2="189" style="visibility: inherit;" fill="rgb(0, 0, 0)" stroke="rgb(204, 204, 204)" stroke-width="1px"></line><line x1="51.5625" y1="141.75" x2="46.5625" y2="141.75" style="visibility: inherit;" fill="rgb(0, 0, 0)" stroke="rgb(204, 204, 204)" stroke-width="1px"></line><line x1="51.5625" y1="94.5" x2="46.5625" y2="94.5" style="visibility: inherit;" fill="rgb(0, 0, 0)" stroke="rgb(204, 204, 204)" stroke-width="1px"></line><line x1="51.5625" y1="47.25" x2="46.5625" y2="47.25" style="visibility: inherit;" fill="rgb(0, 0, 0)" stroke="rgb(204, 204, 204)" stroke-width="1px"></line><line x1="51.5625" y1="0" x2="46.5625" y2="0" style="visibility: inherit;" fill="rgb(0, 0, 0)" stroke="rgb(204, 204, 204)" stroke-width="1px"></line></g><g transform="translate(41.5625, 0)"><text x="0" y="378" dx="0em" dy="0.3em" style="text-anchor: end; visibility: hidden; font-family: Roboto, sans-serif; font-size: 12px; font-weight: 200;" fill="rgb(50, 49, 63)" stroke="none" stroke-width="1px">-400</text><text x="0" y="330.75" dx="0em" dy="0.3em" style="text-anchor: end; visibility: inherit; font-family: Roboto, sans-serif; font-size: 12px; font-weight: 200;" fill="rgb(50, 49, 63)" stroke="none" stroke-width="1px">-300</text><text x="0" y="283.5" dx="0em" dy="0.3em" style="text-anchor: end; visibility: inherit; font-family: Roboto, sans-serif; font-size: 12px; font-weight: 200;" fill="rgb(50, 49, 63)" stroke="none" stroke-width="1px">-200</text><text x="0" y="236.25" dx="0em" dy="0.3em" style="text-anchor: end; visibility: inherit; font-family: Roboto, sans-serif; font-size: 12px; font-weight: 200;" fill="rgb(50, 49, 63)" stroke="none" stroke-width="1px">-100</text><text x="0" y="189" dx="0em" dy="0.3em" style="text-anchor: end; visibility: inherit; font-family: Roboto, sans-serif; font-size: 12px; font-weight: 200;" fill="rgb(50, 49, 63)" stroke="none" stroke-width="1px">0</text><text x="0" y="141.75" dx="0em" dy="0.3em" style="text-anchor: end; visibility: inherit; font-family: Roboto, sans-serif; font-size: 12px; font-weight: 200;" fill="rgb(50, 49, 63)" stroke="none" stroke-width="1px">100</text><text x="0" y="94.5" dx="0em" dy="0.3em" style="text-anchor: end; visibility: inherit; font-family: Roboto, sans-serif; font-size: 12px; font-weight: 200;" fill="rgb(50, 49, 63)" stroke="none" stroke-width="1px">200</text><text x="0" y="47.25" dx="0em" dy="0.3em" style="text-anchor: end; visibility: inherit; font-family: Roboto, sans-serif; font-size: 12px; font-weight: 200;" fill="rgb(50, 49, 63)" stroke="none" stroke-width="1px">300</text><text x="0" y="0" dx="0em" dy="0.3em" style="text-anchor: end; visibility: hidden; font-family: Roboto, sans-serif; font-size: 12px; font-weight: 200;" fill="rgb(50, 49, 63)" stroke="none" stroke-width="1px">400</text></g><line x1="51.5625" y1="0" x2="51.5625" y2="378" fill="rgb(0, 0, 0)" stroke="rgb(204, 204, 204)" stroke-width="1px"></line></g></g><g transform="translate(51, 0)" clip-path="url(#clip_0)"><clipPath id="clip_0"><rect width="923" height="378"></rect></clipPath><g><g><g><line x1="0" y1="0" x2="0" y2="378" fill="rgb(0, 0, 0)" stroke="rgb(60, 60, 60)" stroke-width="1px" opacity="0.25"></line><line x1="83.94886363636364" y1="0" x2="83.94886363636364" y2="378" fill="rgb(0, 0, 0)" stroke="rgb(60, 60, 60)" stroke-width="1px" opacity="0.25"></line><line x1="167.89772727272728" y1="0" x2="167.89772727272728" y2="378" fill="rgb(0, 0, 0)" stroke="rgb(60, 60, 60)" stroke-width="1px" opacity="0.25"></line><line x1="251.84659090909088" y1="0" x2="251.84659090909088" y2="378" fill="rgb(0, 0, 0)" stroke="rgb(60, 60, 60)" stroke-width="1px" opacity="0.25"></line><line x1="335.79545454545456" y1="0" x2="335.79545454545456" y2="378" fill="rgb(0, 0, 0)" stroke="rgb(60, 60, 60)" stroke-width="1px" opacity="0.25"></line><line x1="419.7443181818182" y1="0" x2="419.7443181818182" y2="378" fill="rgb(0, 0, 0)" stroke="rgb(60, 60, 60)" stroke-width="1px" opacity="0.25"></line><line x1="503.69318181818176" y1="0" x2="503.69318181818176" y2="378" fill="rgb(0, 0, 0)" stroke="rgb(60, 60, 60)" stroke-width="1px" opacity="0.25"></line><line x1="587.6420454545455" y1="0" x2="587.6420454545455" y2="378" fill="rgb(0, 0, 0)" stroke="rgb(60, 60, 60)" stroke-width="1px" opacity="0.25"></line><line x1="671.5909090909091" y1="0" x2="671.5909090909091" y2="378" fill="rgb(0, 0, 0)" stroke="rgb(60, 60, 60)" stroke-width="1px" opacity="0.25"></line><line x1="755.5397727272727" y1="0" x2="755.5397727272727" y2="378" fill="rgb(0, 0, 0)" stroke="rgb(60, 60, 60)" stroke-width="1px" opacity="0.25"></line><line x1="839.4886363636364" y1="0" x2="839.4886363636364" y2="378" fill="rgb(0, 0, 0)" stroke="rgb(60, 60, 60)" stroke-width="1px" opacity="0.25"></line><line x1="923.4375" y1="0" x2="923.4375" y2="378" fill="rgb(0, 0, 0)" stroke="rgb(60, 60, 60)" stroke-width="1px" opacity="0.25"></line></g><g><line x1="0" y1="378" x2="923.4375" y2="378" fill="rgb(0, 0, 0)" stroke="rgb(60, 60, 60)" stroke-width="1px" opacity="0.25"></line><line x1="0" y1="330.75" x2="923.4375" y2="330.75" fill="rgb(0, 0, 0)" stroke="rgb(60, 60, 60)" stroke-width="1px" opacity="0.25"></line><line x1="0" y1="283.5" x2="923.4375" y2="283.5" fill="rgb(0, 0, 0)" stroke="rgb(60, 60, 60)" stroke-width="1px" opacity="0.25"></line><line x1="0" y1="236.25" x2="923.4375" y2="236.25" fill="rgb(0, 0, 0)" stroke="rgb(60, 60, 60)" stroke-width="1px" opacity="0.25"></line><line x1="0" y1="189" x2="923.4375" y2="189" fill="rgb(0, 0, 0)" stroke="rgb(60, 60, 60)" stroke-width="1px" opacity="0.25"></line><line x1="0" y1="141.75" x2="923.4375" y2="141.75" fill="rgb(0, 0, 0)" stroke="rgb(60, 60, 60)" stroke-width="1px" opacity="0.25"></line><line x1="0" y1="94.5" x2="923.4375" y2="94.5" fill="rgb(0, 0, 0)" stroke="rgb(60, 60, 60)" stroke-width="1px" opacity="0.25"></line><line x1="0" y1="47.25" x2="923.4375" y2="47.25" fill="rgb(0, 0, 0)" stroke="rgb(60, 60, 60)" stroke-width="1px" opacity="0.25"></line><line x1="0" y1="0" x2="923.4375" y2="0" fill="rgb(0, 0, 0)" stroke="rgb(60, 60, 60)" stroke-width="1px" opacity="0.25"></line></g></g></g><g><g><line x1="0" y1="189" x2="923.4375" y2="189" fill="rgb(0, 0, 0)" stroke="rgb(153, 153, 153)" stroke-width="1.5px"></line></g></g><g><g><line x1="83.94886363636364" y1="0" x2="83.94886363636364" y2="378" fill="rgb(0, 0, 0)" stroke="rgb(153, 153, 153)" stroke-width="1.5px"></line></g></g><g><g><g><g><g><path stroke="rgb(51, 187, 238)" stroke-width="2px" d="M84.11172443181817,302.21584785461425L84.24268465909091,286.4697110939026L84.57848011363637,258.0949756704058L84.95289204545455,307.79467898137426L85.10735795454545,349.15804363900634L85.28700852272726,316.13587692932975L85.3995,271.4591616059068L85.56236079545454,310.7357326659349L85.75040625,275.74467891212504L85.99889488636364,293.112142651523L86.15839772727273,267.98712636280743L86.26585227272727,264.84630512918125L86.42367613636364,289.6500186893142L86.61340056818182,270.22500358537434L86.88203693181818,293.1557642582928L87.05665056818182,265.94851378822193L87.2530909090909,268.6077985438297L87.41930965909091,281.21841321365906L87.55194886363635,260.25340252307416L87.76182102272726,307.31737305650154L88.11608522727272,307.0322712936269L88.2873409090909,346.610993154092L88.40319034090909,296.1143655318389L88.60298863636365,303.89182282815597L89.06470738636364,356.9688682536891L89.62044886363637,338.15938261666776L89.81688920454545,300.0668118274334L90.02844034090909,278.38441383879774L90.31722443181818,264.95633612752727L90.43643181818182,286.91818940524456L90.8595340909091,321.05853181913125L91.0576534090909,339.0890276004394L91.27088352272727,333.8926591710135L91.43206534090909,325.4408599088916L91.58317329545454,293.83206873905465L91.91728977272727,271.1552612808358L92.14898863636364,277.13071304937796L92.27994886363636,279.7106353587378L92.45288352272726,268.59468892973507L92.62413920454544,298.17493238541954L92.74838352272727,271.2793222407958L93.01534090909091,257.5776368559503L93.26550852272727,250.17563908775128L93.67517897727274,262.944681916777L93.84139772727274,248.80566734104033L94.05798579545454,251.06504241831493L94.24938920454547,288.31841949535175L94.42903977272728,338.195272248868L94.65402272727273,320.6179227179805L94.9780653409091,279.124496950918L95.18122159090909,313.2386352739877L95.29539204545455,282.6504867902192L95.46664772727273,290.0298297480946L95.58585511363636,265.31853586457794L95.70002556818181,261.4780651375188L95.9031818181818,285.2007605607917L96.0307840909091,311.39150595806296L96.18189204545455,315.1497594403168L96.3262840909091,336.32932282727774L96.56469886363637,328.5097274854287L96.89042045454545,300.3423568769986L97.09021874999999,272.5347980373315L97.21110511363636,253.2191235275989L97.39243465909091,238.4713869621708L97.54690056818181,276.0989649898026L97.67786079545455,251.31871192540007L97.90284375,272.86551562264725L98.0992840909091,274.7966765610884L98.25878693181818,301.1191819620437L98.6852471590909,306.8432095556442L98.84139204545454,279.8653181894412L99.22755681818182,296.85735802792254L99.37194886363636,313.5035969761774L99.58014204545454,317.21873557828457L99.86053125,324.7403147722637L100.08047727272728,300.7290567527625L100.36254545454545,305.8247163697728L100.6295028409091,273.6876609604745L100.78228977272727,300.69205287511284L101.04756818181818,330.2957212575384L101.32292045454547,368.4587961578433L101.82661363636365,370.6128701934853L103.50559090909091,331.77753690490954L104.53480397727273,306.9999445825209L106.02909375,265.77513393434225L106.69228977272728,260.9818149492284L107.39746022727273,244.02605751354338L109.0764375,235.19360154151227L109.926,220.86179435348097L111.45219034090908,240.34761552200067L113.13116761363636,230.17860834136815L114.81014488636363,226.4970686303092L116.61000852272727,230.94835011068065L117.35379545454546,168.50310784472865L117.58549431818182,178.66616561301853L117.830625,175.28889744978133L118.39308238636364,198.39212778413878L118.94714488636363,152.26563007929676L119.24432386363637,167.95445986806607L119.44412215909091,174.60355199181586L119.81181818181818,140.80524964906903L119.99314772727273,157.74688544999438L120.54721022727273,146.4743993211441L120.74029261363636,159.60323190454557L120.9770284090909,177.21650332691618L121.23391193181817,184.24621381617996L121.51430113636363,193.43441354285127L121.82491193181818,191.32662276870283L122.25640909090909,196.0017759969608L122.63250000000001,184.46476943652488L123.72383522727272,152.47254794121181L123.93370738636365,158.6762760486626L124.47769602272727,170.54282174220228L124.68085227272726,171.63781724804963L125.40113352272728,175.83494235917524L125.63954829545455,184.3729403167045L125.98541761363637,186.96067535692904L126.16171022727272,190.44900586971318L126.51261647727272,185.76640799837514L126.89038636363635,194.327771652205L127.02134659090909,203.130641468801L127.14726988636363,202.07990950515148L127.29669886363635,197.3992226646559L127.59891477272727,199.41890817536213L127.76345454545455,200.0822111199695L128.02369602272728,197.1644495872496L128.17480397727275,201.21362959121697L128.33262784090908,204.56539218649286L128.47366193181819,203.6308971733154L128.79770454545456,205.86998616852173L129.02604545454545,203.77903557966837L129.14525284090908,206.51084764022042L129.50119602272727,207.02891752349382L129.64894602272727,208.01504454867276L129.79669602272725,207.95485086403028L129.92094034090908,204.33027573944173L130.28527840909092,204.25784816766406L130.39609090909093,203.4768165723361L130.69998579545452,192.8467619728969L130.86788352272728,195.45482074498693L131.18688920454545,201.21009568261837L131.32792329545455,200.95123082570873L131.51596874999998,193.4992499481001L131.83833238636362,192.19874354042756L131.98608238636365,198.56713259505122L132.11032670454546,200.3911812160426L132.44612215909092,200.09430819785675L132.5804403409091,216.2418719289069L132.74498011363636,229.1318788488725L132.88433522727274,215.92757895231358L133.15129261363637,209.30724062204428L133.3326221590909,209.44377285146751L133.47701420454547,213.51505188074134L133.6415539772727,197.6771586804773L133.79769886363638,211.78951147873317L133.96895454545455,241.22491959475946L134.11166761363634,231.65762666072527L134.30475,212.11232284835626L134.46928977272728,212.9551987741688L134.78997443181817,207.27936607922905L134.9948096590909,197.11442018560047L135.5908465909091,192.59530305750062L136.5831221590909,216.5378175309115L136.86183238636363,239.3246956760176L137.17580113636365,223.5809610919051L137.41421590909093,210.58404742264105L137.72986363636363,274.34129289450266L139.40548295454545,226.0562298535229L141.08446022727273,214.0331324242902L141.35477556818182,242.77095297141986L141.5193153409091,233.79211158540315L142.20601704545453,257.43058067194505L146.34469602272728,248.68751886672905L146.9508068181818,276.537920347137L147.9414034090909,262.9424931369321L148.52904545454544,273.1313485127745L149.7009715909091,281.3197742260729L150.24328125000002,247.7043414452812L151.92225852272728,227.19438102168687L153.60123579545456,212.865244767206L155.2802130681818,221.49365864010875L156.9591903409091,239.60225676853793L158.63816761363634,228.0574809455832L160.31714488636362,219.78756722259283L162.33191761363636,221.99898672180035L163.51055965909092,260.5007665447989L164.49779829545454,248.97053467968698L167.8557528409091,240.30046713196992L168.43164204545454,251.53855855371808L170.11061931818182,243.1562872547284L171.32955681818183,309.28474531426286L171.60490909090908,297.7088332572833L172.06326988636366,331.5962463349852L173.7422471590909,295.81309714333736L177.10020170454544,266.5536367665322L178.77917897727272,254.78505310026355L180.8510369318182,265.6761156003925L180.99542897727275,287.4891317320617L181.15996875,256.0681241770239L181.5478125,274.99921473143405L183.22678977272727,251.6933343922967L183.4618465909091,271.86265716003624L185.12907102272726,308.8597867093518L185.4010653409091,252.6835429393074L185.5387414772727,237.3379155356181L185.65962784090908,224.5662318538721L187.33860511363636,213.58783811325404L187.9950852272727,247.57495530935867L188.1478721590909,281.13287980182616L188.34263352272728,279.31662090172557L188.51892613636363,256.6193185722243L188.71704545454546,232.07934022876088L189.92758806818182,242.54710337431706L190.12067045454543,250.35972369451213L190.42456534090908,245.47449462472733L190.6646590909091,232.47768901955683L191.2674119318182,229.41176136095282L191.92389204545452,225.9819440693793L193.60286931818183,227.6216026751481L196.96082386363636,217.69989473916786L197.45948011363637,253.30743998681126L200.3053465909091,250.7296446256317L200.49507102272727,269.78937762620905L201.1733778409091,265.2229107706718L202.85235511363635,252.32325398498605L203.03032670454547,266.7458324721684L204.90742329545455,277.11475297756374L205.12401136363638,280.0070826520167L206.80298863636364,248.98372726760164L208.48196590909092,234.7346880130879L210.16094318181817,231.84148657494256L211.83992045454545,220.24340650566498L213.51889772727273,218.1786313591485L215.197875,222.1564630256942L223.16630113636364,233.93320839708156L226.2102869318182,220.3560174969739L227.88926420454547,203.55983544897472L231.24721874999997,200.10951135677956L232.92619602272725,197.46631151701723L233.21833806818185,209.2000666495902L234.34493181818183,233.1484628718342L234.58502556818183,220.16699210603514L235.53196875,231.9758863646953L236.21195454545457,243.3346139721375L236.41846875000002,230.7883086779297L236.58468749999997,224.53947808471804L237.19247727272727,237.0455604012459L237.95473295454542,251.04717490957074L239.6135625,248.8399346225613L240.43626136363636,278.8829444771501L240.7838096590909,264.5305970467026L241.22873863636363,262.6762457249698L241.57796590909092,251.6943863509975L242.54841477272726,245.57588609068884L242.97487500000003,238.82626847844892L243.57426988636362,244.67363823855862L244.13504829545454,246.34630934694377L244.59508806818184,246.25299189936496L245.1525085227273,250.061420719453L245.70153409090912,251.07081452883975L246.40670454545455,254.36119904445232L246.6367244318182,254.41640318826805L246.86842329545456,264.21015174267274L247.2226875,261.6451728021954L247.47957102272727,265.1875013101015L247.6911221590909,264.3797127764173L247.9110681818182,256.21903144697836L248.12933522727275,266.5880900107651L249.80831249999997,257.9234954172867L251.70723579545452,259.9451711029111L253.3862130681818,257.4008873144566L254.34490909090908,234.39390511129972L257.51985511363637,231.2905898929517L260.7317386363636,248.93913916831497L262.41071590909087,249.98968651917744L264.0896931818182,233.00071732608774L265.7686704545455,226.85116969924152L267.44764772727274,233.61584392464744L269.126625,235.48448089549893L270.80560227272724,222.59385027092665L272.48457954545455,213.7475406656383L274.1635568181818,204.56069129334205L275.33212499999996,235.49958086792415L275.9029772727273,247.28869676294198L276.76261363636365,253.1171241856949L277.7750369318182,260.945858419498L278.5490454545454,266.62805266461385L279.0292329545454,262.5714769997693L279.4976676136364,261.5046785124836L279.88551136363634,267.26093551020017L281.1313125,285.79747860348334L281.54601988636364,268.240461229778L282.15548863636366,266.0999534651617L282.38382954545455,257.707021273433L282.74648863636367,268.50628158119844L283.05542045454547,308.0208321506234L283.43990625,292.0082230299981L283.7757017045455,285.0971086989803L284.2340625,263.3886224505283L284.63701704545457,251.21437100297078L284.8536051136363,251.54913778427763L286.53258238636363,249.32454784085465L288.21155965909094,242.09449408537213L289.8905369318182,225.77648446086687L291.56951420454544,211.88557428362157L293.7874431818182,199.82315324879997L295.3791136363637,258.68282465802025L296.5174602272727,246.13925708118907L298.1964375,231.437502956294L299.87541477272725,232.22964524454056L301.3529147727273,257.9383239051472L302.69273863636363,262.7194678843481L303.1863579545455,317.3804700372495L303.5322272727273,332.7687455233263L305.9583494318182,350.8548277278141L307.2595568181818,322.34346066256734L309.24746590909086,237.08512823164688L309.56479261363637,233.88515564382212L310.0197954545455,176.08108822882252L311.3478664772727,217.73541209256697L311.7877585227273,248.0609608328107L312.7347017045455,251.87038965581436L314.4136789772727,233.54864899276836L314.95095170454545,211.44148837637394L315.6729119318182,171.1425236868351L318.0402698863636,201.9275321716958L318.23503124999996,197.11930689709743L318.5221363636363,205.47304528938153L320.20111363636363,202.59191180268772L321.8800909090909,199.27889853310492L323.5926477272727,167.44669793028777L323.7084971590909,174.46683218419042L324.02750284090905,222.34084441244298L325.95496875000003,220.98810044324213L327.6339460227273,200.1922757894743L330.3975426136364,198.55453470796044L333.3223210227273,203.82023338275965L333.77564488636364,216.29676052068365L335.4546221590909,232.0302574537676L338.4499176136364,229.0717756575633L338.74709659090905,225.56450140680607L340.42607386363636,215.12538025883276L341.23198295454546,214.78798842446471L342.4039090909091,215.50526935396468L342.67758238636367,215.04270692716764L344.3565596590909,200.02766945392327L346.03553693181817,219.73292496031786L347.7145142045454,204.8791713771001L348.19134375,228.2690245547757L349.8233096590909,234.53506703083906L352.3182698863637,233.838403820188L354.5126931818182,246.5723441872544L357.87064772727274,244.2231315184561L360.81557386363636,229.99496644311714L361.78938068181816,190.98800771316033L363.6849460227273,212.6524536299714L364.73262784090906,167.27833448267035L366.03383522727273,149.48183568105728L367.58688920454546,227.30125417963043L369.2658664772727,217.64716023597344L371.2386647727273,218.5204452046944L372.91764204545456,220.9017097497698L374.5966193181818,222.35230400995707L376.27559659090906,216.75784816906628L377.95457386363637,207.68071991828546L379.6335511363637,204.15929070799035L381.31252840909093,197.2954564424067L382.9915056818182,203.3270860717123L384.67048295454543,210.60023664363774L386.34946022727274,201.90487525959938L388.0284375,207.23091398632607L389.70741477272725,211.30150792930172L393.0653693181818,205.19308472927597L393.4716818181818,158.69754062638395L394.4908210227273,126.1754329604251L395.10196875,116.6666377669777L395.6694630681818,101.11613793362412L397.34844034090906,141.86354137795706L397.8000852272727,112.47717258678401L398.36757954545453,95.01987407819347L398.74870738636366,81.65546994862504L399.82661079545454,85.8270534993264L400.41593181818183,78.69898917967397L402.0949090909091,115.97467917140912L403.77388636363634,160.46963744364135L404.5344630681818,201.25168917394848L405.3084715909091,214.3193703387807L406.6801960227273,237.5768301042694L408.3591732954545,231.90735486798158L410.03815056818183,228.77848483546182L410.6341875,179.0102020310378L412.60026988636366,193.31777907079552L414.1096704545455,165.28657167831716L417.33834375000004,190.69956645822322L418.76379545454546,164.76986359319565L420.44277272727277,182.4404291765778L422.12175,187.96186974006227L423.8007272727273,203.40103857682544L424.56969886363635,171.9287500687027L426.2486761363636,187.64637402651218L426.7960227272727,137.95870384095613L427.4340340909091,102.28338725208341L429.11301136363636,137.2440917329735L430.0633125,103.27461745433489L433.18453125,142.4356469889431L434.8635085227273,159.9905725233524L438.22146306818183,183.86317342428976L440.9262954545455,136.559701570443L442.2610823863636,123.91137530933125L443.94005965909093,159.37967168218077L444.40345738636364,123.97341658047549L445.1589971590909,109.46890529496494L445.9464375,99.0458301764907L447.0109090909091,102.68117304791103L447.5095653409091,87.91849243348292L447.7546960227273,84.03733516040717L448.43300284090907,85.76313434209389L449.0256818181818,85.30441623452882L450.65093181818185,87.00360898449173L452.3299090909091,136.66558795996994L452.8067386363636,107.40589464609914L453.4615397727273,91.47990949884118L453.7452869318182,80.66079619368942L455.22782386363633,159.60149834609646L455.5669772727273,118.97780251107586L456.6264119318182,96.06286711455562L456.92694886363637,83.34161644793262L457.66401988636363,73.86941524229469L458.21304545454547,78.68733203722249L461.99242329545456,134.92891825004347L463.79732386363634,235.61458938386397L464.32620170454544,161.03015807978124L464.96925,133.1019902793873L465.4276107954545,108.64094018508844L465.8624659090909,85.61396563082847L466.31914772727276,75.79157099837012L467.7160568181818,71.66438559218614L469.39503409090906,135.18075122835856L469.8651477272727,111.13834915925639L470.3789147727273,103.69478755646686L472.0578920454546,137.86108727937184L472.60188068181816,111.35400815680772L474.28085795454547,147.76194288656205L474.6250482954546,115.69325581982783L476.3040255681819,147.96138926383887L477.22410511363637,126.95060286067151L477.54311079545454,101.82506990732084L478.20126988636366,87.72848035991984L478.5975085227273,82.05689812195776L479.44875,90.98034155566981L480.3923352272728,86.52291223931006L480.72645170454547,86.65274676375202L481.2452556818182,92.1891616233147L482.6858181818182,101.47229133128864L483.01657670454546,89.77152126788936L483.92490340909086,84.44758339977173L484.2993153409091,86.16390706500952L485.3956875,81.30528825450862L486.05216761363636,74.92161686139657L486.2116704545455,130.9236911899886L486.7825227272727,98.53051342004784L488.4615,129.93880285259638L489.29427272727276,99.39473276136246L489.8550511363636,85.02730083845812L491.5340284090909,102.0022364753649L492.5313409090909,102.21995686019454L492.91582670454545,103.08316596487161L493.51354261363633,88.33790235602251L494.3244886363637,82.50649332096219L494.7794914772727,75.58778207045816L496.8496704545455,78.59883801974073L497.1753920454546,75.16642884944211L498.85436931818185,97.036547434177L500.1572556818182,85.24532357159016L500.73986079545455,91.36163915027832L500.90607954545453,123.78688044756441L501.49204261363633,109.2693069489586L502.0410681818182,96.28294354437517L502.33488920454545,132.72687830328184L502.60688352272723,105.51946587967419L502.9074204545455,90.07960625509948L503.75698295454544,74.37847783387022L504.44200568181816,67.7555118101854L504.92051420454544,60.97050139153114L505.55684659090906,107.50742068698477L506.38794034090904,97.04836575752776L507.46416477272726,100.98873232988285L509.3597301136364,99.55487591831543L509.7173522727273,78.83220381026663L510.8053295454546,86.09804089883089L511.2385056818182,74.11458314525557L511.9503920454546,78.1462739044873L512.9997528409091,81.47911328068066L513.7368238636363,90.96243363613304L513.9601278409091,132.5494487900401L515.6391051136363,148.3259980398932L517.3180823863636,171.53469131508584L517.4960539772727,179.27373549293947L517.6656306818181,190.05403116316475L519.54440625,200.66710984093478L521.4030340909092,197.688101030484L521.5591789772727,193.15872350758028L521.7388295454546,196.20481563416547L524.9523920454545,207.53816175751342L528.8006079545454,166.2389397943762L530.4795852272728,190.07611373166725L532.1585625,203.6778526338368L532.7260568181817,165.23191731455498L533.0098039772727,124.86811352349864L533.4732017045455,103.47344556771245L534.6065113636363,92.64008920647218L534.8600369318182,87.19410165010407L538.671315340909,89.35422597419327L539.5057670454546,89.55523048502867L540.204221590909,88.92516842712561L540.5366590909091,72.2981693851328L541.6968323863636,74.28294812460992L541.8714460227272,107.84605957758578L542.2928693181818,86.89439465768426L543.3153664772727,105.23393244127803L543.7485426136363,84.04649456608517L544.0306107954545,79.41466720168724L545.7095880681818,136.73392696133217L546.1780227272727,117.58671805424068L546.6850738636364,107.90903901125539L547.2206676136364,91.03025464454616L547.6739914772727,84.46931504869059L548.9802357954545,158.12136663236376L549.5544460227272,179.71802047227715L550.8606903409092,157.55383817753133L551.181375,116.92813960695828L552.8603522727273,146.88038686838485L553.5369801136364,120.08201938299379L553.8308011363637,98.99878438370253L554.4117272727273,149.16577895389094L556.2267017045455,116.8223710741168L556.5272386363637,91.953082587097L557.1534971590909,84.29432533656L557.73778125,85.34341571280024L558.0802926136363,73.92807954852971L558.4093721590909,63.17129938927412L559.9825738636364,79.83308255104492L560.3939232954546,70.95594038145708L562.0729005681818,129.95376370320895L562.4086960227272,109.79194073230133L562.8939204545455,90.95920429533787L563.2347528409091,73.09531350127497L563.7686676136364,65.9859400233724L564.0859943181817,64.39599715000978L565.5702102272728,78.66926100973244L565.9765227272727,67.23079238464805L566.3240710227273,64.2331787999295L566.6968039772728,66.67853389738933L567.2525454545455,79.28385875701268L567.4389119318182,119.47957518767934L568.5655056818182,101.90730395049822L568.9953238636364,88.71230027801376L569.601434659091,79.85211493853681L570.0211789772727,77.7198560450313L570.7045227272728,81.38126917206267L571.3610028409091,70.57559707452668L571.8361534090909,70.52587943917402L572.1417272727273,64.19436561516457L572.4439431818182,64.96958262593468L572.8284289772728,67.49562205786063L573.2229886363637,72.6449391374263L573.7350767045455,68.40378013284645L574.2673125,71.19291297716875L574.7273522727273,76.82492408635011L575.548372159091,77.17318917776221L576.4315142045455,69.35199285236047L577.2458181818182,76.48911313084984L578.3707329545455,70.30177851693766L578.5235198863636,106.23935122500025L578.6679119318181,131.2778988934169L579.0641505681818,104.1210651111966L580.7431278409091,139.28519482328687L581.1611931818181,115.2415512354028L581.6665653409091,104.5141945199282L582.4002784090909,90.25859186149309L583.0534005681818,84.4681469076673L583.4378863636364,74.11648439704183L583.9096789772727,66.01015165507074L584.2236477272728,75.25606891357474L585.3317727272728,76.07984781481962L586.6396960227273,70.39602480827654L587.1551420454546,68.64245720063977L587.4439261363636,62.05370329377256L589.5510426136364,120.80702212427374L589.9775028409091,103.79829425295782L590.3116193181818,81.70256792140363L590.5768977272728,75.99457700772497L590.9899261363637,76.70839680888302L591.2635994318181,75.62001098572046L591.8361306818182,67.50623794519204L592.3079232954545,69.78115956093849L593.1087954545454,70.97608001390682L595.6138295454545,139.75351959037536L596.3290738636364,111.06585076789709L596.7538551136364,86.09334252250586L597.1786363636363,73.96996220906016L597.734377840909,69.64451397704742L599.1027443181819,70.90716543273723L600.0295397727273,82.85506689880249L600.5651335227273,86.23981067761157L600.8388068181819,75.16123326935991L601.1813181818183,76.05185763739718L601.5926676136364,80.39562508048517L601.8814517045454,81.70387175239269L602.2709744318182,66.70781578825199L602.6050909090909,65.38451775053909L604.2840681818182,125.54747582518917L604.6534431818181,101.44150484325799L605.0983721590909,92.4893100257058L605.4492784090909,79.43957109232777L606.2434346590909,92.64238001501583L606.9989744318182,88.21853207395093L607.40025,80.48605955198771L607.9039431818181,73.0178687329016L608.2582073863637,76.3806532313181L608.6057556818181,69.56624514924009L610.2847329545455,94.07780266205384L610.6994403409091,91.2979776329989L611.193059659091,90.22276384420367L612.4136761363636,84.5416922725866L612.9190482954546,82.72429343972384L613.8038693181818,74.54142841979133L615.482846590909,138.3415857277171L616.1645113636364,117.73463293992613L617.05940625,107.83555640580143L617.4506079545454,93.1840687372797L617.8250198863636,87.72912591949184L618.5268323863636,82.46174822625566L618.876059659091,74.58288539205218L619.2303238636364,77.66800220080748L620.9093011363636,75.93525899260361L621.9166875,85.67898361211488L622.4119857954546,78.04212057498374L622.9828380681819,76.56218269960453L623.3219914772727,77.32836507020218L624.1581221590909,75.49918055640356L624.4049318181818,74.5148518244427L624.7021107954546,67.52475484466561L625.056375,63.69385605010988L625.59196875,70.78691757293707L626.1023778409092,65.19217923028562L626.5859232954546,69.95396999849851L627.3011676136364,80.65890204914795L628.9801448863636,133.14198838525047L629.2991505681819,110.50264797194619L630.9781278409091,145.84563934697997L631.3810823863637,108.3511108725923L633.0600596590908,148.36980347118723L633.4512613636364,113.12849524189205L633.933127840909,95.04474549108247L634.3562301136363,87.96654181369246L634.7205681818182,78.18676688509048L635.5600568181818,84.52943934248003L635.9932329545454,84.81416511610816L637.26421875,88.06994050643247L637.8098863636365,85.9191531924093L638.2212357954546,81.87323060868285L638.649375,85.26264116977514L639.4334573863637,74.54139167818347L639.7826846590909,75.70874276753017L640.7245909090909,76.74820908520073L641.0435965909091,72.06725446113023L641.5271420454546,70.33559754972498L641.9485653409091,72.23884452226662L642.5227755681818,73.78188129832093L643.2077982954545,72.85550278717129L644.6483607954546,73.45060135491994L645.1453380681819,67.68251587276643L645.5046392045455,65.0500161459743L646.0738125,113.7222040301978L647.0409034090909,94.55089181509133L647.3817357954545,86.89148131708212L647.957625,75.66139168941922L648.4075909090909,69.80459770896404L648.7853607954546,65.06469182239987L649.1362670454545,68.95982568303955L650.0059772727274,72.46210415005808L650.8152443181818,78.25464099955633L651.4096022727273,80.39492667431874L651.8427784090909,77.43680135676414L652.6218238636363,77.17873364608971L652.8719914772727,74.89139646817146L653.6006676136365,76.8297068384224L654.1228295454546,69.66708963650066L654.7272613636364,73.03417933426857L656.4062386363636,124.63521842171288L658.0852159090908,153.08940082269632L658.2178551136365,161.86117408393454L658.6846107954545,126.83210371183536L659.1933409090909,111.48485759453285L660.2678863636364,116.10650475142181L660.59025,96.84603419850939L661.2970994318182,90.77867397064371L663.6443096590909,79.80454968878266L663.9666732954546,73.1522686011114L665.9864829545455,127.54817325249425L666.5405454545454,104.38866789802971L666.9367840909091,91.43996611967722L667.8048153409092,83.4211454280319L669.8817102272727,137.88854396916048L670.3383920454545,104.95108344326381L670.6271761363637,91.45760988956673L670.8941335227273,75.58473350576148L672.5311363636364,89.71568312103503L674.7641761363636,82.63903609332417L675.66075,65.73588491283046L676.0469147727273,62.66661899091113L676.3827102272728,65.75010481739824L676.8175653409091,60.646648217587355L677.1214602272728,63.580733071177434L678.3504715909091,61.377190453058056L678.8474488636364,67.96341539182993L679.5291136363636,73.04879275011263L679.8145397727272,65.27244691471597L680.1066818181818,60.79948655092919L681.1140681818182,58.61650726869229L681.5539602272727,60.33676437708454L682.025752840909,57.91243002517653L682.5546306818181,62.10560887875334L682.8719573863636,68.54314218272076L683.3135284090908,69.23989197772329L683.6325340909091,71.47837326646797L684.02709375,67.56876974845495L684.4082215909091,58.43063556733468L684.8581875,65.9478813861772L685.4928409090909,56.71568000358132L685.8706107954546,59.54274686933632L686.3675880681818,66.02469620204606L686.6194346590909,61.37812042508512L687.0694005681819,65.20014253398173L687.5193664772727,68.29459571326015L688.1321931818183,71.95294495847365L688.5603323863636,66.10150791136348L689.0774573863637,80.27154434947921L689.3410568181818,70.75453473346687L689.6399147727273,67.85146461449416L689.9891420454545,65.25066114784687L690.2846420454546,66.26251244188191L691.543875,72.79341028190161L691.7957215909091,72.13510992036167L692.1063323863636,70.5787613867873L692.4203011363636,74.29572327799528L692.9072045454545,66.0079275581058L693.2665056818181,63.5586319926271L693.5284261363636,67.43013593690927L693.7987414772728,68.24527476893265L695.47771875,90.85357866446022L695.8739573863636,78.92532011127375L696.1593835227272,76.42146619090977L696.4246619318183,70.12938407855955L697.6435994318182,141.83220881627636L697.9390994318182,108.06714538864279L699.0589772727272,112.85267798025598L699.4753636363636,86.0138758311223L700.3064573863636,77.9093931561441L701.3289545454545,77.12547386060541L701.6429232954546,71.64962443477147L702.1650852272727,64.91826779440778L704.102625,57.51360652015053L704.45353125,63.21714451816945L704.9773721590909,58.39804424874341L705.37696875,58.50762815447067L705.8554772727273,67.15373797971853L706.2685056818182,67.96162822484281L706.9484914772728,70.0704657654721L707.254065340909,69.8049075110411L707.8601761363636,69.0928536863121L708.3101420454545,62.086537620722794L708.689590909091,62.25016030436727L709.1412357954546,69.54856600073562L709.4316988636364,69.85251321189158L709.7087301136363,69.84837323780391L711.4212869318181,76.3140693375798L712.259096590909,70.55147907813381L713.5451931818183,76.9126243090629L714.4216193181818,78.73102346849441L714.8044261363636,78.07105882902144L715.1603693181819,75.45665447771071L715.8067755681818,75.61662243210985L716.5304147727273,65.17702118875812L717.0408238636364,65.96752048303023L717.4118778409091,63.52466319924199L718.1254431818182,61.75762049034601L718.4259801136363,66.92396952626322L718.8138238636363,66.61596786688098L719.1983096590909,68.23445343131029L720.2191278409091,68.68994183417676L720.5868238636364,68.77525001261544L721.2819204545455,67.9904409926767L721.6361846590909,62.74917435512752L722.2590852272727,59.011984044228804L722.947465909091,54.21451882619553L723.2631136363636,52.50111095392043L723.5552556818182,66.13831670357786L724.0102585227273,78.20154531999827L724.4467926136363,82.21952072837594L724.9269801136364,68.64480963551183L725.311465909091,63.02959986211765L725.91421875,63.159402251254996L726.65296875,67.40982436466895L727.0576022727273,67.14495931606703L727.8332897727272,68.72174815738924L728.185875,74.93475739052725L728.5132755681818,73.04192395335937L728.8406761363636,66.88534614447653L729.2134090909091,63.470169844889064L729.5727102272728,67.5123083125731L730.2124005681818,72.13261978978996L730.630465909091,67.03447476694035L730.9393977272728,62.00978126519354L731.300377840909,73.20318205257318L731.8443664772727,77.41987805783786L732.2473210227272,67.19775108397026L733.3269034090908,61.85649494969854L733.6929204545454,61.3472637911082L734.0303948863636,62.09865545484075L734.3393267045454,66.16613995869545L734.8245511363637,68.08647402953855L736.5035284090909,115.68507371635287L737.4252869318182,97.98413205940159L738.5653125,99.92817666911262L739.2872727272727,86.6206485551785L740.0965397727273,72.29786026347821L740.4692727272728,68.66309555261812L740.9544971590909,70.17489170962268L741.4598693181819,79.44501176222379L741.9014403409091,69.65972489180696L742.5595994318182,75.51766447915155L743.0851193181818,75.98607503636788L744.3762528409092,78.75926759567325L744.9722897727272,71.25448270706215L745.5666477272728,65.56473814718649L746.9534829545455,67.31813341565564L747.5696676136364,65.39459144465705L748.1304460227273,66.25649894638406L748.6190284090909,61.24432640030109L750.81009375,63.27408512851071L751.2953181818182,63.63414407027049L751.5572386363636,64.44298467214274L753.2127102272727,88.00747424444776L753.8607954545455,76.95036503983276L754.26375,68.37022662277656L754.589471590909,67.85134581253314L754.9756363636363,64.17493715670932L755.3466903409092,66.67543594209687L755.7949772727274,58.65914282136161L756.4010880681818,54.88843436225053L757.1918863636364,62.45253272428395L757.4890653409091,63.41253675493173L757.9205625000001,61.29427403660161L758.357096590909,60.96767617733204L758.7298295454545,60.5140919124539L759.0857727272727,61.23242639991379L759.4081363636363,60.23166903574903L759.7691164772727,62.289298204896696L760.148565340909,58.94670499105325L760.5280142045455,60.287974074954214L760.9175369318182,59.24051476113461L761.4380198863637,60.36163307543082L762.3261988636364,62.55671498319794L762.7828806818181,58.52121929753596L763.1556136363636,66.37251427810656L763.5602471590909,59.27332622433463L763.8792528409091,64.83322510471795L764.6062499999999,55.51092865413937L765.3399630681818,61.227408144632044L765.8654829545455,65.24292013702338L766.1878465909091,60.95276911102262L766.5253210227273,60.036460203185854L766.7586988636364,61.082458244714225L768.0699801136363,61.99398965630118L768.3486903409091,65.63656215925924L768.7147073863637,62.96875431215708L769.1008721590908,65.78843341920341L769.4467414772728,58.64668553980332L771.3053693181819,67.5374856128224L771.7838778409091,63.40238101613097L772.4269261363637,65.67383653814535L772.7257840909091,65.28251899442043L773.1153068181818,65.17376115251162L773.3705113636363,67.93975159507143L773.5938153409091,62.98372293580261L773.8825994318182,66.85538316028527L774.6666818181818,71.38878470574147L775.4390113636364,63.81135373970463L775.74290625,67.09738438737749L776.00146875,66.89034634287573L776.3423011363636,60.61146494683871L776.6461960227273,60.388439820154L776.9450539772728,67.51909306689706L777.2674176136363,58.94425646880032L777.6686931818182,53.93198558294034L778.0330312499999,50.47051663662944L778.3050255681819,65.34363838163588L778.6307471590909,67.64181211833699L778.9346420454546,66.62918114307254L779.9000539772727,75.75701170708376L780.2627130681818,73.98035343233131L780.7563323863636,73.30856316413511L781.3641221590909,74.03188701347133L782.0323551136364,69.71727362653984L783.5484715909091,63.78901725209576L784.0572017045455,77.04040594146741L784.6314119318182,78.23945236614998L785.2559914772728,78.56736332948L785.543096590909,70.83870971521732L786.2583409090909,74.18153901577587L787.3160965909091,68.54763776493425L788.1136107954546,63.74307750148988L788.8708295454545,60.8383140301908L789.1495397727273,58.40830067397389L789.8261676136364,61.05116814852491L790.1250255681817,61.20274846601925L790.4423522727274,63.68291897707247L790.9107869318182,60.10752509840169L791.2432244318182,65.3981710038652L791.8610880681817,67.92808515847146L792.21703125,62.622855642202L792.6434914772727,61.25488620636613L793.5048068181818,61.39575624774546L794.1092386363637,65.1273040141502L794.3929857954545,71.54731838261124L794.7707556818182,68.45087189504525L795.8822386363637,61.76279315655841L796.1542329545455,64.06429241004834L796.4413380681818,68.60422533311396L796.8644403409091,73.34869360135762L797.27746875,68.65115820793369L797.5813636363636,65.99771204512155L797.9540965909091,66.87795503163835L798.1807585227273,61.69799570575058L798.5686022727273,59.0799447012824L798.9127926136364,53.481316918425684L799.2771306818181,62.1249754995661L799.782502840909,60.57631818548185L800.3483181818182,65.54565068301764L801.3305198863636,66.92887127528911L801.7519431818182,74.77538537198497L802.1867982954545,81.20474075993415L803.1320625000001,71.91661322427106L803.4208465909092,70.4815204858321L803.7885426136364,68.48189672753448L804.0706107954545,61.31198807314177L804.7976079545455,72.44396525904618L805.2895482954546,76.78423042801067L805.6303806818181,71.92944465939435L805.9947187500001,70.94401790037294L806.3489829545455,72.75132226976477L806.6243352272727,72.57100027103853L806.9131193181818,73.8082813912608L807.6434744318182,62.66836229789127L807.9490482954545,61.36864408771915L808.3335340909091,69.87338625121548L808.7918948863636,67.69584980492851L809.1646278409091,69.20726960280577L809.6414573863636,63.21531867086311L810.0343380681818,62.36630057751785L810.5934375,55.94704060041699L811.0148607954545,64.41575773122189L811.4463579545454,58.348984393371765L812.2388352272727,59.82402128177503L812.6770482954546,66.1592951543189L813.0296335227273,63.432991948548406L813.3922926136364,64.71430920721497L814.2116335227273,59.62801014591104L814.5742926136363,55.06344051747825L814.9184829545454,61.269893167908805L815.2710681818181,66.43818606859196L815.7411818181818,73.83123195365518L816.1609261363636,75.85630011579663L816.602497159091,72.717990640767L818.2730795454545,66.83517017791726L818.6491704545455,65.28134923809803L819.298934659091,64.30490399476308L819.7421846590909,68.21918694947013L820.8150511363636,62.825750206791454L821.2616590909091,59.157782094289686L821.6058494318182,60.196562048321894L822.2505767045456,65.16053444273821L822.5930880681818,66.78618187169761L823.7079289772728,62.43642265451274L824.3358664772727,69.83757724077894L825.4036960227273,75.80171623582477L825.8284772727272,64.54740834256906L826.322096590909,66.72858332646432L826.5420426136365,63.989837282255564L827.0725994318182,67.21365688595489L827.3210880681818,67.03750824900459L827.5561448863637,68.53825562078944L827.9775681818181,63.035198550696364L828.2109460227273,63.907958333298645L828.5652102272727,58.96554132688349L829.173,61.43265295164764L829.3929460227273,60.6096669968187L830.5346505681819,60.91360561801308" style="fill: none;" fill="none"></path></g></g></g></g><g opacity="0.2"><g><g><g><path stroke="rgb(51, 187, 238)" stroke-width="2px" d="M84.11172443181817,302.21584785461425L84.24268465909091,277.0220290374756L84.57848011363637,230.85522966384886L84.95289204545455,366.24153007507323L85.10735795454545,403.1620525360108L85.28700852272726,270.4543323898315L85.3995,207.5707438659668L85.56236079545454,368.0013503265381L85.75040625,224.13967128753666L85.99889488636364,318.9008022308349L86.15839772727273,230.52748397827145L86.26585227272727,260.15216548919676L86.42367613636364,326.77460060119625L86.61340056818182,241.1255365562439L86.88203693181818,327.5249510192871L87.05665056818182,225.15682674407955L87.2530909090909,272.5956003570557L87.41930965909091,300.1311333847046L87.55194886363635,228.80908029556275L87.76182102272726,377.90902702331545L88.11608522727272,306.60463428497314L88.2873409090909,405.97777359008785L88.40319034090909,220.3704210662842L88.60298863636365,315.55791664123535L89.06470738636364,436.58405914306644L89.62044886363637,309.945234375L89.81688920454545,242.92805311203003L90.02844034090909,245.8608501434326L90.31722443181818,244.81423192977906L90.43643181818182,319.86095718383785L90.8595340909091,372.2690341186523L91.0576534090909,366.1347676849365L91.27088352272727,326.0981071472168L91.43206534090909,312.7631616210938L91.58317329545454,246.41888334274296L91.91728977272727,237.14005067825317L92.14898863636364,286.0938906097412L92.27994886363636,283.5805187988281L92.45288352272726,251.92076934814455L92.62413920454544,342.5452974700928L92.74838352272727,230.93590707778932L93.01534090909091,237.02510879516598L93.26550852272727,239.0726424407959L93.67517897727274,282.09824615478516L93.84139772727274,227.59714548110964L94.05798579545454,254.45410503387453L94.24938920454547,344.19848510742185L94.42903977272728,413.01055137634273L94.65402272727273,294.2518984222412L94.9780653409091,216.88435830116273L95.18122159090909,364.40984275817874L95.29539204545455,236.76826406478878L95.46664772727273,301.0988441848755L95.58585511363636,228.25159503936771L95.70002556818181,255.717359046936L95.9031818181818,320.7848036956787L96.0307840909091,350.67762405395507L96.18189204545455,320.7871396636963L96.3262840909091,368.09866790771486L96.56469886363637,316.78033447265625L96.89042045454545,258.09130096435547L97.09021874999999,230.82345977783203L97.21110511363636,224.24561176300048L97.39243465909091,216.34978211402893L97.54690056818181,332.54033203125L97.67786079545455,214.14833232879639L97.90284375,305.18572116851806L98.0992840909091,277.69341796875L98.25878693181818,340.6029400634766L98.6852471590909,315.42925094604493L98.84139204545454,239.39848114013668L99.22755681818182,322.34541778564454L99.37194886363636,338.4729553985596L99.58014204545454,322.7914434814453L99.86053125,336.0226835632324L100.08047727272728,264.7121697235107L100.36254545454545,313.4682057952881L100.6295028409091,225.48207784652706L100.78228977272727,341.1986407470703L101.04756818181818,374.7012238311768L101.32292045454547,425.7034085083008L101.82661363636365,373.84398124694826L103.50559090909091,273.5245369720459L104.53480397727273,269.833556098938L106.02909375,203.9379179620743L106.69228977272728,253.79183647155762L107.39746022727273,218.59242136001586L109.0764375,221.94491758346558L109.926,199.36408357143404L111.45219034090908,269.5763472747803L113.13116761363636,214.9250975704193L114.81014488636363,220.97475906372074L116.61000852272727,237.6252723312378L117.35379545454546,74.83524444580078L117.58549431818182,193.91075226545334L117.830625,170.22299520492555L118.39308238636364,233.04697328567505L118.94714488636363,83.07588352203369L119.24432386363637,191.48770455121993L119.44412215909091,184.57719017744063L119.81181818181818,90.10779613494873L119.99314772727273,183.15933915138243L120.54721022727273,129.56567012786866L120.74029261363636,179.29648077964782L120.9770284090909,203.6364104604721L121.23391193181817,194.79077955007557L121.51430113636363,207.21671313285827L121.82491193181818,188.16493660748003L122.25640909090909,203.01450583934783L122.63250000000001,167.159259595871L123.72383522727272,104.48421569824217L123.93370738636365,167.98186820983886L124.47769602272727,188.3426402825117L124.68085227272726,173.28031050682068L125.40113352272728,182.13063002586367L125.63954829545455,197.17993725299831L125.98541761363637,190.84227791726587L126.16171022727272,195.68150163888933L126.51261647727272,178.74251119136812L126.89038636363635,207.16981713294985L127.02134659090909,216.33494619369503L127.14726988636363,200.50381155967716L127.29669886363635,190.37819240391255L127.59891477272727,202.4484364414215L127.76345454545455,201.0771655368805L128.02369602272728,192.78780728816986L128.17480397727275,207.28739959716796L128.33262784090908,209.59303607940674L128.47366193181819,202.2291546535492L128.79770454545456,209.22861966133118L129.02604545454545,200.6426096963882L129.14525284090908,210.6085657310486L129.50119602272727,207.80602234840393L129.64894602272727,209.49423508644102L129.79669602272725,207.86456033706665L129.92094034090908,198.89341305255888L130.28527840909092,204.14920680999757L130.39609090909093,202.30526917934418L130.69998579545452,176.90168007373808L130.86788352272728,199.36690890312195L131.18688920454545,209.84300808906553L131.32792329545455,200.56293354034423L131.51596874999998,182.32127863168716L131.83833238636362,190.24798392891884L131.98608238636365,208.11971617698666L132.11032670454546,203.12725414752964L132.44612215909092,199.648998670578L132.5804403409091,240.46321752548218L132.74498011363636,248.4668892288208L132.88433522727274,196.1211291074753L133.15129261363637,199.37673312664032L133.3326221590909,209.64857119560241L133.47701420454547,219.62197042465206L133.6415539772727,173.9203188800812L133.79769886363638,232.95804067611698L133.96895454545455,285.3780317687988L134.11166761363634,217.30668725967408L134.30475,182.7943671298027L134.46928977272728,214.2195126628876L134.78997443181817,198.76561703681946L134.9948096590909,181.8670013451576L135.5908465909091,185.81662736535074L136.5831221590909,252.45158924102785L136.86183238636363,273.5050128936768L137.17580113636365,199.96535921573638L137.41421590909093,191.08867691874508L137.72986363636363,369.97716110229493L139.40548295454545,153.62863529205322L141.08446022727273,195.99848628044128L141.35477556818182,285.8776837921142L141.5193153409091,220.32384950637817L142.20601704545453,292.8882843017578L146.34469602272728,235.57292615890503L146.9508068181818,318.31352256774903L147.9414034090909,242.54935232162475L148.52904545454544,288.41463157653806L149.7009715909091,293.6024127960205L150.24328125000002,197.28119227409363L151.92225852272728,196.4294403862953L153.60123579545456,191.37154038548468L155.2802130681818,234.4362794494629L156.9591903409091,266.7651539611816L158.63816761363634,210.7403172111511L160.31714488636362,207.38269663810726L162.33191761363636,225.31611597061158L163.51055965909092,318.25343627929686L164.49779829545454,231.675186882019L167.8557528409091,227.2953658103943L168.43164204545454,268.39569568634033L170.11061931818182,230.58288030624388L171.32955681818183,408.4774324035644L171.60490909090908,280.34496517181395L172.06326988636366,382.4273659515381L173.7422471590909,242.13837335586544L177.10020170454544,222.66444620132447L178.77917897727272,237.13217760086056L180.8510369318182,282.0127093505859L180.99542897727275,320.2086559295654L181.15996875,208.93661284446716L181.5478125,303.39585056304935L183.22678977272727,216.7345138835907L183.4618465909091,302.11664131164554L185.12907102272726,364.3554810333252L185.4010653409091,168.4191772842407L185.5387414772727,214.31947443008423L185.65962784090908,205.40870633125306L187.33860511363636,197.120247502327L187.9950852272727,298.5556311035156L188.1478721590909,331.46976654052736L188.34263352272728,276.59223255157474L188.51892613636363,222.5733650779724L188.71704545454546,195.26937271356584L189.92758806818182,258.2487480926514L190.12067045454543,262.0786541748047L190.42456534090908,238.1466510200501L190.6646590909091,212.98248061180115L191.2674119318182,224.81286987304688L191.92389204545452,220.83721813201905L193.60286931818183,230.08109058380128L196.96082386363636,202.81733283519745L197.45948011363637,306.7187578582764L200.3053465909091,246.8629515838623L200.49507102272727,298.3789771270752L201.1733778409091,258.3732104873657L202.85235511363635,232.9737688064575L203.03032670454547,288.3797002029419L204.90742329545455,292.66813373565674L205.12401136363638,284.3455771636963L206.80298863636364,202.44869419097904L208.48196590909092,213.36112913131714L210.16094318181817,227.50168441772465L211.83992045454545,202.84628640174864L213.51889772727273,215.08146863937378L215.197875,228.1232105255127L223.16630113636364,251.59832645416256L226.2102869318182,199.99023114681248L227.88926420454547,178.36556237697602L231.24721874999997,194.93402521848682L232.92619602272725,193.5015117573738L233.21833806818185,226.8006993484497L234.34493181818183,269.0710572052002L234.58502556818183,200.69478595733642L235.53196875,249.68922775268555L236.21195454545457,260.3727053833008L236.41846875000002,211.96885073661804L236.58468749999997,215.16623219490052L237.19247727272727,255.80468387603761L237.95473295454542,272.0495966720581L239.6135625,245.52907419204712L240.43626136363636,323.94745925903317L240.7838096590909,243.00207590103153L241.22873863636363,259.89471874237057L241.57796590909092,235.22159729003906L242.54841477272726,236.3981357002258L242.97487500000003,228.70184206008915L243.57426988636362,253.44469287872315L244.13504829545454,248.8553160095215L244.59508806818184,246.1130157279968L245.1525085227273,255.77406394958496L245.70153409090912,252.58490524291992L246.40670454545455,259.2967758178711L246.6367244318182,254.4992094039917L246.86842329545456,278.90077457427975L247.2226875,257.7977043914795L247.47957102272727,270.50099407196046L247.6911221590909,263.1680299758911L247.9110681818182,243.97800945281986L248.12933522727275,282.1416778564453L249.80831249999997,244.9266035270691L251.70723579545452,262.97768463134764L253.3862130681818,253.5844616317749L254.34490909090908,199.88343180656435L257.51985511363637,226.63561706542967L260.7317386363636,275.41196308135983L262.41071590909087,251.5655075454712L264.0896931818182,207.51726353645324L265.7686704545455,217.62684825897213L267.44764772727274,243.76285526275635L269.126625,238.2874363517761L270.80560227272724,203.25790433406831L272.48457954545455,200.47807625770565L274.1635568181818,190.7804172348976L275.33212499999996,281.90791522979737L275.9029772727273,264.9723706054687L276.76261363636365,261.85976531982425L277.7750369318182,272.68895977020264L278.5490454545454,275.15134403228757L279.0292329545454,256.48661350250245L279.4976676136364,259.9044807815552L279.88551136363634,275.8953210067749L281.1313125,313.6022932434082L281.54601988636364,241.90493516921995L282.15548863636366,262.8891918182373L282.38382954545455,245.11762298583986L282.74648863636367,284.7051720428467L283.05542045454547,367.2926580047607L283.43990625,267.98930934906L283.7757017045455,274.73043720245363L284.2340625,230.82589307785034L284.63701704545457,232.95299383163456L284.8536051136363,252.0512879562378L286.53258238636363,245.98766292572023L288.21155965909094,231.24941345214847L289.8905369318182,201.29947002410887L291.56951420454544,191.04920901775364L293.7874431818182,181.72952169656753L295.3791136363637,346.9723317718506L296.5174602272727,227.32390571594235L298.1964375,209.3848717689514L299.87541477272725,233.41785867691038L301.3529147727273,296.5013418960571L302.69273863636363,269.8911838531494L303.1863579545455,399.3719732666016L303.5322272727273,355.8511587524414L305.9583494318182,377.9839510345459L307.2595568181818,279.57641006469726L309.24746590909086,109.19762958526611L309.56479261363637,229.08519676208496L310.0197954545455,89.37498710632326L311.3478664772727,280.2168978881836L311.7877585227273,293.5492839431763L312.7347017045455,257.5845328903198L314.4136789772727,206.06603799819945L314.95095170454545,178.28074745178225L315.6729119318182,110.69407665252687L318.0402698863636,248.10504489898682L318.23503124999996,189.90696898519997L318.5221363636363,218.0036528778076L320.20111363636363,198.2702115726471L321.8800909090909,194.30937862873077L323.5926477272727,119.69839702606201L323.7084971590909,184.9970335650444L324.02750284090905,294.15186275482176L325.95496875000003,218.95898448944092L327.6339460227273,168.99853880882262L330.3975426136364,196.09792308568953L333.3223210227273,211.7187813949585L333.77564488636364,235.01155122756958L335.4546221590909,255.63050285339355L338.4499176136364,224.63405296325683L338.74709659090905,220.30359003067016L340.42607386363636,199.46669853687283L341.23198295454546,214.2819006729126L342.4039090909091,216.58119074821474L342.67758238636367,214.34886328697206L344.3565596590909,177.5051132440567L346.03553693181817,249.2908082199097L347.7145142045454,182.59854100227358L348.19134375,263.35380432128903L349.8233096590909,243.93413074493407L352.3182698863637,232.79340900421144L354.5126931818182,265.673254737854L357.87064772727274,240.69931251525878L360.81557386363636,208.65271883010863L361.78938068181816,132.47756961822512L363.6849460227273,245.149122505188L364.73262784090906,99.21715576171873L366.03383522727273,122.78708747863772L367.58688920454546,344.0303819274902L369.2658664772727,203.16601932048798L371.2386647727273,219.83037265777588L372.91764204545456,224.47360656738277L374.5966193181818,224.52819540023808L376.27559659090906,208.36616440773014L377.95457386363637,194.06502754211425L379.6335511363637,198.87714689254761L381.31252840909093,186.99970504403115L382.9915056818182,212.3745305156708L384.67048295454543,221.50996250152588L386.34946022727274,188.86183318354188L388.0284375,215.219972076416L389.70741477272725,217.40739884376526L393.0653693181818,196.03044992923736L393.4716818181818,88.95422447204588L394.4908210227273,77.39227146148681L395.10196875,102.40344497680664L395.6694630681818,77.79038818359375L397.34844034090906,202.98464654445647L397.8000852272727,68.39761940002441L398.36757954545453,68.83392631530764L398.74870738636366,61.60886375427246L399.82661079545454,92.08442882537844L400.41593181818183,68.0068927001953L402.0949090909091,171.88821415901182L403.77388636363634,227.21207485198974L404.5344630681818,262.4247667694092L405.3084715909091,233.92089208602906L406.6801960227273,272.4630197525025L408.3591732954545,223.40314201354977L410.03815056818183,224.0851797866821L410.6341875,104.35777782440184L412.60026988636366,214.7791446304321L414.1096704545455,123.23976058959961L417.33834375000004,228.81905862808227L418.76379545454546,125.87530929565428L420.44277272727277,208.946277551651L422.12175,196.24403058528904L423.8007272727273,226.55979183197022L424.56969886363635,124.72031730651855L426.2486761363636,211.22280996322633L426.7960227272727,63.42719856262206L427.4340340909091,48.770412368774416L429.11301136363636,189.68514845430855L430.0633125,52.32040603637695L433.18453125,201.1771912908554L434.8635085227273,186.32296082496643L438.22146306818183,219.67207477569576L440.9262954545455,65.60449378967287L442.2610823863636,104.93888591766355L443.94005965909093,212.58211624145508L444.40345738636364,70.86403392791746L445.1589971590909,87.71213836669922L445.9464375,83.4112174987793L447.0109090909091,108.1341873550415L447.5095653409091,65.7744715118408L447.7546960227273,78.21559925079346L448.43300284090907,88.35183311462404L449.0256818181818,84.61633907318115L450.65093181818185,89.55239810943606L452.3299090909091,211.1585564231873L452.8067386363636,63.51635467529298L453.4615397727273,67.59093177795408L453.7452869318182,64.43212623596192L455.22782386363633,278.01255157470706L455.5669772727273,58.04225875854491L456.6264119318182,61.69046401977539L456.92694886363637,64.25974044799803L457.66401988636363,59.66111343383791L458.21304545454547,85.91420722961428L461.99242329545456,219.29129756927492L463.79732386363634,386.64309608459473L464.32620170454544,49.153511123657225L464.96925,91.20973857879639L465.4276107954545,71.94936504364016L465.8624659090909,51.073503799438456L466.31914772727276,61.05797904968261L467.7160568181818,65.47360748291015L469.39503409090906,230.45529968261718L469.8651477272727,75.07474605560303L470.3789147727273,92.52944515228273L472.0578920454546,189.11053686372935L472.60188068181816,71.5933894729614L474.28085795454547,202.37384498119354L474.6250482954546,67.59022521972656L476.3040255681819,196.36358942985535L477.22410511363637,95.43442325592041L477.54311079545454,64.1367704772949L478.20126988636366,66.58359603881836L478.5975085227273,73.54952476501467L479.44875,104.3655067062378L480.3923352272728,79.83676826477053L480.72645170454547,86.84749855041504L481.2452556818182,100.49378391265867L482.6858181818182,115.3969858932495L483.01657670454546,72.22036617279055L483.92490340909086,76.46167659759521L484.2993153409091,88.73839256286621L485.3956875,74.0173600387573L486.05216761363636,65.34610977172854L486.2116704545455,214.92680268287657L486.7825227272727,49.94074676513673L488.4615,177.05123700141908L489.29427272727276,53.57862762451174L489.8550511363636,63.47615295410157L491.5340284090909,127.4646399307251L492.5313409090909,102.54653743743899L492.91582670454545,104.3779796218872L493.51354261363633,66.22000694274902L494.3244886363637,73.7593797683716L494.7794914772727,65.20971519470213L496.8496704545455,83.11542194366457L497.1753920454546,70.01781509399416L498.85436931818185,129.84172531127928L500.1572556818182,67.55848777770994L500.73986079545455,100.53611251831055L500.90607954545453,172.42474239349366L501.49204261363633,87.4929467010498L502.0410681818182,76.80339843749998L502.33488920454545,187.3927804416418L502.60688352272723,64.7083472442627L502.9074204545455,66.91981681823731L503.75698295454544,50.82678520202638L504.44200568181816,57.8210627746582L504.92051420454544,50.792985763549815L505.55684659090906,177.3127996301651L506.38794034090904,81.35978336334229L507.46416477272726,106.89928218841553L509.3597301136364,97.40409130096435L509.7173522727273,47.74819564819336L510.8053295454546,96.99679653167725L511.2385056818182,56.13939651489259L511.9503920454546,84.19381004333496L512.9997528409091,86.47837234497072L513.7368238636363,105.18741416931152L513.9601278409091,194.92997152090072L515.6391051136363,171.99082191467284L517.3180823863636,206.34773122787476L517.4960539772727,190.88230175971987L517.6656306818181,206.2244746685028L519.54440625,216.58672785758972L521.4030340909092,193.2195878148079L521.5591789772727,186.36465722322464L521.7388295454546,200.77395382404328L524.9523920454545,224.5381809425354L528.8006079545454,104.29010684967041L530.4795852272728,225.83187463760376L532.1585625,224.0804609870911L532.7260568181817,107.5630143356323L533.0098039772727,64.32240783691408L533.4732017045455,71.3814436340332L534.6065113636363,76.3900546646118L534.8600369318182,79.02512031555176L538.671315340909,92.59441246032715L539.5057670454546,89.85673725128176L540.204221590909,87.98007534027101L540.5366590909091,47.357670822143575L541.6968323863636,77.26011623382568L541.8714460227272,158.19072675704956L542.2928693181818,55.46689727783203L543.3153664772727,132.74323911666872L543.7485426136363,52.26533775329589L544.0306107954545,72.46692615509033L545.7095880681818,222.71281660079956L546.1780227272727,88.8659046936035L546.6850738636364,93.39252044677733L547.2206676136364,65.71207809448242L547.6739914772727,74.62790565490722L548.9802357954545,268.5994440078735L549.5544460227272,212.1130012321472L550.8606903409092,124.3075647354126L551.181375,55.98959175109862L552.8603522727273,191.8087577605247L553.5369801136364,79.88446815490722L553.8308011363637,67.37393188476562L554.4117272727273,224.41627080917357L556.2267017045455,68.30725925445559L556.5272386363637,54.64914985656736L557.1534971590909,72.8061894607544L557.73778125,86.91705127716062L558.0802926136363,56.805075302124024L558.4093721590909,47.036129150390614L559.9825738636364,104.82575729370117L560.3939232954546,57.640227127075185L562.0729005681818,218.45049868583678L562.4086960227272,79.54920627593992L562.8939204545455,62.71009963989257L563.2347528409091,46.29947731018066L563.7686676136364,55.321879806518545L564.0859943181817,62.01108283996583L565.5702102272728,100.07915679931641L565.9765227272727,50.073089447021495L566.3240710227273,59.73675842285157L566.6968039772728,70.3465665435791L567.2525454545455,98.19184604644775L567.4389119318182,179.77314983367918L568.5655056818182,75.54889709472654L568.9953238636364,68.91979476928711L569.601434659091,66.56183692932129L570.0211789772727,74.52146770477293L570.7045227272728,86.87338886260984L571.3610028409091,54.36708892822266L571.8361534090909,70.45130298614504L572.1417272727273,54.69709487915037L572.4439431818182,66.13240814208984L572.8284289772728,71.2846812057495L573.2229886363637,80.3689147567749L573.7350767045455,62.04204162597657L574.2673125,75.37661224365235L574.7273522727273,85.27294075012209L575.548372159091,77.69558681488037L576.4315142045455,57.620198364257824L577.2458181818182,87.19479354858399L578.3707329545455,61.02077659606935L578.5235198863636,160.14571028709412L578.6679119318181,168.83572039604186L579.0641505681818,63.38581443786622L580.7431278409091,192.03138939142227L581.1611931818181,79.17608585357668L581.6665653409091,88.42315944671631L582.4002784090909,68.87518787384033L583.0534005681818,75.78247947692871L583.4378863636364,58.588990631103506L583.9096789772727,53.85065254211427L584.2236477272728,89.12494480133059L585.3317727272728,77.31551616668703L586.6396960227273,61.8702902984619L587.1551420454546,66.01210578918457L587.4439261363636,52.17057243347167L589.5510426136364,208.93700037002563L589.9775028409091,78.28520244598388L590.3116193181818,48.558978424072265L590.5768977272728,67.43259063720703L590.9899261363637,77.77912651062012L591.2635994318181,73.98743225097658L591.8361306818182,55.335578384399405L592.3079232954545,73.19354198455812L593.1087954545454,72.76846069335937L595.6138295454545,242.91967895507813L596.3290738636364,68.03434753417969L596.7538551136364,48.634580154418934L597.1786363636363,55.7848917388916L597.734377840909,63.15634162902832L599.1027443181819,72.80114261627197L600.0295397727273,100.77691909790039L600.5651335227273,91.3169263458252L600.8388068181819,58.543367156982434L601.1813181818183,77.38779418945315L601.5926676136364,86.91127624511721L601.8814517045454,83.66624176025393L602.2709744318182,44.213731842041014L602.6050909090909,63.399570693969714L604.2840681818182,215.7919129371643L604.6534431818181,65.28254837036133L605.0983721590909,79.06101779937744L605.4492784090909,59.864962692260754L606.2434346590909,112.44659339904787L606.9989744318182,81.5827601623535L607.40025,68.88735076904297L607.9039431818181,61.81558250427245L608.2582073863637,81.42482997894285L608.6057556818181,59.34463302612305L610.2847329545455,130.84513893127442L610.6994403409091,87.12824008941652L611.193059659091,88.60994316101076L612.4136761363636,76.02008491516114L612.9190482954546,79.99819519042967L613.8038693181818,62.2671308898926L615.482846590909,234.0418216896057L616.1645113636364,86.82420375823975L617.05940625,92.98694160461426L617.4506079545454,71.20683723449707L617.8250198863636,79.54671169281008L618.5268323863636,74.56068168640137L618.876059659091,62.76459114074707L619.2303238636364,82.29567741394041L620.9093011363636,73.33614418029785L621.9166875,100.29457054138182L622.4119857954546,66.58682601928713L622.9828380681819,74.34227588653565L623.3219914772727,78.47763862609865L624.1581221590909,72.75540378570557L624.4049318181818,73.03835872650149L624.7021107954546,57.03960937499999L625.056375,57.94750785827637L625.59196875,81.42650985717773L626.1023778409092,56.800071716308594L626.5859232954546,77.09665615081785L627.3011676136364,96.71630012512209L628.9801448863636,211.8666178894043L629.2991505681819,76.54363735198974L630.9781278409091,198.86012640953064L631.3810823863637,52.10931816101076L633.0600596590908,208.39784236907963L633.4512613636364,60.26653289794922L633.933127840909,67.91912086486816L634.3562301136363,77.34923629760742L634.7205681818182,63.5171044921875L635.5600568181818,94.04344802856446L635.9932329545454,85.2412537765503L637.26421875,92.95360359191895L637.8098863636365,82.69297222137453L638.2212357954546,75.80434673309328L638.649375,90.34675701141357L639.4334573863637,58.45951744079588L639.7826846590909,77.45976940155029L640.7245909090909,78.30740856170652L641.0435965909091,65.04582252502443L641.5271420454546,67.73811218261719L641.9485653409091,75.0937149810791L642.5227755681818,76.09643646240232L643.2077982954545,71.46593502044678L644.6483607954546,74.34324920654295L645.1453380681819,59.030387649536145L645.5046392045455,61.101266555786154L646.0738125,186.73048585653305L647.0409034090909,65.79392349243166L647.3817357954545,75.40236557006834L647.957625,58.81625724792482L648.4075909090909,61.01940673828124L648.7853607954546,57.95483299255369L649.1362670454545,74.80252647399902L650.0059772727274,77.71552185058596L650.8152443181818,86.94344627380373L651.4096022727273,83.6053551864624L651.8427784090909,72.99961338043211L652.6218238636363,76.79163208007814L652.8719914772727,71.46039070129395L653.6006676136365,79.73717239379883L654.1228295454546,58.923163833618155L654.7272613636364,78.08481388092041L656.4062386363636,202.03677705287933L658.0852159090908,195.77067442417143L658.2178551136365,175.01883397579195L658.6846107954545,74.2884981536865L659.1933409090909,88.46398841857912L660.2678863636364,123.03897548675539L660.59025,67.95532836914064L661.2970994318182,81.67763362884521L663.6443096590909,63.34336326599122L663.9666732954546,63.173846969604504L665.9864829545455,209.14203022956852L666.5405454545454,69.64940986633299L666.9367840909091,72.01691345214846L667.8048153409092,71.39291439056394L669.8817102272727,219.58964178085327L670.3383920454545,55.544892654418945L670.6271761363637,71.21739955902098L670.8941335227273,51.77541893005373L672.5311363636364,110.91210754394531L674.7641761363636,72.02406555175781L675.66075,40.381158142089845L676.0469147727273,58.06272010803222L676.3827102272728,70.37533355712893L676.8175653409091,52.991463317871094L677.1214602272728,67.9818603515625L678.3504715909091,58.071876525878906L678.8474488636364,77.84275279998779L679.5291136363636,80.6768587875366L679.8145397727272,53.60792816162108L680.1066818181818,54.09004600524902L681.1140681818182,55.342038345336924L681.5539602272727,62.91715003967284L682.025752840909,54.27592849731445L682.5546306818181,68.39537715911865L682.8719573863636,78.19944213867186L683.3135284090908,70.28501667022705L683.6325340909091,74.83609519958496L684.02709375,61.70436447143557L684.4082215909091,44.72343429565431L684.8581875,77.22375011444092L685.4928409090909,42.86737792968752L685.8706107954546,63.78334716796877L686.3675880681818,75.74762020111082L686.6194346590909,54.40825675964354L687.0694005681819,70.93317569732666L687.5193664772727,72.93627548217773L688.1321931818183,77.44046882629397L688.5603323863636,57.32435234069824L689.0774573863637,101.52659900665283L689.3410568181818,56.47902030944825L689.6399147727273,63.496859436035145L689.9891420454545,61.34945594787599L690.2846420454546,67.78028938293457L691.543875,82.58975704193115L691.7957215909091,71.14765937805176L692.1063323863636,68.24423858642578L692.4203011363636,79.87116611480711L692.9072045454545,53.576233978271496L693.2665056818181,59.88468864440918L693.5284261363636,73.23739185333254L693.7987414772728,69.46798301696779L695.47771875,124.76603450775148L695.8739573863636,61.03293228149414L696.1593835227272,72.66568531036377L696.4246619318183,60.69126091003416L697.6435994318182,249.38644592285158L697.9390994318182,57.41955024719236L699.0589772727272,120.03097686767576L699.4753636363636,45.755672607421864L700.3064573863636,65.75266914367675L701.3289545454545,75.94959491729736L701.6429232954546,63.4358502960205L702.1650852272727,54.821232833862325L704.102625,46.40661460876463L704.45353125,71.77245151519777L704.9773721590909,51.16939384460447L705.37696875,58.672004013061525L705.8554772727273,80.12290271759034L706.2685056818182,69.17346359252932L706.9484914772728,73.23372207641602L707.254065340909,69.40657012939455L707.8601761363636,68.02477294921873L708.3101420454545,51.57706352233885L708.689590909091,62.49559432983396L709.1412357954546,80.49617454528808L709.4316988636364,70.30843402862547L709.7087301136363,69.84216327667237L711.4212869318181,86.01261348724366L712.259096590909,61.90759368896482L713.5451931818183,86.45434215545654L714.4216193181818,81.45862220764158L714.8044261363636,77.08111186981199L715.1603693181819,71.53504795074463L715.8067755681818,75.85657436370848L716.5304147727273,49.51761932373048L717.0408238636364,67.15326942443848L717.4118778409091,59.86037727355955L718.1254431818182,59.10705642700194L718.4259801136363,74.67349308013918L718.8138238636363,66.15396537780764L719.1983096590909,70.6621817779541L720.2191278409091,69.37317443847658L720.5868238636364,68.90321228027344L721.2819204545455,66.81322746276855L721.6361846590909,54.88727439880371L722.2590852272727,53.40619857788086L722.947465909091,47.01832099914549L723.2631136363636,49.93099914550781L723.5552556818182,86.59412532806397L724.0102585227273,96.29638824462889L724.4467926136363,88.2464838409424L724.9269801136364,48.28274299621581L725.311465909091,54.60678520202639L725.91421875,63.354105834960926L726.65296875,73.78545753479004L727.0576022727273,66.74766174316406L727.8332897727272,71.08693141937256L728.185875,84.25427124023437L728.5132755681818,70.2026737976074L728.8406761363636,57.650479431152355L729.2134090909091,58.34740539550779L729.5727102272728,73.57551601409912L730.2124005681818,79.06308700561522L730.630465909091,59.387257232666016L730.9393977272728,54.47274101257323L731.300377840909,89.99328323364256L731.8443664772727,83.74492206573488L732.2473210227272,51.864560623168934L733.3269034090908,53.844610748291025L733.6929204545454,60.58341705322267L734.0303948863636,63.225742950439454L734.3393267045454,72.26736671447752L734.8245511363637,70.96697513580322L736.5035284090909,187.0829732465744L737.4252869318182,71.43271957397461L738.5653125,102.8442435836792L739.2872727272727,66.65935638427734L740.0965397727273,50.813677825927755L740.4692727272728,63.210948486328114L740.9544971590909,72.4425859451294L741.4598693181819,93.35019184112551L741.9014403409091,54.98179458618163L742.5595994318182,84.30457386016846L743.0851193181818,76.68869087219238L744.3762528409092,82.91905643463133L744.9722897727272,59.99730537414552L745.5666477272728,57.03012130737306L746.9534829545455,69.94822631835937L747.5696676136364,62.50927848815919L748.1304460227273,67.54936019897461L748.6190284090909,53.72606758117678L750.81009375,66.31872322082518L751.2953181818182,64.17423248291016L751.5572386363636,65.65624557495117L753.2127102272727,123.35420860290527L753.8607954545455,60.364701232910136L754.26375,55.500018997192385L754.589471590909,67.07302459716797L754.9756363636363,58.66032417297363L755.3466903409092,70.42618412017822L755.7949772727274,46.6347031402588L756.4010880681818,49.232371673583984L757.1918863636364,73.79868026733396L757.4890653409091,64.85254280090332L757.9205625000001,58.116879959106434L758.357096590909,60.477779388427734L758.7298295454545,59.83371551513672L759.0857727272727,62.309928131103526L759.4081363636363,58.73053298950195L759.7691164772727,65.37574195861816L760.148565340909,53.932815170288066L760.5280142045455,62.29987770080567L760.9175369318182,57.66932579040525L761.4380198863637,62.04331054687502L762.3261988636364,65.84933784484863L762.7828806818181,52.46797576904296L763.1556136363636,78.14945674896242L763.5602471590909,48.62454414367676L763.8792528409091,73.17307342529297L764.6062499999999,41.527483978271505L765.3399630681818,69.80212738037108L765.8654829545455,71.26618812561037L766.1878465909091,54.51754257202148L766.5253210227273,58.661996841430664L766.7586988636364,62.651455307006856L768.0699801136363,63.36128677368164L768.3486903409091,71.10042091369627L768.7147073863637,58.967042541503886L769.1008721590908,70.01795207977297L769.4467414772728,47.934063720703115L771.3053693181819,80.87368572235106L771.7838778409091,57.19972412109375L772.4269261363637,69.08101982116699L772.7257840909091,64.69554267883301L773.1153068181818,65.01062438964846L773.3705113636363,72.08873725891115L773.5938153409091,55.549679946899424L773.8825994318182,72.66287349700926L774.6666818181818,78.1888870239258L775.4390113636364,52.445207290649435L775.74290625,72.0264303588867L776.00146875,66.57978927612307L776.3423011363636,51.19314285278318L776.6461960227273,60.053902130126964L776.9450539772728,78.2150729370117L777.2674176136363,46.08200157165526L777.6686931818182,46.41357925415039L778.0330312499999,45.278313217163095L778.3050255681819,87.6533209991455L778.6307471590909,71.08907272338865L778.9346420454546,65.11023468017578L779.9000539772727,89.4487575531006L780.2627130681818,71.31536602020262L780.7563323863636,72.30087776184082L781.3641221590909,75.11687278747559L782.0323551136364,63.24535354614259L783.5484715909091,54.896632690429676L784.0572017045455,96.9174889755249L784.6314119318182,80.03802200317381L785.2559914772728,79.0592297744751L785.543096590909,59.24572929382325L786.2583409090909,79.19578296661375L787.3160965909091,60.096785888671874L788.1136107954546,56.53623710632324L788.8708295454545,56.481168823242186L789.1495397727273,54.76328063964845L789.8261676136364,65.01546936035156L790.1250255681817,61.43011894226076L790.4423522727274,67.40317474365234L790.9107869318182,54.74443428039551L791.2432244318182,73.33413986206057L791.8610880681817,71.72295639038086L792.21703125,54.66501136779783L792.6434914772727,59.202932052612326L793.5048068181818,61.607061309814455L794.1092386363637,70.72462566375732L794.3929857954545,81.17733993530275L794.7707556818182,63.80620216369628L795.8822386363637,51.730675048828104L796.1542329545455,67.5165412902832L796.4413380681818,75.41412471771238L796.8644403409091,80.46539600372314L797.27746875,61.60485511779786L797.5813636363636,62.0175428009033L797.9540965909091,68.19831951141357L798.1807585227273,53.928056716918945L798.5686022727273,55.15286819458008L798.9127926136364,45.083375244140626L799.2771306818181,75.09046337127685L799.782502840909,58.25333221435547L800.3483181818182,72.99964942932131L801.3305198863636,69.00370216369629L801.7519431818182,86.54515651702883L802.1867982954545,90.84877384185789L803.1320625000001,57.98442192077638L803.4208465909092,68.32888137817385L803.7885426136364,65.48246109008791L804.0706107954545,50.557125091552734L804.7976079545455,89.14193103790285L805.2895482954546,83.29462818145754L805.6303806818181,64.6472660064697L805.9947187500001,69.4658777618408L806.3489829545455,75.46227882385256L806.6243352272727,72.30051727294922L806.9131193181818,75.66420307159426L807.6434744318182,45.958483657836894L807.9490482954545,59.41906677246094L808.3335340909091,82.63049949645996L808.7918948863636,64.42954513549805L809.1646278409091,71.47439929962158L809.6414573863636,54.22739227294922L810.0343380681818,61.0927734375L810.5934375,46.31815063476564L811.0148607954545,77.11883342742918L811.4463579545454,49.24882438659668L812.2388352272727,62.03657661437988L812.6770482954546,75.66220596313477L813.0296335227273,59.34353713989257L813.3922926136364,66.63628509521484L814.2116335227273,51.9985615539551L814.5742926136363,48.21658607482908L814.9184829545454,70.57957214355469L815.2710681818181,74.19062541961668L815.7411818181818,84.92080078124998L816.1609261363636,78.89390235900879L816.602497159091,68.01052642822268L818.2730795454545,58.01093948364257L818.6491704545455,62.95061782836916L819.298934659091,62.84023612976073L819.7421846590909,74.09061138153076L820.8150511363636,54.73559509277344L821.2616590909091,53.6558299255371L821.6058494318182,61.75473197937013L822.2505767045456,72.60649303436281L822.5930880681818,69.22465301513674L823.7079289772728,55.91178382873535L824.3358664772727,80.93930912017822L825.4036960227273,84.74792472839356L825.8284772727272,47.665946502685536L826.322096590909,70.00034580230711L826.5420426136365,59.88171821594239L827.0725994318182,72.04938629150391L827.3210880681818,66.77328529357912L827.5561448863637,70.7893766784668L827.9775681818181,54.78061294555664L828.2109460227273,65.21709800720217L828.5652102272727,51.55191581726076L829.173,65.13332038879395L829.3929460227273,59.375188064575205L830.5346505681819,61.36951354980471" style="fill: none;" fill="none"></path></g></g></g></g></g><g><g opacity="0.00249117"><span fill="rgb(0, 0, 0)" stroke="none" stroke-width="1px">Alt + Scroll to Zoom</span></g></g></g><g transform="translate(51, 378)" clip-path="url(#clip_1)"><clipPath id="clip_1"><rect width="923" height="22"></rect></clipPath><g><g><line x1="0" y1="0" x2="0" y2="5" style="visibility: inherit;" fill="rgb(0, 0, 0)" stroke="rgb(204, 204, 204)" stroke-width="1px"></line><line x1="83.94886363636364" y1="0" x2="83.94886363636364" y2="5" style="visibility: inherit;" fill="rgb(0, 0, 0)" stroke="rgb(204, 204, 204)" stroke-width="1px"></line><line x1="167.89772727272728" y1="0" x2="167.89772727272728" y2="5" style="visibility: inherit;" fill="rgb(0, 0, 0)" stroke="rgb(204, 204, 204)" stroke-width="1px"></line><line x1="251.84659090909088" y1="0" x2="251.84659090909088" y2="5" style="visibility: inherit;" fill="rgb(0, 0, 0)" stroke="rgb(204, 204, 204)" stroke-width="1px"></line><line x1="335.79545454545456" y1="0" x2="335.79545454545456" y2="5" style="visibility: inherit;" fill="rgb(0, 0, 0)" stroke="rgb(204, 204, 204)" stroke-width="1px"></line><line x1="419.7443181818182" y1="0" x2="419.7443181818182" y2="5" style="visibility: inherit;" fill="rgb(0, 0, 0)" stroke="rgb(204, 204, 204)" stroke-width="1px"></line><line x1="503.69318181818176" y1="0" x2="503.69318181818176" y2="5" style="visibility: inherit;" fill="rgb(0, 0, 0)" stroke="rgb(204, 204, 204)" stroke-width="1px"></line><line x1="587.6420454545455" y1="0" x2="587.6420454545455" y2="5" style="visibility: inherit;" fill="rgb(0, 0, 0)" stroke="rgb(204, 204, 204)" stroke-width="1px"></line><line x1="671.5909090909091" y1="0" x2="671.5909090909091" y2="5" style="visibility: inherit;" fill="rgb(0, 0, 0)" stroke="rgb(204, 204, 204)" stroke-width="1px"></line><line x1="755.5397727272727" y1="0" x2="755.5397727272727" y2="5" style="visibility: inherit;" fill="rgb(0, 0, 0)" stroke="rgb(204, 204, 204)" stroke-width="1px"></line><line x1="839.4886363636364" y1="0" x2="839.4886363636364" y2="5" style="visibility: inherit;" fill="rgb(0, 0, 0)" stroke="rgb(204, 204, 204)" stroke-width="1px"></line><line x1="923.4375" y1="0" x2="923.4375" y2="5" style="visibility: inherit;" fill="rgb(0, 0, 0)" stroke="rgb(204, 204, 204)" stroke-width="1px"></line></g><g transform="translate(0, 8)"><text x="0" y="0" dx="0em" dy="0.95em" style="text-anchor: middle; visibility: hidden; font-family: Roboto, sans-serif; font-size: 12px; font-weight: 200;" fill="rgb(50, 49, 63)" stroke="none" stroke-width="1px">-50k</text><text x="83.94886363636364" y="0" dx="0em" dy="0.95em" style="text-anchor: middle; visibility: inherit; font-family: Roboto, sans-serif; font-size: 12px; font-weight: 200;" fill="rgb(50, 49, 63)" stroke="none" stroke-width="1px">0</text><text x="167.89772727272728" y="0" dx="0em" dy="0.95em" style="text-anchor: middle; visibility: inherit; font-family: Roboto, sans-serif; font-size: 12px; font-weight: 200;" fill="rgb(50, 49, 63)" stroke="none" stroke-width="1px">50k</text><text x="251.84659090909088" y="0" dx="0em" dy="0.95em" style="text-anchor: middle; visibility: inherit; font-family: Roboto, sans-serif; font-size: 12px; font-weight: 200;" fill="rgb(50, 49, 63)" stroke="none" stroke-width="1px">100k</text><text x="335.79545454545456" y="0" dx="0em" dy="0.95em" style="text-anchor: middle; visibility: inherit; font-family: Roboto, sans-serif; font-size: 12px; font-weight: 200;" fill="rgb(50, 49, 63)" stroke="none" stroke-width="1px">150k</text><text x="419.7443181818182" y="0" dx="0em" dy="0.95em" style="text-anchor: middle; visibility: inherit; font-family: Roboto, sans-serif; font-size: 12px; font-weight: 200;" fill="rgb(50, 49, 63)" stroke="none" stroke-width="1px">200k</text><text x="503.69318181818176" y="0" dx="0em" dy="0.95em" style="text-anchor: middle; visibility: inherit; font-family: Roboto, sans-serif; font-size: 12px; font-weight: 200;" fill="rgb(50, 49, 63)" stroke="none" stroke-width="1px">250k</text><text x="587.6420454545455" y="0" dx="0em" dy="0.95em" style="text-anchor: middle; visibility: inherit; font-family: Roboto, sans-serif; font-size: 12px; font-weight: 200;" fill="rgb(50, 49, 63)" stroke="none" stroke-width="1px">300k</text><text x="671.5909090909091" y="0" dx="0em" dy="0.95em" style="text-anchor: middle; visibility: inherit; font-family: Roboto, sans-serif; font-size: 12px; font-weight: 200;" fill="rgb(50, 49, 63)" stroke="none" stroke-width="1px">350k</text><text x="755.5397727272727" y="0" dx="0em" dy="0.95em" style="text-anchor: middle; visibility: inherit; font-family: Roboto, sans-serif; font-size: 12px; font-weight: 200;" fill="rgb(50, 49, 63)" stroke="none" stroke-width="1px">400k</text><text x="839.4886363636364" y="0" dx="0em" dy="0.95em" style="text-anchor: middle; visibility: inherit; font-family: Roboto, sans-serif; font-size: 12px; font-weight: 200;" fill="rgb(50, 49, 63)" stroke="none" stroke-width="1px">450k</text><text x="923.4375" y="0" dx="0em" dy="0.95em" style="text-anchor: middle; visibility: hidden; font-family: Roboto, sans-serif; font-size: 12px; font-weight: 200;" fill="rgb(50, 49, 63)" stroke="none" stroke-width="1px">500k</text></g><line x1="0" y1="0" x2="923.4375" y2="0" fill="rgb(0, 0, 0)" stroke="rgb(204, 204, 204)" stroke-width="1px"></line></g></g></g></g></svg>