<svg viewBox="0 0 975 400" xmlns="http://www.w3.org/2000/svg"><g><g><g><g><g><line x1="51.5625" y1="378" x2="46.5625" y2="378" style="visibility: inherit;" fill="rgb(0, 0, 0)" stroke="rgb(204, 204, 204)" stroke-width="1px"></line><line x1="51.5625" y1="351" x2="46.5625" y2="351" style="visibility: inherit;" fill="rgb(0, 0, 0)" stroke="rgb(204, 204, 204)" stroke-width="1px"></line><line x1="51.5625" y1="324" x2="46.5625" y2="324" style="visibility: inherit;" fill="rgb(0, 0, 0)" stroke="rgb(204, 204, 204)" stroke-width="1px"></line><line x1="51.5625" y1="297" x2="46.5625" y2="297" style="visibility: inherit;" fill="rgb(0, 0, 0)" stroke="rgb(204, 204, 204)" stroke-width="1px"></line><line x1="51.5625" y1="270" x2="46.5625" y2="270" style="visibility: inherit;" fill="rgb(0, 0, 0)" stroke="rgb(204, 204, 204)" stroke-width="1px"></line><line x1="51.5625" y1="242.99999999999997" x2="46.5625" y2="242.99999999999997" style="visibility: inherit;" fill="rgb(0, 0, 0)" stroke="rgb(204, 204, 204)" stroke-width="1px"></line><line x1="51.5625" y1="216" x2="46.5625" y2="216" style="visibility: inherit;" fill="rgb(0, 0, 0)" stroke="rgb(204, 204, 204)" stroke-width="1px"></line><line x1="51.5625" y1="189" x2="46.5625" y2="189" style="visibility: inherit;" fill="rgb(0, 0, 0)" stroke="rgb(204, 204, 204)" stroke-width="1px"></line><line x1="51.5625" y1="162" x2="46.5625" y2="162" style="visibility: inherit;" fill="rgb(0, 0, 0)" stroke="rgb(204, 204, 204)" stroke-width="1px"></line><line x1="51.5625" y1="134.99999999999997" x2="46.5625" y2="134.99999999999997" style="visibility: inherit;" fill="rgb(0, 0, 0)" stroke="rgb(204, 204, 204)" stroke-width="1px"></line><line x1="51.5625" y1="108" x2="46.5625" y2="108" style="visibility: inherit;" fill="rgb(0, 0, 0)" stroke="rgb(204, 204, 204)" stroke-width="1px"></line><line x1="51.5625" y1="81" x2="46.5625" y2="81" style="visibility: inherit;" fill="rgb(0, 0, 0)" stroke="rgb(204, 204, 204)" stroke-width="1px"></line><line x1="51.5625" y1="54.00000000000002" x2="46.5625" y2="54.00000000000002" style="visibility: inherit;" fill="rgb(0, 0, 0)" stroke="rgb(204, 204, 204)" stroke-width="1px"></line><line x1="51.5625" y1="26.99999999999999" x2="46.5625" y2="26.99999999999999" style="visibility: inherit;" fill="rgb(0, 0, 0)" stroke="rgb(204, 204, 204)" stroke-width="1px"></line><line x1="51.5625" y1="0" x2="46.5625" y2="0" style="visibility: inherit;" fill="rgb(0, 0, 0)" stroke="rgb(204, 204, 204)" stroke-width="1px"></line></g><g transform="translate(41.5625, 0)"><text x="0" y="378" dx="0em" dy="0.3em" style="text-anchor: end; visibility: hidden; font-family: Roboto, sans-serif; font-size: 12px; font-weight: 200;" fill="rgb(50, 49, 63)" stroke="none" stroke-width="1px">-400</text><text x="0" y="351" dx="0em" dy="0.3em" style="text-anchor: end; visibility: inherit; font-family: Roboto, sans-serif; font-size: 12px; font-weight: 200;" fill="rgb(50, 49, 63)" stroke="none" stroke-width="1px">-350</text><text x="0" y="324" dx="0em" dy="0.3em" style="text-anchor: end; visibility: inherit; font-family: Roboto, sans-serif; font-size: 12px; font-weight: 200;" fill="rgb(50, 49, 63)" stroke="none" stroke-width="1px">-300</text><text x="0" y="297" dx="0em" dy="0.3em" style="text-anchor: end; visibility: inherit; font-family: Roboto, sans-serif; font-size: 12px; font-weight: 200;" fill="rgb(50, 49, 63)" stroke="none" stroke-width="1px">-250</text><text x="0" y="270" dx="0em" dy="0.3em" style="text-anchor: end; visibility: inherit; font-family: Roboto, sans-serif; font-size: 12px; font-weight: 200;" fill="rgb(50, 49, 63)" stroke="none" stroke-width="1px">-200</text><text x="0" y="242.99999999999997" dx="0em" dy="0.3em" style="text-anchor: end; visibility: inherit; font-family: Roboto, sans-serif; font-size: 12px; font-weight: 200;" fill="rgb(50, 49, 63)" stroke="none" stroke-width="1px">-150</text><text x="0" y="216" dx="0em" dy="0.3em" style="text-anchor: end; visibility: inherit; font-family: Roboto, sans-serif; font-size: 12px; font-weight: 200;" fill="rgb(50, 49, 63)" stroke="none" stroke-width="1px">-100</text><text x="0" y="189" dx="0em" dy="0.3em" style="text-anchor: end; visibility: inherit; font-family: Roboto, sans-serif; font-size: 12px; font-weight: 200;" fill="rgb(50, 49, 63)" stroke="none" stroke-width="1px">-50</text><text x="0" y="162" dx="0em" dy="0.3em" style="text-anchor: end; visibility: inherit; font-family: Roboto, sans-serif; font-size: 12px; font-weight: 200;" fill="rgb(50, 49, 63)" stroke="none" stroke-width="1px">0</text><text x="0" y="134.99999999999997" dx="0em" dy="0.3em" style="text-anchor: end; visibility: inherit; font-family: Roboto, sans-serif; font-size: 12px; font-weight: 200;" fill="rgb(50, 49, 63)" stroke="none" stroke-width="1px">50</text><text x="0" y="108" dx="0em" dy="0.3em" style="text-anchor: end; visibility: inherit; font-family: Roboto, sans-serif; font-size: 12px; font-weight: 200;" fill="rgb(50, 49, 63)" stroke="none" stroke-width="1px">100</text><text x="0" y="81" dx="0em" dy="0.3em" style="text-anchor: end; visibility: inherit; font-family: Roboto, sans-serif; font-size: 12px; font-weight: 200;" fill="rgb(50, 49, 63)" stroke="none" stroke-width="1px">150</text><text x="0" y="54.00000000000002" dx="0em" dy="0.3em" style="text-anchor: end; visibility: inherit; font-family: Roboto, sans-serif; font-size: 12px; font-weight: 200;" fill="rgb(50, 49, 63)" stroke="none" stroke-width="1px">200</text><text x="0" y="26.99999999999999" dx="0em" dy="0.3em" style="text-anchor: end; visibility: inherit; font-family: Roboto, sans-serif; font-size: 12px; font-weight: 200;" fill="rgb(50, 49, 63)" stroke="none" stroke-width="1px">250</text><text x="0" y="0" dx="0em" dy="0.3em" style="text-anchor: end; visibility: hidden; font-family: Roboto, sans-serif; font-size: 12px; font-weight: 200;" fill="rgb(50, 49, 63)" stroke="none" stroke-width="1px">300</text></g><line x1="51.5625" y1="0" x2="51.5625" y2="378" fill="rgb(0, 0, 0)" stroke="rgb(204, 204, 204)" stroke-width="1px"></line></g></g><g transform="translate(51, 0)" clip-path="url(#clip_0)"><clipPath id="clip_0"><rect width="923" height="378"></rect></clipPath><g><g><g><line x1="0" y1="0" x2="0" y2="378" fill="rgb(0, 0, 0)" stroke="rgb(60, 60, 60)" stroke-width="1px" opacity="0.25"></line><line x1="71.03365384615385" y1="0" x2="71.03365384615385" y2="378" fill="rgb(0, 0, 0)" stroke="rgb(60, 60, 60)" stroke-width="1px" opacity="0.25"></line><line x1="142.0673076923077" y1="0" x2="142.0673076923077" y2="378" fill="rgb(0, 0, 0)" stroke="rgb(60, 60, 60)" stroke-width="1px" opacity="0.25"></line><line x1="213.10096153846155" y1="0" x2="213.10096153846155" y2="378" fill="rgb(0, 0, 0)" stroke="rgb(60, 60, 60)" stroke-width="1px" opacity="0.25"></line><line x1="284.1346153846154" y1="0" x2="284.1346153846154" y2="378" fill="rgb(0, 0, 0)" stroke="rgb(60, 60, 60)" stroke-width="1px" opacity="0.25"></line><line x1="355.1682692307692" y1="0" x2="355.1682692307692" y2="378" fill="rgb(0, 0, 0)" stroke="rgb(60, 60, 60)" stroke-width="1px" opacity="0.25"></line><line x1="426.2019230769231" y1="0" x2="426.2019230769231" y2="378" fill="rgb(0, 0, 0)" stroke="rgb(60, 60, 60)" stroke-width="1px" opacity="0.25"></line><line x1="497.2355769230769" y1="0" x2="497.2355769230769" y2="378" fill="rgb(0, 0, 0)" stroke="rgb(60, 60, 60)" stroke-width="1px" opacity="0.25"></line><line x1="568.2692307692308" y1="0" x2="568.2692307692308" y2="378" fill="rgb(0, 0, 0)" stroke="rgb(60, 60, 60)" stroke-width="1px" opacity="0.25"></line><line x1="639.3028846153846" y1="0" x2="639.3028846153846" y2="378" fill="rgb(0, 0, 0)" stroke="rgb(60, 60, 60)" stroke-width="1px" opacity="0.25"></line><line x1="710.3365384615385" y1="0" x2="710.3365384615385" y2="378" fill="rgb(0, 0, 0)" stroke="rgb(60, 60, 60)" stroke-width="1px" opacity="0.25"></line><line x1="781.3701923076923" y1="0" x2="781.3701923076923" y2="378" fill="rgb(0, 0, 0)" stroke="rgb(60, 60, 60)" stroke-width="1px" opacity="0.25"></line><line x1="852.4038461538462" y1="0" x2="852.4038461538462" y2="378" fill="rgb(0, 0, 0)" stroke="rgb(60, 60, 60)" stroke-width="1px" opacity="0.25"></line><line x1="923.4375" y1="0" x2="923.4375" y2="378" fill="rgb(0, 0, 0)" stroke="rgb(60, 60, 60)" stroke-width="1px" opacity="0.25"></line></g><g><line x1="0" y1="378" x2="923.4375" y2="378" fill="rgb(0, 0, 0)" stroke="rgb(60, 60, 60)" stroke-width="1px" opacity="0.25"></line><line x1="0" y1="351" x2="923.4375" y2="351" fill="rgb(0, 0, 0)" stroke="rgb(60, 60, 60)" stroke-width="1px" opacity="0.25"></line><line x1="0" y1="324" x2="923.4375" y2="324" fill="rgb(0, 0, 0)" stroke="rgb(60, 60, 60)" stroke-width="1px" opacity="0.25"></line><line x1="0" y1="297" x2="923.4375" y2="297" fill="rgb(0, 0, 0)" stroke="rgb(60, 60, 60)" stroke-width="1px" opacity="0.25"></line><line x1="0" y1="270" x2="923.4375" y2="270" fill="rgb(0, 0, 0)" stroke="rgb(60, 60, 60)" stroke-width="1px" opacity="0.25"></line><line x1="0" y1="242.99999999999997" x2="923.4375" y2="242.99999999999997" fill="rgb(0, 0, 0)" stroke="rgb(60, 60, 60)" stroke-width="1px" opacity="0.25"></line><line x1="0" y1="216" x2="923.4375" y2="216" fill="rgb(0, 0, 0)" stroke="rgb(60, 60, 60)" stroke-width="1px" opacity="0.25"></line><line x1="0" y1="189" x2="923.4375" y2="189" fill="rgb(0, 0, 0)" stroke="rgb(60, 60, 60)" stroke-width="1px" opacity="0.25"></line><line x1="0" y1="162" x2="923.4375" y2="162" fill="rgb(0, 0, 0)" stroke="rgb(60, 60, 60)" stroke-width="1px" opacity="0.25"></line><line x1="0" y1="134.99999999999997" x2="923.4375" y2="134.99999999999997" fill="rgb(0, 0, 0)" stroke="rgb(60, 60, 60)" stroke-width="1px" opacity="0.25"></line><line x1="0" y1="108" x2="923.4375" y2="108" fill="rgb(0, 0, 0)" stroke="rgb(60, 60, 60)" stroke-width="1px" opacity="0.25"></line><line x1="0" y1="81" x2="923.4375" y2="81" fill="rgb(0, 0, 0)" stroke="rgb(60, 60, 60)" stroke-width="1px" opacity="0.25"></line><line x1="0" y1="54.00000000000002" x2="923.4375" y2="54.00000000000002" fill="rgb(0, 0, 0)" stroke="rgb(60, 60, 60)" stroke-width="1px" opacity="0.25"></line><line x1="0" y1="26.99999999999999" x2="923.4375" y2="26.99999999999999" fill="rgb(0, 0, 0)" stroke="rgb(60, 60, 60)" stroke-width="1px" opacity="0.25"></line><line x1="0" y1="0" x2="923.4375" y2="0" fill="rgb(0, 0, 0)" stroke="rgb(60, 60, 60)" stroke-width="1px" opacity="0.25"></line></g></g></g><g><g><line x1="0" y1="162" x2="923.4375" y2="162" fill="rgb(0, 0, 0)" stroke="rgb(153, 153, 153)" stroke-width="1.5px"></line></g></g><g><g><line x1="71.03365384615385" y1="0" x2="71.03365384615385" y2="378" fill="rgb(0, 0, 0)" stroke="rgb(153, 153, 153)" stroke-width="1.5px"></line></g></g><g><g><g><g><g><path stroke="rgb(204, 51, 17)" stroke-width="2px" d="M71.16151442307692,288.81101074218753L71.26096153846154,308.0360584259033L71.4982139423077,331.7550051942164L71.69852884615385,283.6900333095999L71.78376923076922,255.0609879556586L71.92299519230768,294.82317256108007L72.04091105769231,269.4020421587421L72.16166826923077,278.9003302522191L72.3179423076923,268.31294555456975L72.42733413461538,235.0635454180954L72.58360817307693,223.12387817760083L72.75835096153847,228.67145183918032L72.92741105769231,300.2930276216633L73.0382235576923,263.2790726153084L73.15613942307692,283.79277777017063L73.28826201923077,261.23902433729046L73.46584615384616,300.5171397353603L73.54540384615385,269.8253602668686L73.67326442307692,278.84147332942416L73.77271153846154,256.5713300198365L73.86789663461539,248.44931710533052L74.04832211538462,213.09639480704746L74.13214182692307,215.23163023608583L74.28841586538461,234.07462345721237L74.60948798076923,222.79553631908126L74.96465625,222.24098753250155L75.06126201923077,223.79297252591138L75.1990673076923,214.2916273512358L75.29851442307692,205.11394235899746L75.43489903846154,233.79729656122754L75.68209615384616,292.03704044706586L75.78580528846153,285.74604810838105L75.87814903846154,286.4621214529335L75.9747548076923,287.4690189943589L76.09835336538461,265.88185316418856L76.36970192307693,270.78389405356705L76.51461057692308,254.87932443185687L76.63678846153846,247.64716079436909L76.73055288461538,214.5392527703525L76.82857932692308,242.8338013338233L76.9464951923077,229.63791341910473L77.27609134615385,223.58140149093106L77.42242067307693,253.96071468262718L77.70797596153847,249.77133835474893L77.83441586538461,278.8938518440016L77.95375240384617,285.0305305892055L78.05888221153846,285.6350915469053L78.16827403846153,296.15587939127005L78.30607932692308,274.44460978778983L78.52486298076923,245.80217456384867L78.70670913461538,232.74344688912475L78.8118389423077,234.23826759636984L78.91981009615384,228.97990489375024L79.06187740384615,303.8709317058598L79.19826201923077,303.78373993171897L79.30907451923076,276.48846441800544L79.39857692307692,246.6489366219879L79.58326442307693,260.2292222026868L79.74664182692308,253.0299633753224L79.86313701923076,237.34434576200906L80.09754807692308,219.0393286180936L80.19415384615385,230.6574334745673L80.29360096153846,245.02640185720145L80.44277163461538,236.8824110606099L80.57489423076923,251.41901963441288L80.74537500000001,291.6162150033041L80.88602163461539,290.2371685771777L81.02666826923077,288.4803995349785L81.11190865384616,271.1505522209871L81.36052644230769,287.1159355806392L81.45997355769231,249.83286295360807L81.7924110576923,237.4530136095672L81.91743028846153,253.4600773307794L82.07938701923077,248.00111378128014L82.24276442307692,246.18693596896338L82.42745192307693,283.54800142512806L82.5240576923077,255.70001752988153L82.80108894230769,234.5394950760344L82.9190048076923,239.5551107419097L83.04686538461537,234.52332346418873L83.15625721153846,221.8325178822242L83.32105528846154,251.51788194515484L83.43470913461539,262.80322477256163L83.60092788461539,274.6232887453729L83.84528365384615,278.17564756363L83.96177884615385,234.18846712857106L84.05980528846153,228.43568647831452L84.19192788461538,276.22038747292623L84.32120913461539,305.4537124642245L84.45617307692308,279.5169442754097L84.56272355769231,274.01558367950366L84.70621153846155,285.41889415301466L84.95625,259.27253619884004L85.09547596153845,265.9842141021165L85.19350240384615,244.91492354183632L85.29721153846154,220.65102172153735L85.7560889423077,378.7156603962037L86.69515384615384,379.40657959457025L86.81733173076923,357.93961303994524L86.95939903846154,359.6510148942797L87.098625,361.67278886820844L87.35860817307692,348.9930480767845L87.51346153846154,387.7536100960707L87.66547355769231,359.7062690849861L87.98370432692307,329.26818357013235L88.6130625,364.2359970561419L88.9327139423077,360.3020198645445L89.63736778846153,370.7619204148205L89.9854326923077,369.96295107701724L93.15779567307693,312.8693650065619L94.57846875,273.91536991946447L97.41981490384615,253.49942013283103L98.84048798076923,232.8054634810658L101.68183413461539,224.45864735133478L104.52318028846153,227.9943405104103L105.94385336538461,226.99748052694926L106.306125,362.9460703474196L107.72679807692309,318.4039261439986L108.78093750000001,331.4349662821023L110.13483894230768,396.73021609738646L112.07405769230769,394.31682062585935L112.28289663461538,369.3937649829375L112.50168028846154,379.23800117726256L112.79007692307692,373.25066056963874L113.05006009615384,345.1017496132676L113.95360817307693,332.1072650999918L114.36844471153847,349.471166433042L115.20522115384615,334.83711294576267L115.71666346153846,293.5663435731217L116.66425240384615,312.97631371223235L117.34049278846153,287.3579089548785L117.91160336538462,294.866185558474L119.39194471153847,317.640145172975L119.95311057692308,333.9786019963632L120.73874278846152,409.1483267251616L121.79430288461539,365.87053290033134L122.41939903846153,338.64241410055035L123.84007211538463,287.62737991784974L124.76919230769232,322.3878923061786L126.55355769230769,332.332976350504L127.90319711538461,337.65751774389616L128.8436826923077,301.0244608416502L129.4346826923077,270.6056913365331L130.16917067307693,298.83399854215423L131.04288461538462,312.4991906291988L131.45630048076922,297.78778085701146L132.06576923076923,299.4781040610819L132.6354591346154,312.11395887219595L133.45660817307692,292.99861531355197L133.89559615384616,255.76706024037725L135.71831971153847,264.4512540885623L137.49131971153847,248.68549775343035L137.92036298076923,224.62646466768322L138.811125,198.94609317133745L139.15350721153848,197.19328877633762L139.60386057692307,206.7868291007635L140.86257692307692,222.84950126905187L141.30440625,237.4481106735405L141.94086778846153,255.1411419168196L142.34149759615383,258.01668161005273L142.69950721153845,223.35132088619764L144.00084375,216.76212584470684L144.41568028846154,210.44248333153112L144.78079326923077,196.65021563063257L145.3732139423077,207.34161137300845L145.9841033653846,211.8377662622816L146.47281490384614,242.65249191068932L147.06523557692307,206.66592155327388L147.56105048076924,186.560375151813L148.69190625,209.19532714186903L149.12237019230767,230.35580016695738L149.57698557692308,214.89661532356305L150.02875961538462,222.53581587382533L150.74335817307693,203.81709241430985L151.1965528846154,224.35654402280463L151.6227548076923,243.00250624766716L152.88999519230768,242.48056392926435L153.22669471153847,297.948775613418L154.64736778846154,274.85812901551174L156.0680408653846,250.85649703821326L156.53260096153846,216.23789222622386L156.9673269230769,193.73643117084788L158.388,208.43870794567277L160.15815865384616,212.85145554132944L161.57883173076922,224.1773381685477L162.3658846153846,200.26342252774606L163.7865576923077,209.8545056650851L165.20723076923076,211.01310427795732L167.50161778846154,219.18359181482128L167.9604951923077,197.15986721467095L169.38116826923076,200.7310105387635L170.80184134615385,203.76012841798467L172.22251442307692,209.55778872071264L173.6431875,206.7991657251034L175.06386057692308,206.21183665430033L176.48453365384614,215.98947864052943L177.90520673076924,214.6870562639075L179.3258798076923,213.5676512998484L179.83732211538464,197.8636075340594L181.25799519230767,207.76215072649035L182.67866826923077,219.1012337952692L185.52001442307693,203.98456950079432L186.9406875,213.71344946414848L188.36136057692306,216.63901926345002L189.78203365384616,222.73718853560908L191.61612259615384,246.22188160281073L193.03679567307694,232.56883623707705L194.45746875,223.8772832485939L197.29881490384616,219.05782960491803L199.53779567307691,218.93747077320475L202.3791418269231,219.14316398247757L203.79981490384614,226.11562165608805L205.22048798076924,218.06105292529344L206.6411610576923,226.4671117356448L208.0618341346154,234.40270014685564L210.90318028846153,225.37012167502746L212.32385336538462,228.46799353724305L213.25865625,231.9600947063302L214.6793293269231,222.87778387457936L216.10000240384613,226.9495953735757L217.52067548076923,220.56388332277828L218.94134855769232,216.66976975196772L220.3620216346154,221.75339072080956L227.46538701923077,223.49543274791543L230.3067331730769,217.1754060110539L231.72740625,212.9694992829019L234.56875240384616,205.1031489715966L235.98942548076926,201.0224242035146L237.41009855769232,208.06805468080017L238.83077163461542,199.8011013936852L240.25144471153843,200.53426026248064L241.67211778846152,204.6389144948907L243.09279086538461,202.97314764712974L244.51346394230768,205.5235942767544L245.93413701923077,211.21708625355265L247.35481009615384,181.82253803753196L248.77548317307694,175.54904096903405L253.0375024038462,188.73377919567827L254.4581754807692,200.23811877473113L255.8788485576923,208.80314403095198L257.29952163461536,203.46260867809264L258.72019471153845,197.84101869806653L261.56154086538464,201.79320063534385L262.9708485576923,243.23289840855006L264.2807091346154,247.37940152071596L265.7013822115385,217.78299525202922L265.96136538461536,208.85383590854173L267.38203846153846,206.15195938203908L267.5496778846154,216.26220163020002L268.4560673076923,224.7941536197216L269.8767403846154,209.13654301411808L270.02591105769227,207.27082876257242L270.3611899038462,216.68756354172314L271.3286682692308,162.31641983890106L272.74934134615387,185.88417453517658L274.1700144230769,189.88722218936766L274.35328124999995,194.01273480287844L275.5295985576923,219.59403065223486L277.0454567307692,221.8494561110675L278.4661298076923,198.89505676524277L280.67953846153847,204.8655919204738L282.31047115384615,206.7275660897843L284.2411658653846,204.30181632623385L285.66183894230767,206.9353042122442L287.08251201923076,197.3564043901395L288.1963197115385,215.66006101787275L289.6169927884615,212.22476585877052L290.9296947115385,160.51415162952011L291.12290624999997,185.4119302477316L292.54357932692307,176.5374097031281L293.6517043269231,139.0109161587909L294.67174759615386,108.47876881148548L296.09242067307696,133.5600428268083L296.6351177884615,158.41522033719824L298.0557908653846,165.2519679109371L298.2362163461538,185.20521523142554L298.43226923076924,199.06949876776162L298.54734375,231.96938041300072L298.77323076923074,226.7875299201637L299.1042475961538,221.19868616498883L299.3358173076923,218.47941354225503L300.7195528846154,222.46567095250145L302.1402259615385,213.423548323454L302.2567211538461,221.09405587395523L303.62624999999997,230.2293051064044L303.83793028846156,223.8077459056395L304.57099759615386,152.52017464299308L305.6322403846154,179.5439551886279L307.0529134615385,179.75643472816697L308.4735865384615,159.0045624055037L309.8942596153846,171.03926341376118L311.3149326923077,175.63670459366688L312.7356057692308,181.43669194565325L314.10655528846155,153.21802517715759L315.78010817307694,184.08083128061094L316.0358293269231,190.57575310186263L318.04466105769234,194.18150203201603L318.2776514423077,198.16581662448303L319.69832451923077,195.2393581997875L320.11031971153847,202.97130852338816L321.3605120192308,148.4374936101266L321.6204951923077,173.56447559722832L323.0411682692308,176.86153658514363L324.7317692307692,166.1108251340696L325.0016971153846,190.5720607542699L326.7249735576923,198.59310602043303L328.1456466346154,200.5907508192911L328.48802884615384,201.83145104089107L328.67981971153847,198.65478694533542L330.1004927884615,192.86390064010166L332.4985889423077,150.30984917312347L332.69322115384614,173.34075636666705L332.88927403846156,186.5951928336721L334.2502788461539,151.79098990674626L336.87,199.63177875850084L338.2906730769231,179.99969487961226L338.4710985576923,197.7291637905603L338.7609158653846,206.85981864787135L340.1815889423077,210.35515351782436L342.0938149038461,206.7942625208509L343.15221634615386,221.20781495879956L344.5728894230769,201.22288724798483L347.4142355769231,192.04238977371767L348.8349086538462,180.9437163845248L351.6762548076923,182.2286650724141L354.51760096153845,180.37281765001583L354.77616346153843,196.95952841959934L356.1968365384615,186.12008944250667L356.6969134615385,199.9946698764415L358.1175865384616,197.8826352083356L359.5382596153846,194.6026685578627L361.13225480769233,208.9479035028817L361.3197836538462,212.72119907194386L361.7431442307692,155.77537117656473L362.00596874999997,180.26055089197396L363.37265625000003,141.30929830862192L364.7933293269231,159.18253568072976L365.14281490384616,181.36675285375037L367.9841610576923,186.89728523275804L370.8255072115385,189.2224037934634L371.26875721153846,204.97313136299212L373.8913197115385,221.50525064396712L376.4542139423077,212.9898025470248L376.69714903846153,214.67116387684774L378.13771153846153,213.2512100448586L379.5583846153846,202.92026350250114L380.96343028846155,165.61192775482095L382.38410336538465,173.99620310064648L383.8047764423077,180.80894958255587L386.587875,189.10008251808816L386.79103125,199.91009937657563L388.2117043269231,187.0025311911919L389.58833653846153,228.6595323865902L391.00900961538457,231.62337446125096L392.42968269230767,220.53618135399665L393.85035576923076,199.17858591811085L395.27102884615385,201.8348943487181L396.69170192307695,188.93617253299794L397.8594951923077,135.89836160085346L399.2801682692307,155.13706682623476L400.7008413461538,162.42049778617053L403.3049350961538,159.6433114051618L404.52103125,126.18591372297989L405.94170432692306,128.23636918715707L407.36237740384615,141.3308765097384L408.78305048076925,159.05324151253248L409.85992067307694,115.90439168486327L410.94815625,96.19055395623045L412.36882932692305,125.71816236031053L413.78950240384614,150.28735261638167L415.21017548076924,169.6715220434618L416.6308485576923,182.7556830014677L416.9093004807692,195.80859046494314L418.3299735576923,184.79343516275495L418.51892307692304,192.74439355614905L419.93959615384614,189.70480495693164L421.36026923076923,178.21669925738496L422.7809423076923,182.46837966185282L424.20161538461537,178.40593944872302L424.38630288461536,190.2585030002885L427.22764903846155,195.7865860531028L428.6483221153846,197.84594845803358L431.8320504807692,213.96160471935136L433.2527235576923,199.11781852924264L434.6733966346154,174.09008848693037L435.8241418269231,126.9162831946973L437.2448149038462,145.079236088083L438.6654879807692,161.92469179933417L439.1698269230769,196.3486490639755L440.59049999999996,193.56941706900054L442.5723389423077,147.21921384003315L443.11787740384614,166.40316456500622L444.53855048076923,165.53752288451153L445.2858245192308,197.71458416527724L446.70649759615384,155.35098841420537L448.1527427884615,113.88720755047636L448.95116105769233,158.90882935206315L449.5989879807692,281.8933469276442L449.8362403846154,258.81555564193803L450.87617307692307,332.70981385391286L451.5822475961539,213.95782910824616L451.9004783653846,209.81107606602188L452.92762500000003,263.7120413915663L453.22880769230767,226.19869486667804L454.15650721153844,158.0790994883662L455.3882307692308,202.16538010317598L456.8089038461539,205.660271579972L459.4968173076923,206.49193083128398L460.9174903846154,210.39731816673913L462.3381634615385,218.9605766910591L463.75883653846154,203.33519891990892L465.17950961538463,213.49731167372272L465.46790624999994,213.10414615950705L466.8885793269231,210.94205294228624L468.5919663461538,205.31722303734443L469.6461057692308,268.8892024747504L469.86346875000004,227.08616415834268L471.23441826923073,250.95894410047433L476.2124567307693,214.57132513566913L477.83486538461534,199.21711023643078L479.2555384615385,199.22742715260065L479.58371394230767,201.8938572315018L481.00438701923076,215.04450281546357L482.4250600961538,212.73136044171954L483.84573317307695,205.0102504386157L485.26640625,194.03764405284227L486.6870793269231,199.210723394596L486.91722836538463,197.57429121449195L488.33790144230767,182.9538426987803L489.7585745192308,183.50193104651427L490.43481490384613,137.08137334958823L491.25170192307695,211.76076419529983L492.672375,211.52158980380096L493.0303846153846,199.32310097700716L494.2322740384615,144.427417104759L495.50093509615385,117.8173440616835L495.9697572115385,182.35859308251793L496.13881730769225,221.97727254872953L497.5594903846154,209.50449860003846L500.36247836538456,237.97862311021842L500.63240625,242.10785379777167L500.83698317307693,247.50104614096767L501.24187499999994,231.8359859609478L502.16531249999997,162.4149248285218L502.3855168269231,202.2674043600037L503.80618990384613,183.51742890598024L503.9667259615385,187.95003269148853L505.3873990384615,191.68979518862358L505.67579567307695,192.9172668226468L506.7782379807692,219.47414940022873L507.70309615384616,253.1747140053716L508.76718028846153,183.5219701268558L508.9234543269231,228.05578376068374L509.06552163461544,215.67714518316808L509.2118509615385,273.7144184575571L510.63252403846155,205.08401978791315L510.8626730769231,246.19586939227915L512.2833461538461,211.75447500450812L512.5106538461539,239.85530670680646L514.3902043269231,210.02651983188414L514.5464783653846,231.8359783053805L514.7908341346154,215.59582602741776L515.020983173077,214.57659498168502L515.1843605769232,198.18002891894264L516.6050336538461,184.2799763910537L516.8238173076924,209.85189342740568L517.7600408653847,131.41018439628715L518.0384927884616,186.10266141902227L518.6365961538461,122.55483452231182L518.8766899038461,196.94060627979331L519.0414879807693,203.90639861895022L520.0501658653845,141.28877874656544L521.4708389423078,163.33138141419906L522.0092740384615,168.29580530420793L523.4299471153846,137.16598660049348L524.8506201923077,145.28194249282782L526.3849471153846,173.45073727304043L527.8056201923076,163.59123580559674L529.2262932692308,176.56500164571156L530.6469663461538,185.38974579943866L531.3885576923077,117.12592511638194L532.8092307692308,135.4936627034199L533.5323533653847,169.9261019799621L534.9530264423076,186.7645546816296L535.6179014423077,139.72807704725898L537.0385745192307,118.3912893435898L538.4592475961539,151.89181236347807L539.8799206730769,172.14104640246188L541.1869399038461,168.35693208647223L544.0282860576923,163.20538848467143L544.4743774038461,173.2557857641427L545.6521153846154,146.46813222508717L549.1157163461538,110.25063971102887L554.1036995192308,145.43154148042592L555.5243725961539,163.85526262629267L556.945045673077,178.37148478524824L557.7846634615385,129.56323047075833L559.2053365384616,124.50046501585345L560.2438485576923,98.30236262767612L561.6645216346154,138.21836569672283L563.0851947115384,155.96910767486966L564.5257572115385,121.25157019574213L565.9464302884614,146.60661753248436L567.3671033653847,169.09828826851404L568.7877764423076,153.54499941984864L571.6291225961538,171.0534214048389L572.1789230769231,117.12997508411429L573.5995961538462,154.60983514812483L575.5700697115384,136.46715615479286L576.7364423076923,101.0405707924851L577.5320192307693,166.91080158193637L578.3318581730769,119.93231627631023L579.7525312500001,150.1839244032373L581.173204326923,168.929190030126L582.5938774038461,183.97853904248964L584.0145504807692,187.71225764180238L585.4352235576922,196.18625552502286L586.8558966346154,190.92797169880274L588.2765697115384,199.33557342455512L589.6972427884616,195.10725768998694L589.9543846153847,192.16901733371873L591.3750576923077,191.8056615598992L592.3553221153846,134.00631331777544L593.7759951923077,149.96985818109496L595.6683317307692,95.82451451803192L596.7949254807692,82.5881171580848L598.2155985576924,129.7717868597923L599.6362716346154,156.992814547516L599.718670673077,257.1258176347596L601.13934375,234.36776389628545L602.5600168269231,213.07793513220486L603.9806899038462,195.0826059432145L605.4013629807692,181.7615497138093L606.8220360576923,173.4963439136737L606.9910961538462,169.14315032422505L608.4117692307692,177.01417391645884L608.7527307692308,107.04327632253158L610.1734038461539,129.74170330420012L612.2518485576924,116.97563385996146L613.6725216346154,135.42601526089263L615.0931947115384,154.81530300419183L615.4611490384615,115.37158939528854L616.8818221153846,143.41813460641143L618.3024951923077,155.01956853850507L619.7231682692308,162.47300421514404L621.1438413461539,160.6757135970491L622.564514423077,168.5471976589619L623.9851874999999,166.42711626001946L625.4058605769231,168.3511659504697L626.8265336538461,167.3406055685118L628.2472067307692,169.0076113727233L629.6678798076923,176.26278203359487L631.0885528846153,171.65940113849192L631.9878389423077,122.21012872020448L633.4085120192308,146.40423290228873L634.8291850961539,147.19839324173947L636.2498581730769,159.1184202071286L637.6705312500001,156.63126911951645L640.5118774038463,155.4854814195248L643.2963966346153,162.96657646462995L644.4997067307693,115.55087324694202L647.68059375,88.92089601847768L648.89953125,84.13770887573511L650.3202043269231,118.31910874676674L651.7252500000001,113.8820430068491L653.145923076923,130.7203385055255L654.1759110576924,107.62361960722151L655.5965841346153,131.6907761725971L656.8013149038462,113.11530420453484L658.1125961538462,108.85313741774041L659.5332692307692,130.929997776572L660.2421850961539,103.230392342701L661.6628581730769,130.44083741062548L663.0835312500001,146.58943822213215L666.4846225961538,104.73530331413868L667.5984302884616,92.03182725215505L668.6042668269231,80.63856473508213L670.7168076923077,76.10036589183052L672.1374807692307,111.18937124942326L672.8208245192308,76.90476483949772L673.6774903846153,67.86732521229237L675.0981634615384,114.30580027874262L676.3838725961538,106.777672916269L677.212125,82.16921715308168L677.8088076923077,53.14364479380211L678.6768389423077,55.10169786260942L680.8959302884615,48.20644327811251L681.3377596153846,31.49609716803942L682.0708269230769,38.0142944092221L682.8181009615384,48.09473912111921L683.3735841346154,44.19980770606995L685.392360576923,42.07983433067324L686.8130336538462,98.41548058497618L687.6171346153847,81.80536757461851L688.1740384615384,61.08011617465388L688.7820865384615,49.43009448506584L689.6302283653846,47.29721074377384L691.0509014423077,98.57447065707974L692.3096177884615,98.63250044844703L692.9134038461539,81.38159829152916L693.7487596153846,74.7977349758941L694.4292620192308,118.11668233685481L695.8499350961538,146.94909707911484L697.083079326923,119.91347887735171L697.7266442307692,88.77995719945788L699.2112475961538,70.52152803061225L699.6772283653846,50.13910016797671L700.2227668269231,41.57988673652822L700.795298076923,37.84115054777631L702.1832956730769,61.612866964407935L702.8794254807692,59.04483114055881L703.4121778846154,54.98687927515562L704.7149350961538,77.79343322915584L707.40853125,65.04051599218106L708.2126322115384,59.87255141659771L709.9515360576924,62.749102016950815L711.0596610576923,58.781756742397036L712.0697596153846,56.781828093289775L713.2617043269231,57.739105645036375L713.9862475961539,45.32593494463899L715.0560144230769,57.42392644529906L716.5207283653846,53.90561465624194L717.1117283653846,47.34032631327639L717.7297211538461,42.29686912780957L718.2923076923076,37.21450685266234L718.9117211538462,37.56734327175366L719.4984591346154,40.32433894645064L720.9191322115385,85.45456413752372L721.2671971153846,105.99759801010212L722.7773725961539,95.45604733145188L723.7590576923077,66.29433762738677L724.1511634615384,55.37431339186173L724.548951923077,34.5879430155858L725.2266129807692,38.041994324976486L726.6302379807693,53.56214227369682L728.0509110576922,95.47502757842098L728.4629062500001,64.79844550213069L729.883579326923,99.3719192452482L730.4461658653846,79.00223345632858L730.9973870192307,60.87040477106273L732.3797019230768,69.91400506966889L732.7916971153846,47.31064522930134L734.2123701923077,73.82703447644802L734.6655649038462,63.23904429426725L735.2352548076923,113.65087121767365L735.7097596153847,76.06649392201038L735.9697427884615,93.04566710515935L736.3405384615385,127.03121927859856L736.8519807692307,91.66659436012792L738.2087235576923,86.33185810533455L738.7272692307693,62.85669262198977L739.2358701923077,48.12195527045951L740.6167644230769,106.52177261906283L740.746045673077,122.68691579006561L741.1409927884615,80.98581915177377L741.4592235576922,102.21199927304667L742.6383822115386,84.63084287437484L743.8843125000001,76.15973509474216L744.3545552884615,53.094328849814026L744.5960697115385,82.72416060334544L745.803641826923,67.92262929657758L746.246891826923,56.428531069157486L746.5267644230769,92.09576392042518L746.8449951923077,118.84012506215498L747.5723798076923,94.14433150701957L748.05825,127.87942451151154L748.8140480769231,139.49333617205585L749.054141826923,142.1914135379503L750.0471923076924,109.58812497823892L750.2361418269231,119.94681965857423L752.1100096153847,81.19366088694142L752.399826923077,106.41375045672541L753.5463100961539,85.8025593560665L753.7309975961539,103.46273931847384L755.3036826923077,81.75968448463898L755.7938149038462,66.82865627183808L756.6007572115384,53.699228186930995L757.662,52.08391349907263L758.4490528846154,49.3574538123342L759.4619927884615,47.28870458720524L760.8826658653846,73.52794760583873L761.154014423077,100.09041764187238L762.0916586538463,84.25513962320942L762.5079158653846,57.412909701660006L763.4896009615385,50.04360763740228L764.6502908653846,64.64229702873041L765.1929879807693,51.22473173286328L766.3650432692307,89.08976196757443L767.1762475961539,67.40708935827905L767.802764423077,90.32913819748691L768.0954230769231,61.30895069192971L768.3014206730769,95.72693772167631L769.1254110576923,70.85785867792768L770.5290360576923,59.33933080734256L770.885625,48.640676365264916L771.1797043269231,34.4007781336121L771.8005384615385,38.26553755887818L772.7239759615385,102.03797854118628L774.9388052884616,85.2958282624071L776.2273557692307,121.39039875187784L776.3111754807692,149.54621193789427L776.647875,149.03013931788794L776.8325625,149.1094282410013L777.7176418269231,110.2197547229211L778.80871875,130.67053044510365L778.91953125,134.7142872001677L779.4565456730769,98.72335295974902L779.7634110576923,66.99621514499005L780.0489663461539,103.20863940346133L780.7678269230769,67.12978959910801L780.9368870192308,100.76558986969434L781.4611153846154,71.80631815521502L781.762298076923,50.57248083453523L781.9128894230769,94.42822580540866L782.0876322115384,119.42151920822077L782.2978918269231,131.3049307510067L782.46553125,140.32004392271094L782.9911802884615,97.56088585069685L783.1261442307692,122.72124932772464L783.8634735576924,141.17619077400292L784.2300072115385,142.69942587492426L784.7087740384615,97.50697241948576L785.0539975961539,116.52679865554889L785.8552572115385,90.4363000185247L786.60253125,68.83999693006011L786.71334375,99.73905055671771L787.2347307692309,74.4747474727025L787.726283653846,60.79879587131681L787.9464879807692,95.46549642537795L788.26471875,119.70662794861059L788.3698485576923,134.69553732367075L788.7207548076923,150.77422887308427L789.0588750000001,151.01235867394823L789.3444302884615,165.24635923513065L789.6186201923077,159.3389152114885L789.9297475961539,166.72571990020856L790.4724447115385,174.45847155194153L791.1472644230769,134.4645599819462L791.3646274038462,141.36225854165795L791.8789110576923,157.83370445971153L792.1019567307692,150.19252803471366L792.2752788461538,152.80508630935358L792.6659639423076,158.59013737216L792.8563341346154,154.78655820759775L793.2129230769231,103.07283616967584L793.3322596153846,128.45787028853647L793.4913750000001,135.00360738125175L793.6476490384615,147.26157919315537L793.9474110576923,152.19457988207364L794.2031322115386,156.8240815683891L794.8154423076924,108.71474459533034L795.0811081730769,128.4432764332541L795.4874206730769,131.3804769683509L795.5683990384615,161.5421154656785L795.7942860576923,157.08201909630165L795.87384375,179.26792019801536L796.5927043269231,122.28003678677797L797.1325600961538,89.22004770683243L797.6212716346154,112.40173792890899L798.0233221153846,127.88347693092939L798.4750961538462,146.09030071239061L798.6356322115385,154.1958736494803L798.8231610576923,149.07314241478585L799.9852716346154,106.92001777309025L800.2537788461539,134.49021839700845L800.5734302884616,89.3674723467988L801.1530649038461,62.3003769627668L801.8648221153845,45.920129742113176L802.3776850961539,104.0324222056195L802.6362475961539,137.99034312439707L802.8266177884616,148.80949529571978L803.078076923077,96.03610586883812L803.3849423076923,68.68336444903726L803.7330072115385,101.15392884093114L803.8921225961539,114.0434814195489L804.3041177884616,86.85728684977623L804.73884375,109.72208808276613L804.8567596153846,121.3991160698745L805.14515625,147.86390442586026L805.3795673076924,146.54062738452006L805.7276322115384,152.21554527874977L805.9663052884615,163.7322051579725L806.1978750000001,155.569035802303L806.4322860576923,155.88278821874755L806.5700913461538,161.35244953494728L806.864170673077,156.57408817494786L807.0133413461539,157.14177676513717L807.6057620192307,106.18409987255882L807.7819254807692,123.9782914054689L808.2081274038462,76.78511009718758L808.505048076923,117.66137036434284L808.7607692307693,140.39776595945045L809.3489278846154,137.3553975212269L810.2070144230769,109.02198570511892L810.6147475961538,70.91424366916512L811.0480528846153,108.95291035631475L811.4287932692308,71.02943273722632L811.59075,100.49239200317561L812.1178197115385,66.32334999682729L812.3749615384615,101.99898683525458L812.623579326923,115.42735703645545L812.79121875,151.75647647773266L812.93896875,149.42409395548725L813.177641826923,144.28535313232553L813.4234182692308,154.520667163514L813.586795673077,145.6540675344365L813.9234951923077,96.93594845523224L814.6153629807692,68.17043809169401L815.0088894230769,42.19980533548511L815.2702932692307,86.03301198547082L815.5331177884616,109.18073541393872L815.6922331730769,135.5113362221181L815.8868653846154,136.52008374621033L816.2562403846154,145.6538062673185L816.649766826923,144.69196094544967L817.07596875,111.01711370105888L817.5106947115385,118.83217633220761L817.649920673077,128.87387574561362L817.8374495192307,129.90535630063962L818.1528389423078,202.5380162706182L818.5108485576924,129.67366547526152L818.7225288461539,135.76648554003972L819.0649110576923,90.01393429277388L819.4129759615385,127.23409751414087L819.5436778846154,135.10841354083314L819.7326274038461,146.83092290324745L820.3420961538461,150.41588858081565L820.6177067307692,155.6308190142731L820.7967115384615,151.1206734459174L821.0240192307692,162.0725234980924L821.3294639423077,160.20345561191698L821.4729519230768,155.13665347579277L821.7059423076923,98.08952968313194L822.3793413461539,91.52454837628541L822.672,126.46517891590798L822.8510048076922,129.68243120208385L823.042795673077,137.10812961968784L823.1607115384616,135.63236190267207L823.3482403846155,146.2782397639024L823.500252403846,147.79223099823403L823.8369519230769,96.23920798370607L824.4876201923076,121.45903248065335L824.8214783653846,86.01811443468105L825.2363149038462,56.71145606315238L825.5332355769231,99.31020210621416L825.9878509615385,63.16714787505667L826.1554903846154,107.95306382574199L826.5390721153847,67.90150479935144L826.6996081730769,100.18355757321439L826.8430961538462,120.9371403270097L827.0633004807693,133.62585350162573L827.1911610576923,137.38540983657114L827.4681923076922,158.3752668370013L827.6173629807693,154.7202732003453L827.8190985576923,150.93096999625698L828.1003918269231,151.27627889716825L828.4441947115384,96.67039575626971L828.6331442307693,116.85177627212119L829.3449014423078,79.06169100741336L829.4841274038462,108.12305069148412L829.6404014423077,126.85559974014681L829.7668413461538,135.98430829989866L829.9557908653845,150.50055961983176L830.3095384615384,111.84251912150845L830.9673100961538,131.79889514514247L831.4929591346154,91.92961992399954L831.6265024038461,110.96813316045443L832.1052692307693,77.28267201053046L832.5570432692308,57.76043255202142L834.4195456730769,183.150083017541L834.5886057692308,165.61090595066128L834.9281466346154,164.34761895596733L835.1156754807691,154.38088967192024L835.2762115384616,162.0484807483426L835.5930216346153,161.42010889959758L836.4894663461539,119.4698190018679L836.854579326923,80.89815946752702L836.9568677884615,106.15513319882673L837.0946730769231,113.23261037583903L837.2466850961538,123.56550296256394L838.3661754807692,174.33174354999932L838.9003485576923,118.57522435265581L839.1290769230769,72.33256771706228L839.5183413461539,69.28229697789361L839.7953725961538,103.69634007791049L839.9516466346154,125.403004768487L840.1121826923078,140.4452598141409L840.4744543269231,100.93918127910952L840.8608774038462,70.23199057898918L841.0228341346153,100.64965113450288L842.4435072115384,142.58823373490097L842.9123293269231,97.52046941574525L843.2262980769231,78.4753703945643L844.1866730769231,79.73101056681672L844.6569158653846,101.93867311255094L845.4894302884616,130.96679874668098L845.7550961538461,83.54806606441481L845.8772740384616,110.08254645627585L846.1187884615384,74.25722465110923L846.7964495192308,66.81036359925928L847.272375,95.21773881995594L848.9459278846153,131.05940195896576L849.3806538461539,205.09550030623885L849.5738653846154,188.44362300631408L850.0213774038461,126.54242685554628L850.6763076923078,82.82959869145276L850.909298076923,52.02094573830913L851.2119014423076,42.816301940055794L852.6325745192308,78.54402634225612L853.0261009615385,69.43467801238488L853.4750336538461,44.6414525593841L853.6682451923076,154.69903266844298L854.0944471153846,99.93687272606577L854.6826057692308,82.24168186317848L855.5151201923077,105.76654525071959L856.6459759615384,95.98994375199428L856.8604975961539,58.74042474729033L859.5825072115385,61.44281100071794L859.9646682692307,64.47067512582139L860.2203894230769,43.700621384086595L860.3880288461538,80.54907360559841L860.8511682692308,68.1594610090622L861.0813173076923,44.71215560934361L861.3114663461538,33.16841738904362L862.4110673076924,44.02625245979332L862.7165120192308,40.17126929814166L863.3984350961539,40.27414658865057L863.54334375,123.62314408112006L863.7805961538462,83.0445070541408L865.2012692307692,104.19288596466222L866.3960552884615,85.18285779950041L866.5821634615385,111.51880054090633L866.9089182692309,76.05450468977818L868.8737091346154,106.28225083327608L869.1251682692308,69.72472257027816L869.2956490384615,97.19994358855362L869.8937524038462,77.52934884356185L870.3611538461538,61.28147759226988L870.4904350961539,98.93243806903388L870.7035360576923,67.87674335899838L871.0061394230769,49.48356457008654L871.3797764423077,44.80864570005973L871.5673052884615,31.77401334777023L871.8272884615384,27.6134675789746L873.9838701923077,57.70081064992388L874.4697403846153,49.02436676104801L874.7425096153846,32.587258484363225L874.9357211538462,20.482141223430403L875.3690264423077,29.512021794605126L876.1930168269231,36.22194891660679L876.3066706730768,88.79042595701978L876.8493677884616,79.97609541796186L877.3281346153846,70.40481984843338L877.6193725961538,51.37921466296632L878.2700408653847,54.017265858326624L878.9022403846154,59.17832826499598L879.4065793269231,38.640598765638224L879.5230745192307,80.59937064243961L880.0941850961539,63.87870954366685L880.1822668269231,102.2413294249306L880.2916586538461,127.3150676783043L880.6880264423077,91.60962153959979L881.2747644230769,66.81057602434578L882.4269302884616,85.9542402679278L882.6371899038462,119.50485582915269L883.5165865384616,87.26287968401506L883.8575480769231,54.754136013534016L884.0962211538462,104.06980515548369L884.357625,69.01151834719649L884.89321875,97.02255712648194L885.3194206730769,67.12259824073287L885.4458605769231,106.77608793232429L885.5410456730768,138.4274455145215L885.6674855769231,139.07687282629104L886.4758485576923,165.7316806415754L886.5710336538461,172.4290754015468L886.66621875,167.8384390372767L886.8040240384615,175.98343460766873L887.2160192307692,118.46568576460123L887.643641826923,85.02538606813573L888.3767091346155,80.49064582545172L888.5415072115385,109.39079507278569L888.6764711538461,138.06298723654254L888.7688149038462,152.94700475952803L889.1751274038462,96.15730466235743L889.324298076923,127.29112008684318L889.4649447115385,135.10502747507957L889.8499471153846,90.00033289129772L890.0090625,115.46561713132407" style="fill: none;" fill="none"></path></g></g></g></g><g opacity="0.2"><g><g><g><path stroke="rgb(204, 51, 17)" stroke-width="2px" d="M71.16151442307692,288.81101074218753L71.26096153846154,319.5710870361328L71.4982139423077,354.5251940917969L71.69852884615385,227.165626373291L71.78376923076922,217.68290634155272L71.92299519230768,349.8285882568359L72.04091105769231,233.0494189453125L72.16166826923077,292.74892547607425L72.3179423076923,252.69860961914063L72.42733413461538,185.6920612335205L72.58360817307693,205.32266921997072L72.75835096153847,236.96262268066408L72.92741105769231,407.4915344238281L73.0382235576923,207.830654296875L73.15613942307692,314.5392224121094L73.28826201923077,227.42430084228513L73.46584615384616,359.4176916503906L73.54540384615385,223.7954837036133L73.67326442307692,292.36426940917966L73.77271153846154,223.1681506347656L73.86789663461539,236.2667431640625L74.04832211538462,160.06817466259002L74.13214182692307,218.43444122314455L74.28841586538461,262.3388900756836L74.60948798076923,205.87698577880857L74.96465625,221.4091667175293L75.06126201923077,226.12094604492185L75.1990673076923,200.03962417602537L75.29851442307692,191.34742332458498L75.43489903846154,276.82231201171874L75.68209615384616,379.3966369628906L75.78580528846153,276.3095608520508L75.87814903846154,287.5362313842773L75.9747548076923,288.979365234375L76.09835336538461,233.5011053466797L76.36970192307693,278.13695526123047L76.51461057692308,231.02247024536135L76.63678846153846,236.79891540527342L76.73055288461538,164.8773909187317L76.82857932692308,285.27562408447267L76.9464951923077,209.8440815734863L77.27609134615385,214.49663360595704L77.42242067307693,299.52968444824216L77.70797596153847,243.48727386474607L77.83441586538461,322.5776220703125L77.95375240384617,294.23554870605466L78.05888221153846,286.5419329833984L78.16827403846153,311.93706115722654L78.30607932692308,241.8777053833008L78.52486298076923,202.83852172851562L78.70670913461538,213.15535537719728L78.8118389423077,236.4804986572266L78.91981009615384,221.09236083984374L79.06187740384615,416.20747192382817L79.19826201923077,303.6529522705078L79.30907451923076,235.5455511474609L79.39857692307692,201.8896449279785L79.58326442307693,280.59965057373046L79.74664182692308,242.23107513427735L79.86313701923076,213.81591934204104L80.09754807692308,191.5818029022217L80.19415384615385,248.08459075927735L80.29360096153846,266.57985443115234L80.44277163461538,224.66642486572266L80.57489423076923,273.2239324951172L80.74537500000001,351.9120080566406L80.88602163461539,288.1685989379883L81.02666826923077,285.8452459716797L81.11190865384616,245.15578125000002L81.36052644230769,311.0640106201172L81.45997355769231,193.9082540130615L81.7924110576923,218.88323959350586L81.91743028846153,277.47067291259765L82.07938701923077,239.81266845703126L82.24276442307692,243.4656692504883L82.42745192307693,339.589599609375L82.5240576923077,213.92804168701173L82.80108894230769,202.79871139526367L82.9190048076923,247.07853424072266L83.04686538461537,226.97564254760744L83.15625721153846,202.79630950927734L83.32105528846154,296.0459280395508L83.43470913461539,279.7312390136719L83.60092788461539,292.3533847045898L83.84528365384615,283.50418579101563L83.96177884615385,168.2076964759827L84.05980528846153,219.80651550292967L84.19192788461538,347.89743896484373L84.32120913461539,349.3036999511719L84.45617307692308,240.61179199218748L84.56272355769231,265.7635427856445L84.70621153846155,302.52385986328125L84.95625,220.05299926757812L85.09547596153845,276.0517309570313L85.19350240384615,213.310987701416L85.29721153846154,184.25516899108888L85.7560889423077,615.8126184082031L86.31299278846153,404.56639160156254L86.41954326923077,364.31958251953125L86.69515384615384,341.38807250976566L86.81733173076923,325.7391632080078L86.95939903846154,362.21811767578123L87.098625,364.7054498291016L87.35860817307692,329.97343688964844L87.51346153846154,445.89445312500004L87.66547355769231,317.63525756835935L87.98370432692307,283.6110552978515L88.6130625,416.6877172851562L88.9327139423077,354.40105407714844L89.63736778846153,386.4517712402344L89.9854326923077,368.76449707031253L93.15779567307693,227.22898590087888L94.57846875,215.48437728881834L97.41981490384615,222.87549545288084L98.84048798076923,201.76452850341795L101.68183413461539,211.9384231567383L104.52318028846153,233.29788024902342L105.94385336538461,225.5021905517578L106.306125,566.8689550781249L107.72679807692309,251.59070983886718L108.78093750000001,350.9815264892578L110.13483894230768,494.6730908203125L112.07405769230769,380.2247314453125L112.28289663461538,332.00918151855467L112.50168028846154,394.00435546875L112.79007692307692,364.2696496582031L113.05006009615384,302.8783831787109L113.95360817307693,312.61553833007815L114.36844471153847,375.5170184326172L115.20522115384615,312.88603271484374L115.71666346153846,231.66018951416015L116.66425240384615,342.0912689208985L117.34049278846153,248.93030181884765L117.91160336538462,306.1286004638672L119.39194471153847,351.8010845947266L119.95311057692308,358.4862872314453L120.73874278846152,521.9029138183594L121.79430288461539,300.95384216308594L122.41939903846153,297.8002359008789L123.84007211538463,211.1048286437988L124.76919230769232,374.5286608886719L126.55355769230769,347.2506024169922L127.90319711538461,345.6443298339844L128.8436826923077,246.07487548828124L129.4346826923077,224.9775370788574L130.16917067307693,341.17645935058596L131.04288461538462,332.9969787597656L131.45630048076922,275.72066619873044L132.06576923076923,302.0135888671875L132.6354591346154,331.0677410888672L133.45660817307692,264.32559997558593L133.89559615384616,199.91972763061523L135.71831971153847,277.4775448608399L137.49131971153847,225.03686325073244L137.92036298076923,188.5379150390625L138.811125,160.42553592681884L139.15350721153848,194.5640821838379L139.60386057692307,221.17713958740237L140.86257692307692,246.9435095214844L141.30440625,259.34602478027347L141.94086778846153,281.6806887817383L142.34149759615383,262.32999114990236L142.69950721153845,171.35327980041507L144.00084375,206.8783332824707L144.41568028846154,200.96301956176757L144.78079326923077,175.96181407928466L145.3732139423077,223.37870498657227L145.9841033653846,218.58199859619143L146.47281490384614,288.8745803833008L147.06523557692307,152.68606601715086L147.56105048076924,156.4020555496216L148.69190625,243.14775512695311L149.12237019230767,262.09650970458983L149.57698557692308,191.70783805847165L150.02875961538462,233.99461669921874L150.74335817307693,175.73900722503663L151.1965528846154,255.16572143554689L151.6227548076923,270.97144958496096L152.88999519230768,241.6976504516602L153.22669471153847,381.1510931396485L154.64736778846154,240.2221591186523L156.0680408653846,214.85404907226567L156.53260096153846,164.30998500823975L156.9673269230769,159.9842395877838L158.388,230.49212310791015L160.15815865384616,219.47057693481443L161.57883173076922,241.16616210937497L162.3658846153846,164.39254906654358L163.7865576923077,224.24113037109373L165.20723076923076,212.75100219726562L167.50161778846154,231.4393231201172L167.9604951923077,164.1242803144455L169.38116826923076,206.08772552490234L170.80184134615385,208.3038052368164L172.22251442307692,218.25427917480465L173.6431875,202.66123123168947L175.06386057692308,205.33084304809572L176.48453365384614,230.65594161987303L177.90520673076924,212.73342269897458L179.3258798076923,211.88854385375978L179.83732211538464,174.307541885376L181.25799519230767,222.60996551513674L182.67866826923077,236.10985839843747L185.52001442307693,181.30957305908203L186.9406875,228.30676940917968L188.36136057692306,221.02737396240232L189.78203365384616,231.88444244384763L191.61612259615384,281.4489212036133L193.03679567307694,212.08926818847655L194.45746875,210.83995376586913L197.29881490384616,211.8286491394043L199.53779567307691,218.75693252563477L202.3791418269231,219.4517037963867L203.79981490384614,236.5743081665039L205.22048798076924,205.97919982910156L206.6411610576923,239.0761999511719L208.0618341346154,246.30608276367184L210.90318028846153,211.82125396728517L212.32385336538462,233.1148013305664L213.25865625,237.19824645996093L214.6793293269231,209.25431762695314L216.10000240384613,233.05731262207033L217.52067548076923,210.98531524658205L218.94134855769232,210.82859939575192L220.3620216346154,229.37882217407227L227.46538701923077,226.1084957885742L230.3067331730769,207.69536590576172L231.72740625,206.66063919067383L234.56875240384616,193.3036235046387L235.98942548076926,194.9013370513916L237.41009855769232,218.63650039672854L238.83077163461542,187.40067146301269L240.25144471153843,201.63399856567383L241.67211778846152,210.79589584350586L243.09279086538461,200.47449737548826L244.51346394230768,209.34926422119142L245.93413701923077,219.75732421875L247.35481009615384,137.73071571350098L248.77548317307694,166.13879536628724L253.0375024038462,208.51088653564457L254.4581754807692,217.49462814331056L255.8788485576923,221.6506819152832L257.29952163461536,195.45180564880368L258.72019471153845,189.40863372802735L261.56154086538464,207.72147354125977L262.9708485576923,305.39244506835934L264.2807091346154,253.59915618896483L265.7013822115385,173.38838584899904L265.96136538461536,195.46009689331052L267.38203846153846,202.09914459228514L267.5496778846154,231.42756500244144L268.4560673076923,237.59208160400394L269.8767403846154,185.65012710571287L270.02591105769227,204.4722573852539L270.3611899038462,230.81266571044924L271.3286682692308,80.75970428466796L272.74934134615387,221.23580657958985L274.1700144230769,195.89179367065432L274.35328124999995,200.2010037231445L275.5295985576923,257.96597442626955L277.0454567307692,225.2325942993164L278.4661298076923,164.46345774650575L280.67953846153847,213.82139465332028L282.31047115384615,209.52052734374996L284.2411658653846,200.6631916809082L285.66183894230767,210.88553604125977L287.08251201923076,182.98805465698243L288.1963197115385,243.11554595947266L289.6169927884615,207.07182312011722L290.9296947115385,82.94823028564454L291.12290624999997,222.75859817504883L292.54357932692307,163.22562888622284L293.6517043269231,82.72117584228513L294.67174759615386,62.680547790527335L296.09242067307696,171.18195384979248L296.6351177884615,195.6979866027832L298.0557908653846,175.5070892715454L298.2362163461538,215.13508621215817L298.43226923076924,219.86592407226564L298.54734375,281.3192028808594L298.77323076923074,219.01475418090817L299.1042475961538,212.81542053222657L299.3358173076923,214.40050460815428L300.7195528846154,228.44505706787106L302.1402259615385,199.86036437988278L302.2567211538461,232.59981719970702L303.62624999999997,243.93217895507811L303.83793028846156,214.1754071044922L304.57099759615386,45.58881774902342L305.6322403846154,220.0796260070801L307.0529134615385,180.07515403747558L308.4735865384615,127.87675392150878L309.8942596153846,189.09131492614745L311.3149326923077,182.53286636352536L312.7356057692308,190.1366729736328L314.10655528846155,110.89002502441404L315.78010817307694,230.37504043579102L316.0358293269231,200.31813583374023L318.04466105769234,199.59012542724608L318.2776514423077,204.1422885131836L319.69832451923077,190.8496705627441L320.11031971153847,214.56923400878907L321.3605120192308,66.63677124023438L321.6204951923077,211.25494857788084L323.0411682692308,181.80712806701663L324.7317692307692,149.9847579574585L325.0016971153846,227.2639141845703L326.7249735576923,210.62467391967775L328.1456466346154,203.58721801757812L328.48802884615384,203.692501373291L328.67981971153847,193.88979080200193L330.1004927884615,184.17757118225097L332.4985889423077,86.47877197265626L332.69322115384614,207.88711715698244L332.88927403846156,206.47684753417968L334.2502788461539,99.58468551635741L336.87,271.3929620361329L338.2906730769231,150.55156906127928L338.4710985576923,224.3233671569824L338.7609158653846,220.5558009338379L340.1815889423077,215.5981558227539L342.0938149038461,201.4529260253906L343.15221634615386,242.8281436157227L344.5728894230769,171.2454956817627L347.4142355769231,178.27164356231688L348.8349086538462,164.29570630073547L351.6762548076923,184.15608810424803L354.51760096153845,177.58904651641845L354.77616346153843,221.8395945739746L356.1968365384615,169.86093097686768L356.6969134615385,220.8065405273437L358.1175865384616,194.71458320617677L359.5382596153846,189.6827185821533L361.13225480769233,230.46575592041015L361.3197836538462,218.3811424255371L361.7431442307692,70.35662933349609L362.00596874999997,216.98832046508787L363.37265625000003,82.88241943359374L364.7933293269231,185.9923917388916L365.14281490384616,214.64307861328126L367.9841610576923,195.1930838012695L370.8255072115385,192.7100816345215L371.26875721153846,228.59922271728516L373.8913197115385,246.30342956542972L376.4542139423077,200.2166304016113L376.69714903846153,217.19320587158202L378.13771153846153,211.121279296875L379.5583846153846,187.42384368896487L380.96343028846155,109.64942413330078L382.38410336538465,186.57261611938478L383.8047764423077,191.02806930541993L386.587875,201.5367819213867L386.79103125,216.12512466430664L388.2117043269231,167.64117891311645L389.58833653846153,291.1450341796875L391.00900961538457,236.0691375732422L392.42968269230767,203.90539169311523L393.85035576923076,167.1421927642822L395.27102884615385,205.81935699462892L396.69170192307695,169.5880898094177L397.8594951923077,56.3416452026367L399.2801682692307,183.99512466430664L400.7008413461538,173.34564422607423L403.3049350961538,155.47753183364867L404.52103125,75.99981719970701L405.94170432692306,131.31205238342284L407.36237740384615,160.9726374936104L408.78305048076925,185.6367890167236L409.85992067307694,51.18111694335936L410.94815625,66.61979736328125L412.36882932692305,170.00957496643065L413.78950240384614,187.1411380004883L415.21017548076924,198.74777618408203L416.6308485576923,202.38192443847655L416.9093004807692,215.38795166015626L418.3299735576923,168.27070220947266L418.51892307692304,204.6708311462402L419.93959615384614,185.14542205810545L421.36026923076923,160.98454070806505L422.7809423076923,188.84590026855466L424.20161538461537,172.31227912902833L424.38630288461536,208.03734832763672L427.22764903846155,204.0787106323242L428.6483221153846,200.9349920654297L431.8320504807692,238.13508911132814L433.2527235576923,176.85213924407958L434.6733966346154,136.54849342346193L435.8241418269231,56.15557525634767L437.2448149038462,172.32366542816163L438.6654879807692,187.19287536621096L439.1698269230769,247.98458496093753L440.59049999999996,189.4005690765381L442.5723389423077,77.69390899658204L443.11787740384614,195.17909065246585L444.53855048076923,164.23906036376954L445.2858245192308,245.98017608642576L446.70649759615384,91.80559478759767L448.1527427884615,51.69153625488282L448.95116105769233,226.44126205444337L449.5989879807692,466.3701232910156L449.8362403846154,224.19886871337889L450.87617307692307,443.551201171875L451.5822475961539,35.8298519897461L451.9004783653846,203.59094650268554L452.92762500000003,344.5634893798828L453.22880769230767,169.9286750793457L454.15650721153844,55.89970642089845L455.3882307692308,268.29480102539065L456.8089038461539,210.902608795166L459.4968173076923,207.73941970825194L460.9174903846154,216.25539916992184L462.3381634615385,231.80546447753903L463.75883653846154,179.89713226318358L465.17950961538463,228.7404808044434L465.46790624999994,212.51439788818362L466.8885793269231,207.69891311645506L468.5919663461538,196.87997817993164L469.6461057692308,364.2471716308594L469.86346875000004,164.3816066837311L471.23441826923073,286.7681140136719L476.2124567307693,159.9898966884613L477.83486538461534,176.18578788757324L479.2555384615385,199.24290252685543L479.58371394230767,205.89350234985355L481.00438701923076,234.77047119140624L482.4250600961538,209.2616468811035L483.84573317307695,193.42858543395994L485.26640625,177.57873447418214L486.6870793269231,206.97034240722652L486.91722836538463,195.11964294433594L488.33790144230767,161.02316992521287L489.7585745192308,184.32406356811524L490.43481490384613,67.4505368041992L491.25170192307695,323.77985046386715L492.672375,211.1628282165527L493.0303846153846,181.0253677368164L494.2322740384615,62.08389129638671L495.50093509615385,77.9022344970703L495.9697572115385,279.1704666137695L496.13881730769225,281.40529174804686L497.5594903846154,190.79533767700195L500.36247836538456,280.68980987548827L500.63240625,248.30169982910155L500.83698317307693,255.59083465576168L501.24187499999994,208.33839569091796L502.16531249999997,58.28333312988283L502.3855168269231,262.04612365722653L503.80618990384613,155.39246572494508L503.9667259615385,194.598938369751L505.3873990384615,197.2994389343262L505.67579567307695,194.75847427368163L506.7782379807692,259.3094732666015L507.70309615384616,303.7255609130859L508.76718028846153,79.04285430908205L508.9234543269231,294.8565042114258L509.06552163461544,197.10918731689455L509.2118509615385,360.7703283691406L510.63252403846155,102.13842178344727L510.8626730769231,307.8636437988281L512.2833461538461,160.09238342285158L512.5106538461539,282.0065542602539L514.3902043269231,165.28333951950071L514.5464783653846,264.550166015625L514.7908341346154,191.2355976104736L515.020983173077,213.04774841308594L515.1843605769232,173.5851798248291L516.6050336538461,163.42989759922028L516.8238173076924,248.20976898193356L517.7600408653847,13.747620849609365L518.0384927884616,268.141376953125L518.6365961538461,27.233094177246095L518.8766899038461,308.51926391601563L519.0414879807693,214.35508712768555L520.0501658653845,47.36234893798826L521.4708389423078,196.3952854156494L522.0092740384615,175.7424411392212L523.4299471153846,90.47125854492188L524.8506201923077,157.45587633132936L526.3849471153846,215.70392944335936L527.8056201923076,148.80198360443114L529.2262932692308,196.0256504058838L530.6469663461538,198.62686203002932L531.3885576923077,14.730194091796887L532.8092307692308,163.04526908397676L533.5323533653847,221.5747608947754L534.9530264423076,212.02223373413082L535.6179014423077,69.17336059570312L537.0385745192307,86.38610778808594L538.4592475961539,202.14259689331053L539.8799206730769,202.5148974609375L541.1869399038461,162.6807606124878L544.0282860576923,155.4780730819702L544.4743774038461,188.33138168334963L545.6521153846154,106.28665191650389L549.1157163461538,55.92440093994141L554.1036995192308,198.20289413452147L555.5243725961539,191.49084434509277L556.945045673077,200.14581802368164L557.7846634615385,56.35084899902343L559.2053365384616,116.90631683349609L560.2438485576923,59.00520904541016L561.6645216346154,198.09237030029294L563.0851947115384,182.59522064208986L564.5257572115385,69.17526397705078L565.9464302884614,184.63918853759768L567.3671033653847,202.8357943725586L568.7877764423076,130.21506614685057L571.6291225961538,197.31605438232424L572.1789230769231,36.24480560302736L573.5995961538462,210.8296252441406L575.5700697115384,109.25313766479492L576.7364423076923,47.900692749023456L577.5320192307693,265.7161477661133L578.3318581730769,49.464588317871105L579.7525312500001,195.56133659362794L581.173204326923,197.047088470459L582.5938774038461,206.5525625610352L584.0145504807692,193.31283554077146L585.4352235576922,208.89725234985355L586.8558966346154,183.04054595947267L588.2765697115384,211.9469760131836L589.6972427884616,188.76478408813477L589.9543846153847,187.76165679931643L591.3750576923077,191.2606278991699L592.3553221153846,47.30729095458984L593.7759951923077,173.9151754760742L595.6683317307692,14.606499023437516L596.7949254807692,62.733521118164084L598.2155985576924,200.5472914123535L599.6362716346154,197.82435607910156L599.718670673077,407.325322265625L601.13934375,200.2306832885742L602.5600168269231,181.143191986084L603.9806899038462,168.089612159729L605.4013629807692,161.7799653697014L606.8220360576923,161.09853521347046L606.9910961538462,162.61335994005205L608.4117692307692,188.82070930480955L608.7527307692308,2.086929931640615L610.1734038461539,163.78934377670288L612.2518485576924,97.8265296936035L613.6725216346154,163.10158736228942L615.0931947115384,183.89923461914063L615.4611490384615,56.206018981933575L616.8818221153846,185.4879524230957L618.3024951923077,172.4217194366455L619.7231682692308,173.65315773010252L621.1438413461539,157.9797776699066L622.564514423077,180.35442375183104L623.9851874999999,163.2469941616058L625.4058605769231,171.237240486145L626.8265336538461,165.82476499557495L628.2472067307692,171.5081200790405L629.6678798076923,187.14553802490235L631.0885528846153,164.75432979583738L631.9878389423077,48.03622009277342L633.4085120192308,182.69538917541504L634.8291850961539,148.38963375091552L636.2498581730769,176.99846065521237L637.6705312500001,152.90054248809815L640.5118774038463,153.76679986953735L643.2963966346153,174.1882190322876L644.4997067307693,44.427318420410145L647.68059375,48.97593017578126L648.89953125,76.9629281616211L650.3202043269231,169.5912085533142L651.7252500000001,107.22644439697267L653.145923076923,155.97778175354006L654.1759110576924,72.97854125976563L655.5965841346153,167.79151102066038L656.8013149038462,85.2520962524414L658.1125961538462,102.45988723754884L659.5332692307692,164.04528831481935L660.2421850961539,61.680984191894545L661.6628581730769,171.2565050125122L663.0835312500001,170.8123394393921L666.4846225961538,41.95410095214844L667.5984302884616,72.9766131591797L668.6042668269231,63.54867095947265L670.7168076923077,69.29306762695315L672.1374807692307,163.82287928581235L672.8208245192308,25.477855224609364L673.6774903846153,54.31116577148438L675.0981634615384,183.96351287841796L676.3838725961538,95.48548187255861L677.212125,45.25653350830076L677.8088076923077,9.605286254882802L678.6768389423077,58.03877746582032L680.8959302884615,37.8635614013672L681.3377596153846,6.430578002929678L682.0708269230769,47.7915902709961L682.8181009615384,63.21540618896485L683.3735841346154,38.357410583496076L685.392360576923,38.89987426757813L686.8130336538462,182.91894996643063L687.6171346153847,56.89019805908203L688.1740384615384,29.99223907470705L688.7820865384615,31.95506195068361L689.6302283653846,44.09788513183594L691.0509014423077,175.49036052703858L692.3096177884615,98.71954513549805L692.9134038461539,55.50524505615236L693.7487596153846,64.92194000244142L694.4292620192308,183.09510337829587L695.8499350961538,190.19771919250485L697.083079326923,79.36005157470701L697.7266442307692,42.0796746826172L699.2112475961538,43.13388427734374L699.6772283653846,19.565458374023457L700.2227668269231,28.741066589355466L700.795298076923,32.23304626464845L702.1832956730769,97.27044158935549L702.8794254807692,55.192777404785154L703.4121778846154,48.89995147705076L704.7149350961538,112.00326416015625L707.40853125,45.91114013671875L708.2126322115384,52.120604553222655L709.9515360576924,67.06392791748046L711.0596610576923,52.830738830566425L712.0697596153846,53.78193511962888L713.2617043269231,59.17502197265627L713.9862475961539,26.70617889404299L715.0560144230769,75.57091369628905L716.5207283653846,48.62814697265623L717.1117283653846,37.49239379882811L717.7297211538461,34.73168334960936L718.2923076923076,29.59096343994139L718.9117211538462,38.09659790039064L719.4984591346154,44.45983245849609L720.9191322115385,153.1499019241333L721.2671971153846,136.81214881896972L722.7773725961539,79.64372131347655L723.7590576923077,22.55177307128907L724.1511634615384,38.994277038574204L724.548951923077,3.4083874511718726L725.2266129807692,43.22307128906252L726.6302379807693,76.84236419677735L728.0509110576922,158.3443555355072L728.4629062500001,18.7835723876953L729.883579326923,151.23212985992433L730.4461658653846,48.447704772949216L730.9973870192307,33.67266174316404L732.3797019230768,83.47940551757812L732.7916971153846,13.405605468750007L734.2123701923077,113.60161834716796L734.6655649038462,47.357059020996076L735.2352548076923,189.2686116027832L735.7097596153847,19.689927978515612L735.9697427884615,118.5144268798828L736.3405384615385,178.00954753875732L736.8519807692307,38.61965698242187L738.2087235576923,78.32975372314453L738.7272692307693,27.64394439697267L739.2358701923077,26.01984924316406L740.6167644230769,194.12149864196775L740.746045673077,146.93463054656982L741.1409927884615,18.434174194335952L741.4592235576922,134.05126945495607L742.6383822115386,58.25910827636718L743.8843125000001,63.45307342529298L744.3545552884615,18.496219482421868L744.5960697115385,127.1689082336426L745.803641826923,45.72033233642578L746.246891826923,39.18738372802734L746.5267644230769,145.59661319732666L746.8449951923077,158.95666677474978L747.5723798076923,57.10064117431641L748.05825,178.4820640182495L748.8140480769231,156.91420366287232L749.054141826923,146.238529586792L750.0471923076924,60.68319213867187L750.2361418269231,135.48486167907714L752.1100096153847,23.063922729492184L752.399826923077,144.2438848114014L753.5463100961539,54.88577270507814L753.7309975961539,129.95300926208495L755.3036826923077,49.205102233886734L755.7938149038462,44.43211395263671L756.6007572115384,34.00508605957031L757.662,49.66094146728516L758.4490528846154,45.26776428222658L759.4619927884615,44.18558074951173L760.8826658653846,112.88681213378905L761.154014423077,139.93412269592287L762.0916586538463,60.50222259521484L762.5079158653846,17.149564819335943L763.4896009615385,38.98965454101564L764.6502908653846,86.54033111572265L765.1929879807693,31.098383789062517L766.3650432692307,145.8873073196411L767.1762475961539,34.88308044433593L767.802764423077,124.7122114562988L768.0954230769231,17.778669433593752L768.3014206730769,147.35391826629638L769.1254110576923,33.55424011230468L770.5290360576923,42.06153900146484L770.885625,32.59269470214843L771.1797043269231,13.040930786132831L771.8005384615385,44.062676696777324L772.7239759615385,197.6966400146484L774.9388052884616,60.18260284423827L776.2273557692307,175.53225448608396L776.3111754807692,191.77993171691895L776.647875,148.2560303878784L776.8325625,149.2283616256714L777.7176418269231,51.88524444580078L778.80871875,161.34669402837756L778.91953125,140.77992233276365L779.4565456730769,44.73695159912107L779.7634110576923,19.405508422851568L780.0489663461539,157.5272757911682L780.7678269230769,13.01151489257811L780.9368870192308,151.21929027557374L781.4611153846154,28.367410583496106L781.762298076923,18.721724853515617L781.9128894230769,160.21184326171874L782.0876322115384,156.91145931243895L782.2978918269231,149.13004806518552L782.46553125,153.84271368026734L782.9911802884615,33.42214874267577L783.1261442307692,160.4617945432663L783.8634735576924,168.8586029434204L784.2300072115385,144.98427852630616L784.7087740384615,29.718292236328132L785.0539975961539,145.05653800964356L785.8552572115385,51.300552062988274L786.60253125,36.44554229736326L786.71334375,146.0876309967041L787.2347307692309,36.57829284667971L787.726283653846,40.28486846923828L787.9464879807692,147.46554725646973L788.26471875,156.06832523345946L788.3698485576923,157.17890138626097L788.7207548076923,174.8922661972046L789.0588750000001,151.36955337524412L789.3444302884615,186.5973600769043L789.6186201923077,150.47774917602538L789.9297475961539,177.80592693328856L790.4724447115385,186.05759902954102L791.1472644230769,74.47369262695314L791.3646274038462,151.7088063812256L791.8789110576923,182.540873336792L792.1019567307692,138.7307633972168L792.2752788461538,156.7239237213135L792.6659639423076,167.26771396636966L792.8563341346154,149.0811894607544L793.2129230769231,25.502253112792975L793.3322596153846,166.5354214668274L793.4913750000001,144.82221302032468L793.6476490384615,165.64853691101075L793.9474110576923,159.59408091545106L794.2031322115386,163.76833409786224L794.8154423076924,36.550739135742205L795.0811081730769,158.03607419013977L795.4874206730769,135.78627777099612L795.5683990384615,206.78457321166988L795.7942860576923,150.39187454223634L795.87384375,212.54677185058597L796.5927043269231,36.79821166992188L797.1325600961538,39.63006408691406L797.6212716346154,147.17427326202392L798.0233221153846,151.10608543395998L798.4750961538462,173.40053638458252L798.6356322115385,166.35423305511475L798.8231610576923,141.38904556274414L799.9852716346154,43.690330810546854L800.2537788461539,175.84551933288571L800.5734302884616,21.68335327148436L801.1530649038461,21.699733886718757L801.8648221153845,21.34975891113281L802.3776850961539,191.20086090087892L802.6362475961539,188.92722450256346L802.8266177884616,165.03822355270387L803.078076923077,16.876021728515617L803.3849423076923,27.654252319335924L803.7330072115385,149.85977542877194L803.8921225961539,133.3778102874756L804.3041177884616,46.077994995117194L804.73884375,144.01928993225096L804.8567596153846,138.9146580505371L805.14515625,187.56108695983886L805.3795673076924,144.55571182250978L805.7276322115384,160.7279221200943L805.9663052884615,181.00719497680663L806.1978750000001,143.32428176879884L806.4322860576923,156.3534168434143L806.5700913461538,169.55694150924683L806.864170673077,149.4065461349487L807.0133413461539,157.99330965042114L807.6057620192307,29.747584533691427L807.7819254807692,150.669578704834L808.2081274038462,5.995338134765621L808.505048076923,178.97576076507568L808.7607692307693,174.50235935211182L809.3489278846154,132.79184486389158L810.2070144230769,66.52186798095704L810.6147475961538,13.752630615234386L811.0480528846153,166.01091038703922L811.4287932692308,14.144216308593753L811.59075,144.68683090209962L812.1178197115385,15.069786987304694L812.3749615384615,155.51244209289553L812.623579326923,135.56991233825684L812.79121875,206.25015563964843L812.93896875,145.92552017211912L813.177641826923,136.577241897583L813.4234182692308,169.87363821029663L813.586795673077,132.3541680908203L813.9234951923077,23.858769836425775L814.6153629807692,25.02217254638672L815.0088894230769,3.243856201171866L815.2702932692307,151.7828219604492L815.5331177884616,143.90232055664063L815.6922331730769,175.00723743438718L815.8868653846154,138.03320503234866L816.2562403846154,159.3543900489807L816.649766826923,143.24919296264648L817.07596875,60.50484283447266L817.5106947115385,130.55477027893068L817.649920673077,143.93642486572264L817.8374495192307,131.4525771331787L818.1528389423078,311.48700622558596L818.5108485576924,20.377139282226572L818.7225288461539,144.90571563720704L819.0649110576923,21.385107421874988L819.4129759615385,183.0643423461914L819.5436778846154,146.9198875808716L819.7326274038461,164.41468694686887L820.3420961538461,155.79333709716798L820.6177067307692,163.4532146644592L820.7967115384615,144.3554550933838L821.0240192307692,178.500298576355L821.3294639423077,157.3998537826538L821.4729519230768,147.53645027160644L821.7059423076923,12.518843994140612L822.3793413461539,81.67707641601564L822.672,178.87612472534178L822.8510048076922,134.5083096313477L823.042795673077,148.24667724609372L823.1607115384616,133.41871032714843L823.3482403846155,162.247056555748L823.500252403846,150.06321784973144L823.8369519230769,18.909673461914046L824.4876201923076,159.2887692260742L824.8214783653846,32.856737365722644L825.2363149038462,12.751468505859368L825.5332355769231,163.20832117080687L825.9878509615385,8.952566528320299L826.1554903846154,175.13193775177L826.5390721153847,7.824166259765606L826.6996081730769,148.6066367340088L826.8430961538462,152.06751445770263L827.0633004807693,152.6589232635498L827.1911610576923,143.02474433898925L827.4681923076922,189.8600523376465L827.6173629807693,149.2377827453613L827.8190985576923,145.24701519012453L828.1003918269231,151.79424224853517L828.4441947115384,14.761571044921858L828.6331442307693,147.12384704589843L829.3449014423078,22.376563110351576L829.4841274038462,151.7150902175903L829.6404014423077,154.95442331314086L829.7668413461538,149.67737113952634L829.9557908653845,172.27493659973146L830.3095384615384,53.85545837402343L830.9673100961538,161.7334591805935L831.4929591346154,32.12570709228517L831.6265024038461,139.5259030151367L832.1052692307693,26.75448028564451L832.5570432692308,28.477073364257826L834.4195456730769,371.2345587158203L834.5886057692308,139.30214035034177L834.9281466346154,162.45268846392634L835.1156754807691,139.4307957458496L835.2762115384616,173.5498673629761L835.5930216346153,160.4775511264801L836.4894663461539,56.54438415527343L836.854579326923,23.040670166015634L836.9568677884615,144.04059379577637L837.0946730769231,123.84882614135743L837.2466850961538,139.0648418426514L838.3661754807692,250.48110443115237L838.9003485576923,34.94044555664061L839.1290769230769,2.9685827636718765L839.5183413461539,64.70689086914062L839.7953725961538,155.31740472793578L839.9516466346154,157.96300180435182L840.1121826923078,163.00864238262176L840.4744543269231,41.68006347656249L840.8608774038462,24.17120452880858L841.0228341346153,146.27614196777344L842.4435072115384,205.49610763549802L842.9123293269231,29.918822937011715L843.2262980769231,49.90772186279295L844.1866730769231,81.6144708251953L844.6569158653846,135.25016693115234L845.4894302884616,174.50898719787597L845.7550961538461,12.419967041015623L845.8772740384616,149.88426704406737L846.1187884615384,20.51924194335939L846.7964495192308,55.640072021484386L847.272375,137.828801651001L848.9459278846153,184.8218966674805L849.3806538461539,316.14964782714844L849.5738653846154,163.465807056427L850.0213774038461,33.69063262939454L850.6763076923078,17.260356445312507L850.909298076923,5.807966308593745L851.2119014423076,29.009336242675783L852.6325745192308,132.13561294555663L853.0261009615385,55.770655517578135L853.4750336538461,7.451614379882819L853.6682451923076,319.78540283203125L854.0944471153846,17.79363281250001L854.6826057692308,55.69889556884766L855.5151201923077,141.05384033203126L856.6459759615384,81.32504150390623L856.8604975961539,2.866146240234365L859.5825072115385,65.4963903808594L859.9646682692307,69.01247131347657L860.2203894230769,12.545540771484392L860.3880288461538,135.82175193786622L860.8511682692308,49.575042114257826L861.0813173076923,9.541197509765615L861.3114663461538,15.852810058593734L862.4110673076924,60.31300506591796L862.7165120192308,34.38879455566406L863.3984350961539,40.428462524414044L863.54334375,248.64664031982423L863.7805961538462,22.17655151367188L865.2012692307692,135.91545433044436L866.3960552884615,56.66781555175781L866.5821634615385,151.02271465301513L866.9089182692309,22.858060913085925L868.8737091346154,151.62387004852295L869.1251682692308,14.88843017578125L869.2956490384615,138.41277511596678L869.8937524038462,48.023456726074215L870.3611538461538,36.90967071533203L870.4904350961539,155.40887878417968L870.7035360576923,21.29320129394531L871.0061394230769,21.893796386718737L871.3797764423077,37.79626739501955L871.5673052884615,12.222064819335953L871.8272884615384,21.37264892578126L873.9838701923077,102.83182525634767L874.4697403846153,36.009700927734386L874.7425096153846,7.931596069335917L874.9357211538462,2.3244653320312327L875.3690264423077,43.056842651367205L876.1930168269231,46.28683959960938L876.3066706730768,167.64314151763915L876.8493677884616,66.754599609375L877.3281346153846,56.04790649414064L877.6193725961538,22.84080688476563L878.2700408653847,57.97434265136717L878.9022403846154,66.91992187500001L879.4065793269231,7.834004516601552L879.5230745192307,143.5375284576416L880.0941850961539,38.79771789550782L880.1822668269231,159.78525924682617L880.2916586538461,164.92567505836487L880.6880264423077,38.05145233154296L881.2747644230769,29.61200775146484L882.4269302884616,114.66973663330079L882.6371899038462,169.83077917098998L883.5165865384616,38.89991546630857L883.8575480769231,5.991020507812491L884.0962211538462,178.0433088684082L884.357625,16.42408813476564L884.89321875,139.03911529541017L885.3194206730769,22.27265991210939L885.4458605769231,166.2563224697113L885.5410456730768,185.90448188781738L885.6674855769231,140.0510137939453L886.4758485576923,205.713892364502L886.5710336538461,182.4751675415039L886.66621875,160.95248449087143L886.8040240384615,188.20092796325685L887.2160192307692,32.18906250000002L887.643641826923,34.864936523437514L888.3767091346155,73.68853546142576L888.5415072115385,152.74101894378663L888.6764711538461,181.07127548217773L888.7688149038462,175.27303104400633L889.1751274038462,10.972754516601546L889.324298076923,173.99184322357178L889.4649447115385,146.82588855743407L889.8499471153846,22.343291015624985L890.0090625,153.66354349136353" style="fill: none;" fill="none"></path></g></g></g></g></g></g><g transform="translate(51, 378)" clip-path="url(#clip_1)"><clipPath id="clip_1"><rect width="923" height="22"></rect></clipPath><g><g><line x1="0" y1="0" x2="0" y2="5" style="visibility: inherit;" fill="rgb(0, 0, 0)" stroke="rgb(204, 204, 204)" stroke-width="1px"></line><line x1="71.03365384615385" y1="0" x2="71.03365384615385" y2="5" style="visibility: inherit;" fill="rgb(0, 0, 0)" stroke="rgb(204, 204, 204)" stroke-width="1px"></line><line x1="142.0673076923077" y1="0" x2="142.0673076923077" y2="5" style="visibility: inherit;" fill="rgb(0, 0, 0)" stroke="rgb(204, 204, 204)" stroke-width="1px"></line><line x1="213.10096153846155" y1="0" x2="213.10096153846155" y2="5" style="visibility: inherit;" fill="rgb(0, 0, 0)" stroke="rgb(204, 204, 204)" stroke-width="1px"></line><line x1="284.1346153846154" y1="0" x2="284.1346153846154" y2="5" style="visibility: inherit;" fill="rgb(0, 0, 0)" stroke="rgb(204, 204, 204)" stroke-width="1px"></line><line x1="355.1682692307692" y1="0" x2="355.1682692307692" y2="5" style="visibility: inherit;" fill="rgb(0, 0, 0)" stroke="rgb(204, 204, 204)" stroke-width="1px"></line><line x1="426.2019230769231" y1="0" x2="426.2019230769231" y2="5" style="visibility: inherit;" fill="rgb(0, 0, 0)" stroke="rgb(204, 204, 204)" stroke-width="1px"></line><line x1="497.2355769230769" y1="0" x2="497.2355769230769" y2="5" style="visibility: inherit;" fill="rgb(0, 0, 0)" stroke="rgb(204, 204, 204)" stroke-width="1px"></line><line x1="568.2692307692308" y1="0" x2="568.2692307692308" y2="5" style="visibility: inherit;" fill="rgb(0, 0, 0)" stroke="rgb(204, 204, 204)" stroke-width="1px"></line><line x1="639.3028846153846" y1="0" x2="639.3028846153846" y2="5" style="visibility: inherit;" fill="rgb(0, 0, 0)" stroke="rgb(204, 204, 204)" stroke-width="1px"></line><line x1="710.3365384615385" y1="0" x2="710.3365384615385" y2="5" style="visibility: inherit;" fill="rgb(0, 0, 0)" stroke="rgb(204, 204, 204)" stroke-width="1px"></line><line x1="781.3701923076923" y1="0" x2="781.3701923076923" y2="5" style="visibility: inherit;" fill="rgb(0, 0, 0)" stroke="rgb(204, 204, 204)" stroke-width="1px"></line><line x1="852.4038461538462" y1="0" x2="852.4038461538462" y2="5" style="visibility: inherit;" fill="rgb(0, 0, 0)" stroke="rgb(204, 204, 204)" stroke-width="1px"></line><line x1="923.4375" y1="0" x2="923.4375" y2="5" style="visibility: inherit;" fill="rgb(0, 0, 0)" stroke="rgb(204, 204, 204)" stroke-width="1px"></line></g><g transform="translate(0, 8)"><text x="0" y="0" dx="0em" dy="0.95em" style="text-anchor: middle; visibility: hidden; font-family: Roboto, sans-serif; font-size: 12px; font-weight: 200;" fill="rgb(50, 49, 63)" stroke="none" stroke-width="1px">-50k</text><text x="71.03365384615385" y="0" dx="0em" dy="0.95em" style="text-anchor: middle; visibility: inherit; font-family: Roboto, sans-serif; font-size: 12px; font-weight: 200;" fill="rgb(50, 49, 63)" stroke="none" stroke-width="1px">0</text><text x="142.0673076923077" y="0" dx="0em" dy="0.95em" style="text-anchor: middle; visibility: inherit; font-family: Roboto, sans-serif; font-size: 12px; font-weight: 200;" fill="rgb(50, 49, 63)" stroke="none" stroke-width="1px">50k</text><text x="213.10096153846155" y="0" dx="0em" dy="0.95em" style="text-anchor: middle; visibility: inherit; font-family: Roboto, sans-serif; font-size: 12px; font-weight: 200;" fill="rgb(50, 49, 63)" stroke="none" stroke-width="1px">100k</text><text x="284.1346153846154" y="0" dx="0em" dy="0.95em" style="text-anchor: middle; visibility: inherit; font-family: Roboto, sans-serif; font-size: 12px; font-weight: 200;" fill="rgb(50, 49, 63)" stroke="none" stroke-width="1px">150k</text><text x="355.1682692307692" y="0" dx="0em" dy="0.95em" style="text-anchor: middle; visibility: inherit; font-family: Roboto, sans-serif; font-size: 12px; font-weight: 200;" fill="rgb(50, 49, 63)" stroke="none" stroke-width="1px">200k</text><text x="426.2019230769231" y="0" dx="0em" dy="0.95em" style="text-anchor: middle; visibility: inherit; font-family: Roboto, sans-serif; font-size: 12px; font-weight: 200;" fill="rgb(50, 49, 63)" stroke="none" stroke-width="1px">250k</text><text x="497.2355769230769" y="0" dx="0em" dy="0.95em" style="text-anchor: middle; visibility: inherit; font-family: Roboto, sans-serif; font-size: 12px; font-weight: 200;" fill="rgb(50, 49, 63)" stroke="none" stroke-width="1px">300k</text><text x="568.2692307692308" y="0" dx="0em" dy="0.95em" style="text-anchor: middle; visibility: inherit; font-family: Roboto, sans-serif; font-size: 12px; font-weight: 200;" fill="rgb(50, 49, 63)" stroke="none" stroke-width="1px">350k</text><text x="639.3028846153846" y="0" dx="0em" dy="0.95em" style="text-anchor: middle; visibility: inherit; font-family: Roboto, sans-serif; font-size: 12px; font-weight: 200;" fill="rgb(50, 49, 63)" stroke="none" stroke-width="1px">400k</text><text x="710.3365384615385" y="0" dx="0em" dy="0.95em" style="text-anchor: middle; visibility: inherit; font-family: Roboto, sans-serif; font-size: 12px; font-weight: 200;" fill="rgb(50, 49, 63)" stroke="none" stroke-width="1px">450k</text><text x="781.3701923076923" y="0" dx="0em" dy="0.95em" style="text-anchor: middle; visibility: inherit; font-family: Roboto, sans-serif; font-size: 12px; font-weight: 200;" fill="rgb(50, 49, 63)" stroke="none" stroke-width="1px">500k</text><text x="852.4038461538462" y="0" dx="0em" dy="0.95em" style="text-anchor: middle; visibility: inherit; font-family: Roboto, sans-serif; font-size: 12px; font-weight: 200;" fill="rgb(50, 49, 63)" stroke="none" stroke-width="1px">550k</text><text x="923.4375" y="0" dx="0em" dy="0.95em" style="text-anchor: middle; visibility: hidden; font-family: Roboto, sans-serif; font-size: 12px; font-weight: 200;" fill="rgb(50, 49, 63)" stroke="none" stroke-width="1px">600k</text></g><line x1="0" y1="0" x2="923.4375" y2="0" fill="rgb(0, 0, 0)" stroke="rgb(204, 204, 204)" stroke-width="1px"></line></g></g></g></g></svg>