<svg viewBox="0 0 975 400" xmlns="http://www.w3.org/2000/svg"><g><g><g><g><g><line x1="51.5625" y1="378" x2="46.5625" y2="378" style="visibility: inherit;" fill="rgb(0, 0, 0)" stroke="rgb(204, 204, 204)" stroke-width="1px"></line><line x1="51.5625" y1="346.5" x2="46.5625" y2="346.5" style="visibility: inherit;" fill="rgb(0, 0, 0)" stroke="rgb(204, 204, 204)" stroke-width="1px"></line><line x1="51.5625" y1="315" x2="46.5625" y2="315" style="visibility: inherit;" fill="rgb(0, 0, 0)" stroke="rgb(204, 204, 204)" stroke-width="1px"></line><line x1="51.5625" y1="283.5" x2="46.5625" y2="283.5" style="visibility: inherit;" fill="rgb(0, 0, 0)" stroke="rgb(204, 204, 204)" stroke-width="1px"></line><line x1="51.5625" y1="252.00000000000003" x2="46.5625" y2="252.00000000000003" style="visibility: inherit;" fill="rgb(0, 0, 0)" stroke="rgb(204, 204, 204)" stroke-width="1px"></line><line x1="51.5625" y1="220.49999999999997" x2="46.5625" y2="220.49999999999997" style="visibility: inherit;" fill="rgb(0, 0, 0)" stroke="rgb(204, 204, 204)" stroke-width="1px"></line><line x1="51.5625" y1="189" x2="46.5625" y2="189" style="visibility: inherit;" fill="rgb(0, 0, 0)" stroke="rgb(204, 204, 204)" stroke-width="1px"></line><line x1="51.5625" y1="157.5" x2="46.5625" y2="157.5" style="visibility: inherit;" fill="rgb(0, 0, 0)" stroke="rgb(204, 204, 204)" stroke-width="1px"></line><line x1="51.5625" y1="126.00000000000001" x2="46.5625" y2="126.00000000000001" style="visibility: inherit;" fill="rgb(0, 0, 0)" stroke="rgb(204, 204, 204)" stroke-width="1px"></line><line x1="51.5625" y1="94.5" x2="46.5625" y2="94.5" style="visibility: inherit;" fill="rgb(0, 0, 0)" stroke="rgb(204, 204, 204)" stroke-width="1px"></line><line x1="51.5625" y1="62.999999999999986" x2="46.5625" y2="62.999999999999986" style="visibility: inherit;" fill="rgb(0, 0, 0)" stroke="rgb(204, 204, 204)" stroke-width="1px"></line><line x1="51.5625" y1="31.500000000000014" x2="46.5625" y2="31.500000000000014" style="visibility: inherit;" fill="rgb(0, 0, 0)" stroke="rgb(204, 204, 204)" stroke-width="1px"></line><line x1="51.5625" y1="0" x2="46.5625" y2="0" style="visibility: inherit;" fill="rgb(0, 0, 0)" stroke="rgb(204, 204, 204)" stroke-width="1px"></line></g><g transform="translate(41.5625, 0)"><text x="0" y="378" dx="0em" dy="0.3em" style="text-anchor: end; visibility: hidden; font-family: Roboto, sans-serif; font-size: 12px; font-weight: 200;" fill="rgb(50, 49, 63)" stroke="none" stroke-width="1px">-300</text><text x="0" y="346.5" dx="0em" dy="0.3em" style="text-anchor: end; visibility: inherit; font-family: Roboto, sans-serif; font-size: 12px; font-weight: 200;" fill="rgb(50, 49, 63)" stroke="none" stroke-width="1px">-250</text><text x="0" y="315" dx="0em" dy="0.3em" style="text-anchor: end; visibility: inherit; font-family: Roboto, sans-serif; font-size: 12px; font-weight: 200;" fill="rgb(50, 49, 63)" stroke="none" stroke-width="1px">-200</text><text x="0" y="283.5" dx="0em" dy="0.3em" style="text-anchor: end; visibility: inherit; font-family: Roboto, sans-serif; font-size: 12px; font-weight: 200;" fill="rgb(50, 49, 63)" stroke="none" stroke-width="1px">-150</text><text x="0" y="252.00000000000003" dx="0em" dy="0.3em" style="text-anchor: end; visibility: inherit; font-family: Roboto, sans-serif; font-size: 12px; font-weight: 200;" fill="rgb(50, 49, 63)" stroke="none" stroke-width="1px">-100</text><text x="0" y="220.49999999999997" dx="0em" dy="0.3em" style="text-anchor: end; visibility: inherit; font-family: Roboto, sans-serif; font-size: 12px; font-weight: 200;" fill="rgb(50, 49, 63)" stroke="none" stroke-width="1px">-50</text><text x="0" y="189" dx="0em" dy="0.3em" style="text-anchor: end; visibility: inherit; font-family: Roboto, sans-serif; font-size: 12px; font-weight: 200;" fill="rgb(50, 49, 63)" stroke="none" stroke-width="1px">0</text><text x="0" y="157.5" dx="0em" dy="0.3em" style="text-anchor: end; visibility: inherit; font-family: Roboto, sans-serif; font-size: 12px; font-weight: 200;" fill="rgb(50, 49, 63)" stroke="none" stroke-width="1px">50</text><text x="0" y="126.00000000000001" dx="0em" dy="0.3em" style="text-anchor: end; visibility: inherit; font-family: Roboto, sans-serif; font-size: 12px; font-weight: 200;" fill="rgb(50, 49, 63)" stroke="none" stroke-width="1px">100</text><text x="0" y="94.5" dx="0em" dy="0.3em" style="text-anchor: end; visibility: inherit; font-family: Roboto, sans-serif; font-size: 12px; font-weight: 200;" fill="rgb(50, 49, 63)" stroke="none" stroke-width="1px">150</text><text x="0" y="62.999999999999986" dx="0em" dy="0.3em" style="text-anchor: end; visibility: inherit; font-family: Roboto, sans-serif; font-size: 12px; font-weight: 200;" fill="rgb(50, 49, 63)" stroke="none" stroke-width="1px">200</text><text x="0" y="31.500000000000014" dx="0em" dy="0.3em" style="text-anchor: end; visibility: inherit; font-family: Roboto, sans-serif; font-size: 12px; font-weight: 200;" fill="rgb(50, 49, 63)" stroke="none" stroke-width="1px">250</text><text x="0" y="0" dx="0em" dy="0.3em" style="text-anchor: end; visibility: hidden; font-family: Roboto, sans-serif; font-size: 12px; font-weight: 200;" fill="rgb(50, 49, 63)" stroke="none" stroke-width="1px">300</text></g><line x1="51.5625" y1="0" x2="51.5625" y2="378" fill="rgb(0, 0, 0)" stroke="rgb(204, 204, 204)" stroke-width="1px"></line></g></g><g transform="translate(51, 0)" clip-path="url(#clip_0)"><clipPath id="clip_0"><rect width="923" height="378"></rect></clipPath><g><g><g><line x1="0" y1="0" x2="0" y2="378" fill="rgb(0, 0, 0)" stroke="rgb(60, 60, 60)" stroke-width="1px" opacity="0.25"></line><line x1="92.34375" y1="0" x2="92.34375" y2="378" fill="rgb(0, 0, 0)" stroke="rgb(60, 60, 60)" stroke-width="1px" opacity="0.25"></line><line x1="184.6875" y1="0" x2="184.6875" y2="378" fill="rgb(0, 0, 0)" stroke="rgb(60, 60, 60)" stroke-width="1px" opacity="0.25"></line><line x1="277.03125" y1="0" x2="277.03125" y2="378" fill="rgb(0, 0, 0)" stroke="rgb(60, 60, 60)" stroke-width="1px" opacity="0.25"></line><line x1="369.375" y1="0" x2="369.375" y2="378" fill="rgb(0, 0, 0)" stroke="rgb(60, 60, 60)" stroke-width="1px" opacity="0.25"></line><line x1="461.71875" y1="0" x2="461.71875" y2="378" fill="rgb(0, 0, 0)" stroke="rgb(60, 60, 60)" stroke-width="1px" opacity="0.25"></line><line x1="554.0625" y1="0" x2="554.0625" y2="378" fill="rgb(0, 0, 0)" stroke="rgb(60, 60, 60)" stroke-width="1px" opacity="0.25"></line><line x1="646.40625" y1="0" x2="646.40625" y2="378" fill="rgb(0, 0, 0)" stroke="rgb(60, 60, 60)" stroke-width="1px" opacity="0.25"></line><line x1="738.75" y1="0" x2="738.75" y2="378" fill="rgb(0, 0, 0)" stroke="rgb(60, 60, 60)" stroke-width="1px" opacity="0.25"></line><line x1="831.09375" y1="0" x2="831.09375" y2="378" fill="rgb(0, 0, 0)" stroke="rgb(60, 60, 60)" stroke-width="1px" opacity="0.25"></line><line x1="923.4375" y1="0" x2="923.4375" y2="378" fill="rgb(0, 0, 0)" stroke="rgb(60, 60, 60)" stroke-width="1px" opacity="0.25"></line></g><g><line x1="0" y1="378" x2="923.4375" y2="378" fill="rgb(0, 0, 0)" stroke="rgb(60, 60, 60)" stroke-width="1px" opacity="0.25"></line><line x1="0" y1="346.5" x2="923.4375" y2="346.5" fill="rgb(0, 0, 0)" stroke="rgb(60, 60, 60)" stroke-width="1px" opacity="0.25"></line><line x1="0" y1="315" x2="923.4375" y2="315" fill="rgb(0, 0, 0)" stroke="rgb(60, 60, 60)" stroke-width="1px" opacity="0.25"></line><line x1="0" y1="283.5" x2="923.4375" y2="283.5" fill="rgb(0, 0, 0)" stroke="rgb(60, 60, 60)" stroke-width="1px" opacity="0.25"></line><line x1="0" y1="252.00000000000003" x2="923.4375" y2="252.00000000000003" fill="rgb(0, 0, 0)" stroke="rgb(60, 60, 60)" stroke-width="1px" opacity="0.25"></line><line x1="0" y1="220.49999999999997" x2="923.4375" y2="220.49999999999997" fill="rgb(0, 0, 0)" stroke="rgb(60, 60, 60)" stroke-width="1px" opacity="0.25"></line><line x1="0" y1="189" x2="923.4375" y2="189" fill="rgb(0, 0, 0)" stroke="rgb(60, 60, 60)" stroke-width="1px" opacity="0.25"></line><line x1="0" y1="157.5" x2="923.4375" y2="157.5" fill="rgb(0, 0, 0)" stroke="rgb(60, 60, 60)" stroke-width="1px" opacity="0.25"></line><line x1="0" y1="126.00000000000001" x2="923.4375" y2="126.00000000000001" fill="rgb(0, 0, 0)" stroke="rgb(60, 60, 60)" stroke-width="1px" opacity="0.25"></line><line x1="0" y1="94.5" x2="923.4375" y2="94.5" fill="rgb(0, 0, 0)" stroke="rgb(60, 60, 60)" stroke-width="1px" opacity="0.25"></line><line x1="0" y1="62.999999999999986" x2="923.4375" y2="62.999999999999986" fill="rgb(0, 0, 0)" stroke="rgb(60, 60, 60)" stroke-width="1px" opacity="0.25"></line><line x1="0" y1="31.500000000000014" x2="923.4375" y2="31.500000000000014" fill="rgb(0, 0, 0)" stroke="rgb(60, 60, 60)" stroke-width="1px" opacity="0.25"></line><line x1="0" y1="0" x2="923.4375" y2="0" fill="rgb(0, 0, 0)" stroke="rgb(60, 60, 60)" stroke-width="1px" opacity="0.25"></line></g></g></g><g><g><line x1="0" y1="189" x2="923.4375" y2="189" fill="rgb(0, 0, 0)" stroke="rgb(153, 153, 153)" stroke-width="1.5px"></line></g></g><g><g><line x1="92.34375" y1="0" x2="92.34375" y2="378" fill="rgb(0, 0, 0)" stroke="rgb(153, 153, 153)" stroke-width="1.5px"></line></g></g><g><g><g><g><g><path stroke="rgb(204, 51, 17)" stroke-width="2px" d="M92.42131875000001,293.35617004394527L92.53951875,356.9126567459107L92.7352875,382.7152806309291L92.87195625,383.68427592558015L92.93290312500001,337.011287725847L93.0335578125,302.521272468782L93.143446875,337.5083377935348L93.243178125,364.80097025002505L93.3124359375,321.4636574994508L93.41032031249999,299.2914936260196L93.47588437499999,276.7195419015686L93.5469890625,281.26132107828334L93.6541078125,289.322323622321L93.7390640625,344.46525930603036L93.867421875,334.8893392259745L93.95422500000001,364.6798075588083L94.04010468749999,313.3195340658318L94.10566874999999,289.1194301279429L94.192471875,272.12178551674344L94.2654234375,298.25196117994636L94.3596140625,254.14051914991765L94.4685796875,233.1196253092422L94.547071875,253.16171422569755L94.63664531250001,305.85248999639936L94.82964375,285.0941534566327L95.1075984375,292.449648847185L95.1944015625,305.12028005978317L95.285821875,285.7022880388834L95.39663437499999,324.00613339659304L95.47235624999999,309.5882641308144L95.6450390625,287.3655532480567L95.7687796875,338.4328185570499L95.85650625,314.5727046433001L95.97470625,295.782018060593L96.035653125,269.809560853738L96.1991015625,287.9615912526932L96.2914453125,277.47205350261777L96.39394687500001,271.46482631754594L96.48075,285.72156684279815L96.571246875,321.6988759447872L96.667284375,363.25423880820955L96.851971875,342.5627903452809L96.9507796875,299.51371945230704L97.1520890625,282.3417416171398L97.2425859375,265.5598101052582L97.328465625,312.59542927897905L97.40788124999999,296.4226264632666L97.4660578125,274.92461918192066L97.5306984375,265.8195076235317L97.6636734375,268.9472985682849L97.75232343750001,328.37819530336856L97.81511718750001,286.1446536473523L97.8742171875,312.3667150400197L97.92500625,277.3610259874761L97.9868765625,254.53084999798887L98.05982812500001,257.3862924084624L98.152171875,296.9360758601254L98.2833,258.95898642030596L98.370103125,271.35212030677445L98.443978125,319.07563546531696L98.5889578125,288.4353751451561L98.69330624999999,322.17163536541455L98.75240624999999,294.2171898679301L98.8401328125,278.6900107286193L98.9657203125,316.09812582193734L99.042365625,283.61029791747876L99.12455156249999,277.27785666796774L99.1781109375,267.28545038994076L99.27507187500001,276.4007319649215L99.43575,323.3210823674295L99.511471875,328.2178062197741L99.7377140625,355.5676291664348L99.8245171875,373.9856863865797L99.94179375,328.73420821866654L100.0276734375,313.63078701616087L100.1052421875,299.6955281789348L100.1920453125,326.0076248907593L100.40443593750001,297.90911329505127L100.4690765625,312.130760640605L100.5392578125,323.1171191651247L100.619596875,382.16926576177013L100.6962421875,343.942268014191L100.7996671875,325.3900103446474L100.86892499999999,301.9089023249525L101.066540625,284.1179800668465L101.1468796875,302.46521650690477L101.2484578125,278.8647040923753L101.3038640625,273.9159529485892L101.40821249999999,302.3439850381965L101.5199484375,316.1382702343437L101.61875625,299.7091629462703L101.7037125,282.1961430619516L101.9077921875,371.3233636936163L102.1017140625,488.1114584017166L102.61329843749999,404.2293359089307L102.72318750000001,377.49567936518264L103.10364375,309.023651805511L103.30310625,317.2809776433652L104.22654374999999,315.5159678726402L104.4084609375,321.6533469589357L104.5931484375,324.8982620205763L105.51658593750001,305.9921226176192L105.69573281250001,314.89341822389184L105.8083921875,297.2023968816007L106.485271875,345.5355582461479L106.69396875000001,336.65348662005204L107.61740625,316.8765986858984L108.077278125,292.9943656446445L109.1503125,284.93190313922815L110.07375,277.30432428710134L111.575259375,274.44955459423346L112.3481765625,318.222119841501L112.96965,327.6190931939631L113.1367921875,327.9061724080771L113.9494171875,373.6755735620338L114.700171875,355.5761364345836L114.940265625,353.56730124551575L115.158196875,356.72323511742667L115.4195296875,385.8225594786592L115.7464265625,331.86007615350405L116.66986406250001,324.97793326534463L118.05594375000001,303.447504588113L118.97938124999999,280.4349162660514L119.90281875,252.10431749644727L120.82625624999999,248.2212823923996L121.5363796875,293.0961646991116L122.45981718750001,270.3767537816252L122.76824531250001,319.4791125717095L123.1911796875,277.4742039779622L124.1146171875,270.9011834280371L125.0380546875,257.31330310491796L125.9614921875,259.01062337296054L127.129640625,252.5562019351533L128.05307812499998,242.09639707967105L129.899953125,242.29218666699208L130.823390625,237.38208623115227L132.67026562499998,244.34268368449216L133.593703125,232.8388702967549L134.517140625,224.3380110971203L136.364015625,218.3296951470417L137.28745312499998,234.46956272421136L138.210890625,254.04915712915573L140.057765625,259.79993592788406L140.6829328125,267.1069422085859L141.60637031250002,245.10025602339368L142.52980781250002,243.25448024367492L144.3766828125,254.77634030684948L145.30012031249998,258.17644883743L146.2235578125,243.55419732064652L147.1469953125,249.57572676641135L148.0704328125,248.90945479763974L148.99387031249998,239.9707710536327L149.91730781249998,238.89108976841004L150.8407453125,236.50043929195422L151.281225,257.24410427341473L153.1281,247.7120607390977L154.0515375,236.06304325193025L156.82185,240.38900319725192L159.7316015625,235.7440674914713L160.65503906249998,214.99212437092038L162.5019140625,211.69161332952245L163.4253515625,199.86652234189071L163.63866562500002,235.0240318743727L165.485540625,220.65229076769L166.408978125,212.60338714829714L167.332415625,214.86664613480346L167.49032343750002,238.6911969093977L167.6842453125,260.09448761585344L169.71765468750002,240.4377232396781L170.64109218750002,241.0949220907795L170.87195156250002,248.43791376472163L171.79538906250002,232.09715344834714L172.7188265625,233.58424610953563L173.6422640625,226.05316061127803L174.5657015625,211.13414175289046L174.77624531249998,226.58801645432214L175.6996828125,231.97128713699757L176.6231203125,217.44637904031626L176.781028125,233.63616638292999L177.704465625,228.27127102726774L179.551340625,220.67560261269853L180.474778125,218.56479929650095L180.6456140625,227.43185519435568L182.4924890625,225.39677913223838L183.4159265625,218.8628020679661L184.33936406249998,229.62055065606285L185.2628015625,211.85100598796754L186.1862390625,224.53596614160864L187.1096765625,237.31515900015071L188.0331140625,239.14055520844002L189.8799890625,223.88171352667536L190.8034265625,227.22173792435484L192.33079218749998,177.66343832346053L193.2542296875,200.94229141814856L194.1776671875,216.8339929539165L196.0245421875,211.45007198847537L196.94797968749998,212.39197217868093L197.8714171875,219.18885780672028L198.7948546875,209.13692075931903L199.7182921875,209.81019125869202L200.6417296875,212.37873746639687L201.5651671875,227.57826249936934L202.4886046875,218.48265839683842L203.4120421875,226.2082997194995L204.3354796875,233.57766495132861L205.2589171875,229.09273599472291L206.1823546875,224.41811976150663L207.10579218750001,227.24105361959928L208.9526671875,223.3028623353338L209.8761046875,193.74477228706448L210.7995421875,216.2780838007055L211.72297968750001,210.39868881191745L213.352846875,166.48868051127155L213.858890625,196.14659166857936L214.782328125,203.57172831657726L216.629203125,201.96000720479012L218.476078125,205.63068623815727L219.986821875,155.26436749240608L220.91025937499998,184.08166610396418L221.833696875,197.5995934276373L222.757134375,210.30238133124058L223.680571875,213.80467348868578L225.527446875,198.9361423576768L226.450884375,182.71409550982088L227.374321875,195.17064384458885L228.297759375,186.4235316238309L229.221196875,181.2788957153264L230.144634375,173.8547690240445L231.06807187500002,149.2491687264384L231.455915625,122.95202510060912L235.67694843750002,130.99854782403736L237.1507546875,119.59356784237161L237.76114687499998,114.23502888901672L239.15923125,99.23996295108584L240.08266875,131.91801074489467L241.00610625,147.61451451578446L241.92954375,160.26192524694625L242.1114609375,197.50650753464237L243.0348984375,211.04456760672295L243.9583359375,198.02355736701224L244.88177343750002,185.73599689274153L245.63252812500002,137.83333403652384L246.555965625,175.97877172318383L247.479403125,186.75468423752355L250.24971562500002,186.59408639090282L251.17315312500003,181.01884399304996L252.096590625,153.55289703303706L253.020028125,185.94107803305465L253.9129921875,221.13679696631718L254.988796875,227.62055379624536L255.912234375,216.34317673728094L256.835671875,215.64842308643594L257.759109375,233.51702385308224L258.682546875,216.78822233606502L259.605984375,203.8932557397433L260.1849796875,149.3171838515608L261.1084171875,151.11918013820704L262.03185468749996,159.6333276858905L262.73551406250004,124.38792593282336L263.3966953125,100.03680573059248L264.27673125,116.3622001680918L264.44295,169.13681433303282L265.36638750000003,185.78169876827673L266.2205671875,216.32400403269455L267.0479671875,168.80449537615968L268.44143437500003,184.34814147008058L269.242978125,154.49612722213624L270.351103125,171.00089457211232L272.19797812499996,183.60277136240805L273.71149218749997,230.6612560181284L274.6349296875,222.48770127323056L274.83346875,222.8810007535624L275.75690625,214.5326190526013L276.1770703125,231.14891008512524L276.4873453125,167.72698582158299L277.4107828125,193.42050854006894L278.163384375,149.7956572968929L279.086821875,178.48223493904885L280.010259375,182.06003304201968L280.933696875,200.5735565225995L281.085140625,217.8779026818703L282.008578125,208.08669872620285L282.932015625,205.46055336200345L283.044675,222.20399693419427L283.7861953125,165.79489144664936L284.62467656250004,138.0497000047084L285.5481140625,159.31363746765354L286.4715515625,176.58500976635872L287.39498906250003,191.88574845930253L288.2944171875,157.88417038905806L289.2178546875,182.9589847010862L289.61585625000004,138.0931256228978L290.53929375,168.65158077229827L291.4618078125,141.23175894921883L292.3852453125,165.07560927883304L293.28005625,140.29651125821778L294.17671406249997,134.50543599077054L295.0004203125,187.87093737571232L295.1971125,207.7646992662477L296.12055000000004,203.71740862530038L296.4382125,209.92300755310993L297.651609375,230.30431441956125L298.3100203125,238.1105939007602L299.686865625,241.26896870617878L300.5521265625,184.52380200007445L301.4755640625,187.44914601289565L302.3214328125,215.66499877717095L303.2448703125,212.93885073724982L304.15537968750004,173.24824147262333L305.0788171875,202.94878256057598L306.9256921875,208.4976471761161L307.7854125,157.202690783697L308.6949984375,190.07911892578463L309.4226671875,151.83972709277546L310.34610468750003,154.31680155717896L311.034065625,117.93051202561595L311.957503125,152.34769700876558L312.962203125,116.56925089568902L313.169053125,165.60425891143683L313.31495624999997,194.78262489642265L313.47009375,205.98037175181847L315.0482484375,214.684550382634L315.1849171875,228.04211520882848L315.72512812499997,161.8817887786174L315.8719546875,190.844684045979L316.4167828125,157.48011633579054L317.57754375,116.45573606123992L318.1971703125,190.94359166115802L319.019953125,155.5654275797026L320.44112343750004,185.6389361742864L320.8141921875,219.78392872117342L322.096846875,167.97232958377828L323.1320203125,197.26747477663412L323.6907,160.35163446314843L324.2900109375,115.7689776871664L325.365815625,174.9316538242139L326.24585156250004,245.05007817099317L326.4840984375,233.96860975354807L327.81107812500005,182.97312642341794L328.6726453125,140.78200994828904L329.04109687500005,190.2702981625769L329.54344687500003,213.58034711043678L330.029175,149.9612776632347L330.5684625,200.3271074792885L331.49190000000004,209.21285930568837L332.99433281250003,236.1787368846825L334.67221875,220.12405907111716L336.18757968750003,178.33826664994567L337.48223906249996,135.7605527634049L339.2561625,145.88791475740817L339.86563125,123.42438795356598L341.3957671875,170.92879530876067L342.3192046875,154.10734633808846L343.2426421875,176.8796493494839L344.15407500000003,153.262479306956L345.0775125,178.33919315057986L346.4220375,122.36932124923462L347.34547499999996,157.9344152745652L348.0297421875,190.85218551117467L348.8303625,220.43463518976142L349.75379999999996,235.88715052914006L350.47408125,182.37863486094108L351.39751874999996,188.34921390606655L352.32095625,217.6937086720091L353.24439375,224.3829311968578L354.16783125,235.21815077744088L354.36359999999996,236.97249553848596L355.2870375,242.03134714608964L356.0156296875,239.10269528106198L356.792240625,254.9404247858247L357.715678125,245.7611726876569L358.328840625,258.5723768303676L359.252278125,239.27911571919222L360.175715625,223.72760392248213L361.099153125,220.5572972320293L362.022590625,219.701801846908L362.946028125,213.06278945928008L363.84914999999995,174.7231684570622L364.56573749999995,212.28035300905174L364.6867078125,232.15355204590958L365.61014531250004,233.0446253071356L366.5335828125,226.00463341487216L366.765365625,237.98800832040772L367.688803125,234.36665801958836L368.44048125,239.07025707981944L369.36391875,229.5452461210606L370.28735625,224.91720776174768L371.977246875,230.22685041388456L372.900684375,234.4423403203522L376.5824296875,191.8023972952387L376.878853125,210.5652692792428L377.802290625,213.47961550126152L378.59182968749997,163.60782221823735L379.5152671875,167.37228897303225L380.4387046875,194.84671518069433L381.3621421875,213.8693588203307L382.2855796875,214.36990708602164L384.1324546875,208.36813175161296L385.0558921875,202.1788735883213L385.9793296875,214.64223174576622L388.7496421875,206.57622590735355L389.6730796875,219.77123493406054L391.5199546875,219.74256818516778L394.2902671875,228.89436271896201L395.2137046875,222.46062263626L396.1371421875,226.66101786886537L396.6524203125,240.56576529285243L396.9405328125,247.37718003142433L397.15569375,244.5706449329171L398.07913125000005,220.08829414053642L399.00256875,224.74509296991758L399.4559765625,243.63888494454818L400.37941406249996,221.60066083623764L401.3028515625,222.6956802389252L402.5088609375,217.4575766614215L403.43229843750004,201.29353179092033L404.3557359375,198.06251290580525L405.2791734375,212.2156951519304L405.468478125,223.60761939218366L406.39191562499997,231.97432108599378L407.315353125,227.098466369858L408.5518359375,218.30644287428296L409.4752734375,206.04688513661048L410.3987109375,218.91952051678075L411.3221484375,206.40463779281842L416.3881265625,228.63161052603286L418.23500156250003,228.61909815155718L419.1584390625,226.20645882989916L420.0818765625,224.79189505807136L421.0053140625,219.16849200005274L421.7108203125,171.57082554671135L422.6342578125,188.7997683840571L423.5576953125,202.9930982283102L424.4811328125,204.26620331259647L425.4045703125,187.82989453394464L426.3280078125,189.59589151429682L427.2514453125,195.594511837289L428.1748828125,209.9251345620902L429.0983203125,204.42033729090406L430.0217578125,208.61004990872212L430.9451953125,206.3780268019227L431.8686328125,202.55257368384528L432.7920703125,201.71374831186964L434.6389453125,190.7959881304934L435.5623828125,198.94312598986826L436.48582031250004,196.50766567494514L438.3326953125,190.06608163992192L439.2561328125,194.19347011279837L440.10661875,152.30556918926104L441.03005625000003,175.85799066821974L441.95349375,182.96188961386824L442.87693125000004,189.00266307664003L443.7421921875,161.64701053519303L444.6656296875,192.66445177399666L445.5890671875,200.07476217462747L446.5125046875,207.28209914132435L447.4359421875,212.8821292357712L448.3593796875,199.06676171809843L449.27173593749995,163.60851146811493L450.1951734375,185.27559505530743L451.11861093749997,185.07681072275966L452.0420484375,183.43097468972877L452.9654859375,186.04144997191833L453.8889234375,193.64715502496006L454.8123609375,209.03179560897019L455.73579843749997,198.56692353771487L456.79221093750004,210.35235411957717L457.7156484375,221.53342135236156L458.6390859375,215.98668282392916L459.56252343750003,218.2791099751192L460.3816125,215.34829958797678L461.30505,218.21900406003707L462.22848749999997,213.18229126811448L463.151925,222.37431216931597L464.0753625,225.34768388972435L464.9988,197.6788397039518L465.9222375,198.15338345799117L466.845675,215.28277220125955L467.7691125,226.60534642622446L468.69255,236.4544563298558L470.539425,240.27456134063806L471.4628625,248.116997790711L472.3863,231.39856109355503L474.233175,230.40211829980976L475.1566125,226.0441660299347L476.08005,231.6764057458905L477.0034875,213.43493250927136L477.926925,212.3650810723353L478.8503625,198.5170547621756L479.66021718750005,145.6158947835749L480.58365468750003,167.64532821383392L481.30855312499995,134.10606545857377L482.231990625,173.88511611230246L483.02614687500005,131.24762356142443L483.94958437500003,160.7141581212297L485.79645937500004,174.31236719863503L487.53806249999997,186.54511872921518L488.4615,198.7124205417283L489.3433828125,159.6619205257206L492.1136953125,172.3076867535656L495.2090578125,127.05308605116278L496.01152499999995,116.18577179671328L496.81676250000004,104.87817151308654L497.7402,154.85525974989295L498.66363750000005,173.08187766695235L499.587075,195.6737049387945L500.51051250000006,191.34145989984594L501.43395000000004,199.3213754516263L504.00018281250004,202.86258933194992L504.9236203125,208.58720923881836L505.099996875,214.97024006355474L505.402884375,218.6833601331035L506.58950156250006,251.88160958572146L507.1989703125,183.23976659371803L508.12240781250006,187.31918195101233L509.21021718749995,124.12182923896678L509.73380625000004,95.21777784123164L510.62492343750006,107.63215538271749L511.54836093750004,147.9282038283854L512.0303953125,109.28110644009764L512.553984375,90.39317478935155L513.477421875,127.0331032607569L514.4008593750001,157.63510100827298L515.1793171874999,138.83290237132124L516.0362671875,178.3696041852439L516.8451984375,135.34115460099008L517.3207687500001,165.43534861386556L518.24420625,178.30208525169334L519.1177781250001,143.86630150501992L520.0412156250001,170.61658406463306L520.964653125,182.9949238198223L522.305484375,280.6650359569324L523.2261515624999,207.1769673749407L524.1495890625,218.7577153370738L525.0730265625,231.1430345061993L525.9964640625,237.58810143492082L526.7629171875,179.39283760655795L527.600475,146.71500169723552L528.427875,131.802615337189L529.3513125,177.88444536198136L530.2747499999999,182.16537517469501L531.1981875,200.41913898421154L532.0652953125,159.33654650087848L532.9887328125,175.8408888151389L533.9121703125,208.17933892262826L535.7590453125,226.2196033230594L536.6824828125,226.34093809552022L537.6059203125,237.20374153773207L538.5293578125,223.49312826156742L539.4527953125,231.60998706436234L540.3762328125,232.1692300621037L540.54706875,231.448985608063L541.47050625,245.57816959359758L542.39394375,236.3346699598939L543.31738125,226.07950474998418L543.7504734375001,229.998348937637L543.9407015625,246.89222530496497L544.8641390624999,234.79157851488822L545.6961562500001,248.90115554399148L546.458915625,185.51383291379727L547.3805062499999,159.60658606419628L547.83853125,223.65898886996308L548.1257203125,253.31210499189976L548.375971875,251.56378869094064L549.299409375,241.46792258285052L551.1462843749999,235.81640281118493L552.993159375,230.68551585052933L554.840034375,241.1205759592922L557.610346875,246.0846114447159L558.4257421875,173.04711122718112L559.3491796874999,211.61856355027354L560.2726171874999,230.48447360990045L561.1960546875,234.59857537077426L562.1194921875,246.84307027129267L563.0429296875,256.06312512176L563.9663671874999,262.28945002422785L564.1990734375,269.4118717967633L565.1225109375,262.00449462957164L566.0459484375,267.9709740604578L566.4291750000001,268.14972881493685L566.9998593749999,177.12542255507537L569.0526609375,128.28860094515457L569.74985625,186.172432539749L570.1607859375,220.02025468986503L571.2273562500001,185.6029736147003L571.8940781250001,219.86901359997253L572.614359375,311.10602046467096L572.7076265625001,302.022730015619L573.6310640625001,264.3433002255579L574.4695453124999,287.83113485945586L575.28309375,221.42375147231414L575.469628125,237.83473769979472L575.6810953125,257.24859695337295L577.1706,250.51911382998273L577.305421875,258.6489891720131L578.1429796875,193.9430913791844L578.8300171875,231.37818417321378L579.7534546874999,231.22606391579353L581.5633921875001,231.40552180284524L582.4868296875001,223.81440638920228L583.4102671875,217.5466285594735L584.3337046875,229.32957668402395L585.2571421875,225.3735563284075L586.1805796875001,223.70330216252302L587.1040171875001,226.89806323721106L588.0274546875,226.10102876874265L588.9508921875,231.68988227589404L589.8743296875,226.60818017425225L590.7977671875001,225.96535785735895L591.7212046875001,226.5901773151234L592.6446421875,235.89923822501157L593.5680796875,239.27098266279015L595.2404250000001,238.0950393657405L596.1638625,247.6497639758896L597.0872999999999,233.93459698721836L598.0107375,224.32986445453804L598.934175,231.99152935997867L599.8576125,227.57744227419033L600.7810499999999,234.41583294874275L601.1365734375,274.0290592174878L603.37036875,262.55984797556107L604.29380625,249.0251122918064L606.0658828125,232.5945183943709L606.4149421875,273.28988028711086L607.3383796874999,241.1028882133126L608.2618171875,242.55934169263602L609.1852546875,229.61997351533745L610.1086921875,226.7753485043441L611.9555671874999,237.29443505475487L612.2492203125,270.38486293714976L613.1726578125,256.5853648448094L613.8624656249999,259.9949537701669L614.785903125,249.6731215235747L615.6696328124999,278.9086685684417L616.5930703125,267.35696285981504L617.5165078125,262.0925689817582L619.1491453125001,239.35960742146457L620.0615015625,180.38859221166777L620.2480359374999,246.23050249496941L621.1714734374999,234.72141981363208L622.0949109375,250.02399507665578L623.0183484375,245.92311649789778L623.9417859375,231.5696407269857L624.0516749999999,293.286331921543L624.49861875,279.00841835458596L625.2161296875,278.87803697466563L625.913325,258.9426889908297L626.5311046875,186.3457826449861L627.1294921875,157.96670133747995L627.82299375,124.06071275805438L628.74643125,163.23494784221057L629.51473125,148.96117878833417L630.28303125,115.00727135991455L631.2018515625,169.28033501443505L631.381921875,184.6026903122499L632.2924312499999,144.3846342068812L633.0533437500001,110.15380158125761L633.7062140625001,93.39643634426238L634.3323046875,95.22336961905742L636.1791796875,147.48919740009654L636.3841828125,295.37535169201107L637.3076203124999,256.5436248526395L637.8912328125,168.34170848091964L638.5385625,121.71944739079788L639.3539578125,109.7729885028381L640.2773953125,138.04649875966183L641.0955609375,196.83164028362913L642.4834875,187.17255148432542L643.406925,178.42778813852007L643.907428125,126.95601730449877L644.4485625,99.55425082459377L644.9739984375,76.9464237857719L645.8974359375,128.8403084264314L647.31860625,121.23042941010688L647.7830953125,82.12178157184537L648.6437390625,87.56633310326347L649.28368125,84.34057641225107L650.4352078124999,91.60923244403034L650.9578734375,66.6680817027463L651.8813109375001,125.80219438907942L652.5387984375,118.31246110366249L653.729109375,92.80612546590844L654.3395015625,71.60869023315833L654.8104546874999,59.32393856616455L655.26755625,44.66217185551903L655.76251875,38.64782459768642L656.3008828124999,49.818853205877495L657.0636421875,68.76161209442495L657.5382890625,57.28949826251435L658.180078125,60.241135969227315L658.6057828125,51.75899933055989L659.225409375,65.97740625116798L659.7748546875,61.89861434396251L660.6982921875,104.3470996824273L662.1905671874999,92.93581919666337L662.6578265625,76.78185449407225L663.4159687499999,127.55429668692187L663.7677984375,155.0559100472178L664.2683015624999,120.56999854297915L664.7429484375,96.1505850632875L665.9701968749999,93.45314467810921L666.413446875,164.87996200217805L666.7597359375001,123.98221279700994L666.937959375,180.3610801196122L667.3562765624999,211.29793136644508L668.0359265625,281.00518899564827L668.408071875,348.8899027040296L668.819925,219.11505307261308L669.1625203125001,203.0821237167368L669.2327015625,277.6632013540655L669.471871875,260.99639560491977L671.036175,162.46345113248307L671.31320625,200.76958917314218L671.7130546875,149.13778542527203L671.891278125,171.76451695065882L672.338221875,196.37673342478982L673.2995203125,137.44186140497155L673.501753125,160.60948084521073L673.8738984375,215.729535980271L674.316225,144.28496127322117L674.7668625,112.04018025514365L675.2498203125,90.57312554810571L675.6838359375,85.28723433765249L676.21850625,80.4501063496618L676.6737609375,80.84644326536346L677.0431359375,64.88602025609312L678.026596875,203.41639108431994L678.6905484375,259.56468041475216L679.3766625000001,193.5155024016833L680.0757046875,147.23769603329515L680.759971875,121.63056946323879L681.683409375,158.76198944405658L682.4064609375,229.3925531635042L682.95590625,171.43938468130568L683.282803125,111.54352656073654L684.206240625,153.3370220643716L685.1296781249999,161.6360605591796L685.7142140625,123.07806742681635L686.12514375,102.88588757523041L686.845425,110.86439582638828L687.7688625,164.3748852070146L688.6923,166.96186582422098L689.1789515625,145.39659035024548L690.86053125,166.71630879770223L691.6352953124999,205.71851837188305L692.5587328125,210.1600116121191L692.93641875,134.80931763621675L693.7388859375,136.28768253119298L694.1221125,98.90694838590328L694.3852921875,154.65240819780175L694.8359296875001,104.65814322190371L695.6744109375,112.85785092948012L696.5978484375,163.44905336164317L697.1001984375,196.91589176430034L697.640409375,149.37897805174427L698.419790625,107.39936614012862L698.7725437500001,157.0011142214307L699.69598125,200.3122156825166L700.61941875,214.53744870272286L702.4662937500001,228.4496388993681L703.3334015625,256.23644435036306L703.9096265625001,191.0067203699834L704.8330640625001,209.07915560455845L705.2486109375,210.79718460113838L705.4425328125001,229.63706936664008L706.4001375,170.320980267445L707.06870625,226.50445040411932L708.3393562499999,280.300654373331L708.4538625,253.01643045053663L708.6837984375001,243.72268621221653L708.9266625,250.9483076806991L709.8103921875,201.9843308913784L710.5195921875,158.5286959469364L711.4845843749999,125.26182932353296L712.1817796875,169.46721127209833L714.0286546875001,193.06960371028043L714.9520921874999,210.63527132040656L715.8755296874999,226.23611472705838L716.7989671874999,222.86754844438929L717.483234375,163.73864478928985L719.330109375,191.5958112937399L720.2535468750001,208.91135860241582L721.1769843750001,225.24134589265066L723.023859375,220.21208120197224L723.9472968749999,228.82630401903492L724.870734375,226.0478966234571L725.380471875,160.85397411909375L727.2273468750001,178.1426887927453L727.7407781249999,125.9289475041628L728.6337421875,124.50181048858167L729.5571796875,169.66452312176227L730.3965843750001,147.61082077613355L731.3200218750001,191.45484210557277L732.0781640625,149.95513817349988L733.0016015625,169.5403874046798L733.9250390625,182.34000422472923L734.5234265624999,134.38745926091178L735.0682546874999,106.24071048086344L735.4708734375,79.94811934271729L736.7212078125,91.86593846964408L737.4387187499999,70.41247854809498L738.009403125,70.6732032543453L739.1784749999999,58.26569081247045L740.1019124999999,121.95189013445494L740.8009546874999,98.09747014024329L741.130621875,67.84404934488816L741.6348187499999,69.12608182861256L742.2396703125,64.14304448290972L743.1631078125,107.42465479185766L743.8335234375,104.51153024083726L744.4983984375,91.27740276364301L744.8234484375,62.10548792283426L745.4070609375,70.17668221903259L746.0784,64.53061785192735L747.0526265625,68.93224247629311L747.8264671875,71.50415719231883L748.170909375,53.44844975972727L748.7480578125,48.50379879870745L749.3630671875001,62.900737226001795L749.7213609375,49.54860877847214L750.5090531249999,49.271935225579405L751.5239109375,45.692049379976524L751.8545015625,26.669988539118762L752.8074890625,31.00419881194783L753.2138015625001,36.54198077398504L753.726309375,38.94247514651995L754.3108453125,53.720845378439314L754.7448609375,46.51640755665345L755.2878421875,69.7659924832108L755.7061593750001,50.22718289227019L756.7782703125,38.78718949610433L757.27415625,51.975469764557154L757.7284874999999,37.52342638998428L758.7137953125,46.85721507471324L759.111796875,40.924370060452944L760.035234375,163.42015719252177L760.6105359375,233.15109156893107L761.287415625,163.7430724828625L761.6521734375,196.97426667697337L761.9587546875,123.74184137825435L762.2348625000001,88.40570449736273L762.8895796875,62.35549484197234L763.2044718750001,42.71218753018338L764.1279093750001,126.08380601786591L764.6367234375,96.13792667712582L764.9654671875,129.7430506916392L765.8889046875,163.86648953363587L766.0163390625,184.4699827704745L766.9785609375,141.69106723796827L767.1577078125,222.34688069922626L767.437509375,146.02020623936L767.725621875,212.05173556002222L767.9112328125,248.44886683650165L768.4061953125,175.49827768246737L768.623203125,191.07064518308886L768.9205499999999,186.07860727129128L769.2511406250001,123.49820495115365L769.5457171875,157.54150444499638L770.0923921875001,176.8145257901668L770.2789265624999,186.96286310288426L770.5892015625,242.12782632120323L770.7609609375,223.68835197405738L770.924409375,231.30034666417077L771.1063265624999,216.12656110595483L771.5117156250001,152.34110951513543L772.1054859375,186.09147393662028L772.438846875,182.9663446051973L772.66970625,178.5168942264973L772.9134937499999,171.37004905726067L773.3078015625,129.22987294021576L773.5128046875,151.17701884355145L774.1130390625,104.65406292966605L774.3383578125,125.53578024132014L774.5165812500001,167.91139227809288L774.7197375000001,195.24655082095728L775.0567921875,120.25800178163685L776.8538015624999,154.0044547097292L777.259190625,106.78539133169687L777.8908218749999,171.62570266400834L778.0690453125,175.54633678242604L778.6046390625,133.4129859683814L779.30368125,118.52790626608741L779.6721328125001,90.86257951404698L779.981484375,128.60253245917585L780.4662890625,94.36206140665787L780.755325,138.6518448380743L781.0794515625,166.5982950971195L781.7092359375,114.67595624528343L781.968721875,141.29260677100424L782.3445609375,97.96610062266114L782.7887343750001,82.1424551734014L783.0823875,130.44891931680937L783.5634984375,105.58931850903092L784.1831249999999,107.11357798285994L784.537725,73.77586346452067L784.8258375,145.24293821421045L785.433459375,118.25372404913173L785.8379249999999,86.13816448318995L786.1620515625,66.37587220065615L786.6163828125,81.98449731941716L786.8943375,143.93296999809564L787.4973421875001,98.58347004817378L788.3764546875,63.967897824802705L788.7172031250001,58.57736821148319L788.975765625,116.04216472419218L789.2888109375,148.07070254392696L789.679425,111.53791389696163L790.4717343750001,74.28385075516915L791.029490625,129.4089168831552L791.853196875,104.44317532520562L792.2761312499999,78.37552659404913L792.6131859375,56.47583890564821L793.0896796874999,129.92484089832058L793.3768687500001,166.16520683086247L793.722234375,109.85075276062685L794.1045375,75.38519945911051L794.4508265625,140.21232908708737L795.5026218749999,90.26209166611964L796.0022015625,65.21043273404678L796.8018984375,136.12076202079916L797.1417234375,161.90714224818507L798.0891703125,190.76952012063956L798.450234375,133.3663494014853L798.8703984375001,109.95176178932867L800.82346875,117.77217261314796L801.2307046875001,87.09434494972473L801.7422890624999,144.00494623375087L801.99808125,164.64761638755886L802.4958140625,187.25180555030877L802.7340609375,191.41217250636322L803.5383750000001,147.40946335489215L804.4618125000001,183.3154800148884L805.38525,202.68620332265377L806.3086875,209.9960548640757L807.2182734375,250.99676579198055L808.1417109375,250.8353622705985L809.0651484374999,259.2934233560115L810.4549218750001,267.41680401360685L811.04038125,197.95481605074227L811.7191078124999,232.83077128327741L813.0747140625,258.1242931532672L813.6814125000001,260.68430828331776L813.775603125,261.3937692046097L813.890109375,258.56498472833226L814.813546875,243.91939333333727L814.9252828125,248.06781803735586L815.8487203125001,235.67758330898582L816.4951265625,177.37403979252034L817.2246421875,222.35995854348099L818.1480796875001,192.70086120396942L819.0715171875,217.15060381954964L820.0983796875,230.15005345383915L820.8158906250001,171.51705380081913L820.94701875,211.39461729025712L821.059678125,232.45927925476948L821.983115625,234.69434587317423L822.906553125,243.1931975202424L823.349803125,177.8247802064814L824.273240625,208.72684227550016L825.1966781250001,227.58244313385478L826.120115625,233.79581445209018L827.043553125,233.49611888976L827.966990625,243.06335016686378L828.890428125,253.1810488269249L829.8138656250001,247.421095513196L831.660740625,249.8689798787184L832.584178125,218.87689945524616L833.0412796875,171.46424563017894L833.9647171875,203.6750616908515L834.8881546875,214.65948269322183L835.8115921875001,216.93977826949757L836.7350296875001,226.0673203918743L840.4287796875,227.16146392091562L841.3522171875,245.26983636036186L842.2756546874999,242.56620021709605L843.05041875,187.00011087732793L844.89729375,204.48332131765653L845.82073125,223.95741133917787L846.74416875,237.29612099784265L847.66760625,236.9855558689693L848.59104375,250.3088196664011L850.43791875,260.3531234038446L851.36135625,247.63119461420612L851.98929375,183.15908377291822L852.91273125,199.1833028791074L853.83616875,209.96040140519878L854.75960625,221.21153628379312L855.68304375,223.53884836024167L855.7661531250001,234.0730378064282L856.689590625,220.14035644392774L857.613028125,218.24405534279705L858.536465625,213.5867615519307L859.4599031250001,214.2789718328918L860.3833406250001,205.31874977225092L861.306778125,206.79906983252778L861.5791921875,137.5809717457081" style="fill: none;" fill="none"></path></g></g></g></g><g opacity="0.2"><g><g><g><path stroke="rgb(204, 51, 17)" stroke-width="2px" d="M92.42131875000001,293.3561700439453L92.53951875,395.04654876708986L92.87195625,384.82381439208984L92.93290312500001,276.0750343322754L93.0335578125,254.8091649627686L93.143446875,387.54040100097654L93.243178125,404.5938903808594L93.3124359375,257.5495390319824L93.41032031249999,266.36841430664066L93.47588437499999,243.0663402557373L93.5469890625,288.04927368164067L93.6541078125,301.38750686645506L93.7390640625,427.0716320800781L93.867421875,320.5367152404785L93.95422500000001,409.34449951171877L94.04010468749999,236.3008577728272L94.10566874999999,252.82541862487795L94.192471875,246.62790802001956L94.2654234375,337.44483627319335L94.3596140625,187.97577528119086L94.4685796875,201.58897624969484L94.547071875,283.22445190429687L94.63664531250001,384.88802947998045L94.82964375,253.95679618835453L95.1075984375,303.48286056518555L95.1944015625,324.12619445800783L95.285821875,256.57532981872555L95.39663437499999,381.4618661499024L95.47235624999999,287.9614682006836L95.6450390625,254.0314942932129L95.7687796875,415.0337063598633L95.85650625,278.78253662109375L95.97470625,267.5959895324707L96.035653125,230.85087615966796L96.1991015625,315.18963638305667L96.2914453125,261.73774703979495L96.39394687500001,262.4539855957031L96.48075,307.1066775512695L96.571246875,375.66483947753903L96.667284375,425.5872830200195L96.851971875,311.52561767578123L96.9507796875,234.94011314392088L97.1520890625,256.58377487182617L97.2425859375,240.3869128417969L97.328465625,383.14885803222654L97.40788124999999,272.163422241211L97.4660578125,242.67760826110842L97.5306984375,252.16184028625486L97.6636734375,273.63898498535156L97.75232343750001,417.52454040527346L97.81511718750001,222.79434116363524L97.8742171875,351.6998071289063L97.92500625,224.85249240875245L97.9868765625,220.28558601379393L98.05982812500001,261.66945602416996L98.152171875,356.2607510375977L98.2833,201.9933522605896L98.370103125,289.9418211364746L98.443978125,390.660908203125L98.5889578125,242.474984664917L98.69330624999999,372.7760256958008L98.75240624999999,252.2855216217041L98.8401328125,255.39924201965331L98.9657203125,372.2102984619141L99.042365625,234.878556060791L99.12455156249999,267.7791947937012L99.1781109375,252.2968409729004L99.27507187500001,290.0736543273926L99.43575,393.70160797119144L99.511471875,335.562891998291L99.7377140625,396.5923635864258L99.8245171875,401.6127722167969L99.94179375,260.8569909667969L100.0276734375,290.97565521240233L100.1052421875,278.79263992309575L100.1920453125,365.4757699584961L100.40443593750001,255.76134590148922L100.4690765625,333.46323165893557L100.5392578125,339.59665695190427L100.619596875,470.74748565673826L100.6962421875,286.6017713928223L100.7996671875,297.561623840332L100.86892499999999,266.68724029541016L101.066540625,257.4315966796875L101.1468796875,329.9860711669922L101.2484578125,243.46393547058105L101.3038640625,266.49282623291015L101.40821249999999,344.9860331726074L101.5199484375,336.82969802856445L101.61875625,275.06550201416013L101.7037125,255.9266132354736L101.9077921875,505.01419464111325L102.32887968749999,494.8642309570312L102.3981375,344.4861936950684L102.4784765625,344.7421792602539L102.61329843749999,392.71506042480473L102.72318750000001,337.39519454956053L103.10364375,206.31561046600342L103.30310625,329.66696640014646L104.22654374999999,312.8684532165527L104.4084609375,330.8594155883789L104.5931484375,329.7656346130371L105.51658593750001,277.6329135131836L105.69573281250001,328.2453616333008L105.8083921875,270.6658648681641L106.485271875,418.03530029296877L106.69396875000001,323.3303791809082L107.61740625,287.21126678466794L108.077278125,257.1710160827637L109.1503125,272.8382093811035L110.07375,265.8629560089111L111.575259375,270.16740005493165L112.3481765625,383.88096771240237L112.96965,341.7145532226562L113.1367921875,328.3367912292481L113.9494171875,442.3296752929687L114.700171875,328.4269807434082L114.940265625,350.5540484619141L115.158196875,361.45713592529296L115.4195296875,429.4715460205078L115.7464265625,250.91635116577146L116.66986406250001,314.65471893310547L118.05594375000001,271.1518615722656L118.97938124999999,245.91603378295895L119.90281875,209.60841934204103L120.82625624999999,242.3967297363281L121.5363796875,360.4084881591797L122.45981718750001,236.29763740539553L122.76824531250001,393.1326507568359L123.1911796875,214.4668410873413L124.1146171875,261.04165260314943L125.0380546875,236.93148262023925L125.9614921875,261.55660377502437L127.129640625,242.8745697784424L128.05307812499998,226.40668979644775L129.899953125,242.58587104797363L130.823390625,230.0169355773926L132.67026562499998,254.78357986450195L133.593703125,215.58315021514892L134.517140625,211.58672229766844L136.364015625,209.31722122192383L137.28745312499998,258.6793640899658L138.210890625,283.4185487365723L140.057765625,268.42610412597656L140.6829328125,278.0674516296387L141.60637031250002,212.09022674560546L142.52980781250002,240.48581657409667L144.3766828125,272.05913040161136L145.30012031249998,263.2766116333008L146.2235578125,221.6208200454712L147.1469953125,258.6080209350586L148.0704328125,247.9100468444824L148.99387031249998,226.56274543762208L149.91730781249998,237.2715678405762L150.8407453125,232.9144635772705L151.281225,288.35960174560546L153.1281,233.41399543762205L154.0515375,218.58951702117918L156.82185,246.87794311523436L159.7316015625,228.77666393280032L160.65503906249998,183.864209690094L162.5019140625,206.74084676742552L163.4253515625,182.12888586044312L163.63866562500002,287.7602961730957L165.485540625,199.094679107666L166.408978125,200.53003171920773L167.332415625,218.26153461456298L167.49032343750002,274.42802307128903L167.6842453125,292.1994236755371L169.71765468750002,210.952576675415L170.64109218750002,242.08072036743164L170.87195156250002,259.45240127563477L171.79538906250002,207.5860129737854L172.7188265625,235.81488510131837L173.6422640625,214.75653236389158L174.5657015625,188.75561346530915L174.77624531249998,249.7688285064697L175.6996828125,240.0461931610107L176.6231203125,195.6590168952942L176.781028125,257.92084739685055L177.704465625,220.2239279937744L179.551340625,209.28209999084473L180.474778125,215.3985943222046L180.6456140625,240.73243904113767L182.4924890625,222.3441650390625L183.4159265625,209.0618364715576L184.33936406249998,245.757173538208L185.2628015625,185.19668898582458L186.1862390625,243.56340637207032L187.1096765625,256.48394828796387L188.0331140625,241.87864952087403L189.8799890625,200.99345100402832L190.8034265625,232.23177452087404L192.33079218749998,103.32598892211917L193.2542296875,235.86057106018066L194.1776671875,240.67154525756837L196.0245421875,203.37419054031375L196.94797968749998,213.8048224639893L197.8714171875,229.38418624877926L198.7948546875,194.0590151882172L199.7182921875,210.82009700775143L200.6417296875,216.23155677795413L201.5651671875,250.37755004882814L202.4886046875,204.839252243042L203.4120421875,237.79676170349123L204.3354796875,244.63171279907226L205.2589171875,222.36534255981445L206.1823546875,217.40619541168212L207.10579218750001,231.47545440673827L208.9526671875,217.39557540893557L209.8761046875,149.40763721466067L210.7995421875,250.07805107116695L211.72297968750001,201.57959632873536L213.352846875,100.62366806030273L213.858890625,240.63345840454102L214.782328125,214.70943328857422L216.629203125,199.54242553710938L218.476078125,211.13670478820802L219.986821875,79.71488937377929L220.91025937499998,227.30761402130128L221.833696875,217.87648441314698L222.757134375,229.3565631866455L223.680571875,219.05811172485352L225.527446875,176.63334566116333L226.450884375,158.38102523803713L227.374321875,213.8554663467407L228.297759375,173.3028632926941L229.221196875,173.5619418525696L230.144634375,162.7185789871216L231.06807187500002,112.3407682800293L231.455915625,83.50630966186526L235.67694843750002,143.06833190917968L237.1507546875,102.48609786987305L237.76114687499998,106.19722045898439L239.15923125,76.74736404418945L240.08266875,180.9350824356079L241.00610625,171.15927017211916L241.92954375,179.233041343689L242.1114609375,253.37338096618652L243.0348984375,231.35165771484375L243.9583359375,178.4920420074463L244.88177343750002,167.30465618133547L245.63252812500002,65.97933975219729L246.555965625,233.1969282531738L247.479403125,202.91855300903322L250.24971562500002,186.35318962097168L251.17315312500003,172.65598039627076L252.096590625,112.35397659301758L253.020028125,234.52334953308107L253.9129921875,273.93037536621097L254.988796875,237.34618904113773L255.912234375,199.42711114883426L256.835671875,214.60629261016848L257.759109375,260.31992500305176L258.682546875,191.69502006053924L259.605984375,184.5508058452606L260.1849796875,67.4530760192871L261.1084171875,153.82217456817625L262.03185468749996,172.40454900741577L262.73551406250004,71.51982330322267L263.3966953125,63.510125427246095L264.27673125,140.85029182434081L264.44295,248.29873558044437L265.36638750000003,210.74902542114256L266.2205671875,262.13746192932126L267.0479671875,97.5252323913574L268.44143437500003,207.6636106109619L269.242978125,109.71810585021971L270.351103125,195.75804559707643L272.19797812499996,202.50558654785158L273.71149218749997,301.248983001709L274.6349296875,210.2273691558838L274.83346875,223.47094997406006L275.75690625,202.01004650115965L276.1770703125,256.0733466339111L276.4873453125,72.59409942626955L277.4107828125,231.96079261779786L278.163384375,84.35838043212893L279.086821875,221.51210140228272L280.010259375,187.42673019647597L280.933696875,228.34384174346926L281.085140625,243.83442192077635L282.008578125,193.3998927927017L282.932015625,201.52133531570433L283.044675,247.31916229248048L283.7861953125,81.18123321533203L284.62467656250004,96.43191284179686L285.5481140625,191.2095436620712L286.4715515625,202.49206821441652L287.39498906250003,214.83685649871828L288.2944171875,106.8818032836914L289.2178546875,220.5712061691284L289.61585625000004,70.79433700561523L290.53929375,214.48926349639893L291.4618078125,100.10202621459959L292.3852453125,200.84138477325442L293.28005625,103.1278642272949L294.17671406249997,125.81882308959962L295.0004203125,267.919189453125L295.1971125,237.6053421020508L296.12055000000004,197.64647266387942L296.4382125,219.23140594482422L297.651609375,260.87627471923827L298.3100203125,249.82001312255858L299.686865625,246.00653091430664L300.5521265625,99.40605194091795L301.4755640625,191.8371620321274L302.3214328125,257.988777923584L303.2448703125,208.8496286773682L304.15537968750004,113.71232757568357L305.0788171875,247.4995941925049L306.9256921875,216.82094409942624L307.7854125,80.26025619506838L308.6949984375,239.393761138916L309.4226671875,94.48063934326171L310.34610468750003,158.03241325378417L311.034065625,63.351077728271505L311.957503125,203.97347448348998L312.962203125,62.90158172607421L313.169053125,239.1567709350586L313.31495624999997,238.55017387390137L313.47009375,222.77699203491213L315.0482484375,227.74081832885742L315.1849171875,248.07846244812012L315.72512812499997,62.6412991333008L315.8719546875,234.28902694702148L316.4167828125,107.4332647705078L317.57754375,54.91916564941407L318.1971703125,302.67537506103514L319.019953125,102.49818145751955L320.44112343750004,230.7491990661621L320.8141921875,271.00141754150394L322.096846875,90.25493087768554L323.1320203125,241.210192565918L323.6907,104.9778739929199L324.2900109375,48.894992523193366L325.365815625,263.67566802978513L326.24585156250004,350.22771469116213L326.4840984375,217.3464071273804L327.81107812500005,106.47990142822265L328.6726453125,77.4953352355957L329.04109687500005,264.5027304840088L329.54344687500003,248.5454205322266L330.029175,54.532673492431655L330.5684625,275.87585220336916L331.49190000000004,222.54148704528808L332.99433281250003,276.62755325317386L334.67221875,196.04204235076904L336.18757968750003,115.65957801818847L337.48223906249996,71.89398193359374L339.2561625,161.07895774841307L339.86563125,89.72909774780274L341.3957671875,242.18540634155275L342.3192046875,128.8751728820801L343.2426421875,211.03810386657716L344.15407500000003,117.83672424316404L345.0775125,215.95426391601563L346.4220375,38.414513397216815L347.34547499999996,211.282056312561L348.0297421875,240.22884086608886L348.8303625,264.8083097076416L349.75379999999996,259.065923538208L350.47408125,102.11586135864258L351.39751874999996,197.3050824737549L352.32095625,261.71045082092286L353.24439375,234.41676498413085L354.16783125,251.4709801483154L354.36359999999996,239.6040126800537L355.2870375,249.61962455749511L356.0156296875,234.7097174835205L356.792240625,278.69701904296875L357.715678125,231.9922945404053L358.328840625,277.78918304443357L359.252278125,210.33922405242922L360.175715625,200.400336227417L361.099153125,215.80183719635014L362.022590625,218.41855876922605L362.946028125,203.10427087783816L363.84914999999995,117.21373695373534L364.56573749999995,268.61612983703617L364.6867078125,261.9633506011963L365.61014531250004,234.3812351989746L366.5335828125,215.44464557647706L366.765365625,255.96307067871092L367.688803125,228.93463256835935L368.44048125,246.12565567016603L369.36391875,215.25772968292236L370.28735625,217.9751502227783L371.977246875,238.19131439208985L372.900684375,240.76557518005373L376.5824296875,127.84248275756836L376.878853125,238.709577255249L377.802290625,217.85113483428952L378.59182968749997,88.80013229370118L379.5152671875,173.01898910522462L380.4387046875,236.05835449218748L381.3621421875,242.40332427978518L382.2855796875,215.12072948455807L384.1324546875,199.36546874999996L385.0558921875,192.8949863433838L385.9793296875,233.3372689819336L388.7496421875,194.4772171497345L389.6730796875,239.56374847412107L391.5199546875,219.69956806182864L394.2902671875,242.62205451965335L395.2137046875,212.81001251220704L396.1371421875,232.96161071777345L396.6524203125,261.422886428833L396.9405328125,257.59430213928226L397.15569375,240.36084228515625L398.07913125000005,183.36476795196532L399.00256875,231.73029121398926L399.4559765625,271.9795729064942L400.37941406249996,188.54332467377188L401.3028515625,224.33820934295653L402.5088609375,209.600421295166L403.43229843750004,177.04746448516846L404.3557359375,193.2159845781326L405.2791734375,233.44546852111816L405.468478125,240.6955057525635L406.39191562499997,244.52437362670898L407.315353125,219.7846842956543L408.5518359375,205.1184076309204L409.4752734375,187.65754853010176L410.3987109375,238.22847358703612L411.3221484375,187.63231370687487L416.3881265625,261.9720696258545L418.23500156250003,228.60032958984377L419.1584390625,222.58749984741215L420.0818765625,222.67004940032956L421.0053140625,210.73338741302493L421.7108203125,100.17432586669922L422.6342578125,214.64318264007568L423.5576953125,224.28309299468995L424.4811328125,206.17586093902588L425.4045703125,163.17543136596677L426.3280078125,192.24488698482514L427.2514453125,204.59244232177733L428.1748828125,231.421068649292L429.0983203125,196.16314138412477L430.0217578125,214.89461883544922L430.9451953125,203.02999214172362L431.8686328125,196.81439400672912L432.7920703125,200.45551025390625L434.6389453125,174.41934785842898L435.5623828125,211.16383277893067L436.48582031250004,192.85447520256042L438.3326953125,180.4037055873871L439.2561328125,200.38455282211302L440.10661875,89.4737178039551L441.03005625000003,211.18662288665774L441.95349375,193.617738032341L442.87693125000004,198.0638232707977L443.7421921875,120.61353172302248L444.6656296875,239.19061363220214L445.5890671875,211.19022777557376L446.5125046875,218.09310459136967L447.4359421875,221.28217437744138L448.3593796875,178.34371044158934L449.27173593749995,110.42113609313965L450.1951734375,217.7762204360962L451.11861093749997,184.778634223938L452.0420484375,180.9622206401825L452.9654859375,189.9571628952026L453.8889234375,205.0557126045227L454.8123609375,232.10875648498538L455.73579843749997,182.86961543083189L456.79221093750004,228.0304999923706L457.7156484375,238.3050222015381L458.6390859375,207.6665750312805L459.56252343750003,221.71775070190432L460.3816125,210.95208400726318L461.30505,222.52506076812742L462.22848749999997,205.62722208023075L463.151925,236.1623435211182L464.0753625,229.80774147033694L464.9988,156.17557342529298L465.9222375,198.86519908905032L466.845675,240.9768553161621L467.7691125,243.58920776367188L468.69255,251.22812118530274L470.539425,246.00471885681154L471.4628625,259.8806524658203L472.3863,206.32090604782107L474.233175,228.9074541091919L475.1566125,219.5072376251221L476.08005,240.12476531982423L477.0034875,186.07272265434264L477.926925,210.76030391693115L478.8503625,177.74501529693603L479.66021718750005,66.26415481567383L480.58365468750003,200.68947835922242L481.30855312499995,83.79717132568359L482.231990625,233.55369209289552L483.02614687500005,67.29138473510741L483.94958437500003,204.91395996093752L485.79645937500004,194.70968081474308L487.53806249999997,204.89424602508544L488.4615,216.96337326049806L489.3433828125,101.08617050170899L492.1136953125,191.2763360953331L495.2090578125,59.171184997558576L496.01152499999995,99.88480041503905L496.81676250000004,87.9167710876465L497.7402,229.82089210510253L498.66363750000005,200.4218045425415L499.587075,229.56144584655763L500.51051250000006,184.84309234142304L501.43395000000004,211.29124877929684L504.00018281250004,208.17441015243529L504.9236203125,217.17413909912108L505.099996875,224.54478630065915L505.402884375,224.25304023742675L506.58950156250006,301.6789837646484L507.1989703125,80.27700210571288L508.12240781250006,193.43830498695374L509.21021718749995,29.32580017089842L509.73380625000004,51.86170074462889L510.62492343750006,126.25372169494631L511.54836093750004,208.37227649688722L512.0303953125,51.31046035766602L512.553984375,62.061277313232424L513.477421875,181.992995967865L514.4008593750001,203.5380976295471L515.1793171874999,110.62960441589357L516.0362671875,237.67465690612792L516.8451984375,70.79848022460935L517.3207687500001,210.5766396331787L518.24420625,197.60219020843505L519.1177781250001,92.21262588500979L520.0412156250001,210.74200790405274L520.964653125,201.56243345260617L522.305484375,427.17020416259766L523.2261515624999,96.9448645019531L524.1495890625,236.12883728027342L525.0730265625,249.7210132598877L525.9964640625,247.25570182800294L526.7629171875,92.09994186401369L527.600475,97.69824783325197L528.427875,109.43403579711914L529.3513125,247.00719039916993L530.2747499999999,188.58676989376545L531.1981875,227.79978469848632L532.0652953125,97.7126577758789L532.9887328125,200.59740228652953L533.9121703125,256.6870140838623L535.7590453125,253.27999992370607L536.6824828125,226.52294025421142L537.6059203125,253.4979467010498L538.5293578125,202.92720834732057L539.4527953125,243.7852752685547L540.3762328125,233.00809455871578L540.54706875,230.36861892700196L541.47050625,266.7719455718994L542.39394375,222.46942050933836L543.31738125,210.69675693511962L543.7504734375001,235.87661521911622L543.9407015625,272.23303985595703L544.8641390624999,216.640608329773L545.6961562500001,270.06552108764646L546.458915625,90.43284896850588L547.3805062499999,120.74571578979491L547.83853125,319.73759307861326L548.1257203125,297.7917791748047L548.375971875,248.941314239502L549.299409375,226.32412342071532L551.1462843749999,227.3391231536865L552.993159375,222.98918540954588L554.840034375,256.7731661224365L557.610346875,253.53066467285154L558.4257421875,63.490860900878886L559.3491796874999,269.4757420349121L560.2726171874999,258.7833386993408L561.1960546875,240.76972801208495L562.1194921875,265.20981262207033L563.0429296875,269.8932073974609L563.9663671874999,271.6289373779297L564.1990734375,280.0955044555664L565.1225109375,250.89342887878416L566.0459484375,276.9206932067871L566.4291750000001,268.4178609466553L566.9998593749999,40.58896316528322L569.0526609375,55.033368530273414L569.74985625,272.99817993164066L570.1607859375,270.7919879150391L571.2273562500001,133.97705200195313L571.8940781250001,271.26807357788084L572.614359375,447.96153076171873L572.7076265625001,288.39779434204104L573.6310640625001,207.82415554046634L574.4695453124999,323.06288681030276L575.28309375,121.81267639160156L575.469628125,262.45121704101564L575.6810953125,286.36938583374024L577.1706,240.42488914489746L577.305421875,270.84380218505856L578.1429796875,96.88424468994143L578.8300171875,287.5308233642578L579.7534546874999,230.99788352966306L581.5633921875001,231.67470863342282L582.4868296875001,212.4277332687378L583.4102671875,208.14496181488036L584.3337046875,247.0039988708496L585.2571421875,219.4395257949829L586.1805796875001,221.19792091369627L587.1040171875001,231.6902048492432L588.0274546875,224.90547706604005L588.9508921875,240.0731625366211L589.8743296875,218.98562702178955L590.7977671875001,225.00112438201904L591.7212046875001,227.52740650177003L592.6446421875,249.86282958984373L593.5680796875,244.328599319458L595.2404250000001,236.33112442016602L596.1638625,261.9818508911133L597.0872999999999,213.36184650421143L598.0107375,209.9227656555176L598.934175,243.48402671813963L599.8576125,220.95631164550784L600.7810499999999,244.6734189605713L601.1365734375,333.44889862060546L603.37036875,245.3560311126709L604.29380625,228.7230087661743L606.0658828125,207.9486275482178L606.4149421875,334.3329231262207L607.3383796874999,192.82240010261538L608.2618171875,244.74402191162108L609.1852546875,210.21092124938968L610.1086921875,222.508410987854L611.9555671874999,253.07306488037108L612.2492203125,320.02050476074214L613.1726578125,235.88611770629882L613.8624656249999,265.1093371582031L614.785903125,234.1903731536865L615.6696328124999,322.76198913574217L616.5930703125,250.02940429687501L617.5165078125,254.19597816467282L619.1491453125001,205.26016508102416L620.0615015625,91.93206939697265L620.2480359374999,344.99336791992187L621.1714734374999,217.45779579162598L622.0949109375,272.9778579711914L623.0183484375,239.77179862976072L623.9417859375,210.03942707061765L624.0516749999999,385.8613687133789L624.49861875,257.59154800415035L625.2161296875,278.68246490478515L625.913325,229.03966701507568L626.5311046875,77.4504231262207L627.1294921875,115.39807937622069L627.82299375,73.201729888916L628.74643125,221.99630046844482L629.51473125,127.55052520751954L630.28303125,64.07641021728516L631.2018515625,250.68993049621582L631.381921875,207.58622325897218L632.2924312499999,84.05755004882812L633.0533437500001,58.80755264282226L633.7062140625001,68.26038848876955L634.3323046875,97.96376953125L636.1791796875,225.88793907165527L636.3841828125,517.2045831298828L637.3076203124999,198.29603459358216L637.8912328125,36.03883392333985L638.5385625,51.78605575561523L639.3539578125,91.85330017089842L640.2773953125,180.45676414489748L641.0955609375,285.0093525695801L642.4834875,172.68391828536988L643.406925,165.31064311981203L643.907428125,49.74836105346679L644.4485625,58.451601104736326L644.9739984375,43.03468322753905L645.8974359375,206.68113538742068L647.31860625,109.8156108856201L647.7830953125,23.458809814453133L648.6437390625,95.73316040039064L649.28368125,79.50194137573243L650.4352078124999,102.51221649169923L650.9578734375,29.25635559082029L651.8813109375001,214.50336341857908L652.5387984375,107.07786117553711L653.729109375,54.54662200927733L654.3395015625,39.81253738403321L654.8104546874999,40.89681106567382L655.26755625,22.669521789550764L655.76251875,29.626303710937517L656.3008828124999,66.57539611816408L657.0636421875,97.17575042724611L657.5382890625,40.08132751464842L658.180078125,64.66859252929687L658.6057828125,39.03579437255859L659.225409375,87.3050166320801L659.7748546875,55.78042648315428L660.6982921875,168.01982769012452L662.1905671874999,75.81889846801757L662.6578265625,52.55090744018554L663.4159687499999,203.71295997619632L663.7677984375,196.30833008766174L664.2683015624999,68.84113128662108L664.7429484375,59.52146484375L665.9701968749999,89.40698410034182L666.413446875,272.02018798828124L666.7597359375001,62.6355889892578L666.937959375,264.92938110351565L667.3562765624999,257.70320823669437L668.0359265625,385.56607543945313L668.408071875,450.71697326660154L668.819925,24.4527786254883L669.1625203125001,179.03272968292237L669.2327015625,389.53481781005854L669.471871875,235.99618698120113L671.036175,14.664034423828118L671.31320625,258.22879623413087L671.7130546875,71.69007980346682L671.891278125,205.704614238739L672.338221875,233.29505813598632L673.2995203125,49.03955337524414L673.501753125,195.36091000556948L673.8738984375,298.4096186828613L674.316225,37.118099212646484L674.7668625,63.673008728027334L675.2498203125,58.37254348754883L675.6838359375,77.35839752197265L676.21850625,73.19441436767576L676.6737609375,81.44094863891603L677.0431359375,40.945385742187504L678.026596875,411.2119473266602L678.6905484375,343.7871144104004L679.3766625000001,94.44173538208007L680.0757046875,77.82098648071289L680.759971875,83.2198796081543L681.683409375,214.45911941528323L682.4064609375,335.33839874267574L682.95590625,84.50963195800779L683.282803125,21.699739379882804L684.206240625,216.02726531982418L685.1296781249999,174.0846183013916L685.7142140625,65.24107772827146L686.12514375,72.59761779785158L686.845425,122.832158203125L687.7688625,244.64061927795413L688.6923,170.8423367500305L689.1789515625,113.04867713928223L690.86053125,198.69588646888735L691.6352953124999,264.22183273315426L692.5587328125,216.82225147247314L692.93641875,21.783276672363293L693.7388859375,138.50522987365724L694.1221125,42.835847167968765L694.3852921875,238.27059791564938L694.8359296875001,29.666745758056653L695.6744109375,125.15741249084473L696.5978484375,239.3358570098877L697.1001984375,247.11614936828613L697.640409375,78.07360748291015L698.419790625,44.429948272705055L698.7725437500001,231.4037363433838L699.69598125,265.27886787414553L700.61941875,235.8752982330322L702.4662937500001,249.31792419433594L703.3334015625,297.91665252685544L703.9096265625001,93.16213439941407L704.8330640625001,236.1878084564209L705.2486109375,213.37422809600832L705.4425328125001,257.89689651489255L706.4001375,81.34684661865234L707.06870625,310.7796556091309L708.3393562499999,360.9949603271484L708.4538625,212.09009456634524L708.6837984375001,229.7820698547363L708.9266625,261.78673988342285L709.8103921875,128.53836570739745L710.5195921875,93.34524353027345L711.4845843749999,75.36152938842775L712.1817796875,235.77528419494627L714.0286546875001,228.4731923675537L714.9520921874999,236.98377273559572L715.8755296874999,249.63737983703615L716.7989671874999,217.81469902038575L717.483234375,75.04528930664061L719.330109375,233.381561050415L720.2535468750001,234.88467956542968L721.1769843750001,249.73632682800294L723.023859375,212.66818416595459L723.9472968749999,241.7476382446289L724.870734375,221.88028553009033L725.380471875,63.06309036254885L727.2273468750001,204.0757608032227L727.7407781249999,47.60833557128905L728.6337421875,122.36110496520996L729.5571796875,237.4085920715332L730.3965843750001,114.53026725769043L731.3200218750001,257.2208740997315L732.0781640625,87.70558227539064L733.0016015625,198.9182612514496L733.9250390625,201.53942945480347L734.5234265624999,62.45864181518555L735.0682546874999,64.020587310791L735.4708734375,40.50923263549806L736.7212078125,109.74266716003416L737.4387187499999,38.23228866577148L738.009403125,71.06429031372072L739.1784749999999,39.65442214965819L740.1019124999999,217.48118911743163L740.8009546874999,62.3158401489258L741.130621875,22.46391815185545L741.6348187499999,71.04913055419924L742.2396703125,56.66848846435548L743.1631078125,172.34707025527953L743.8335234375,100.14184341430663L744.4983984375,71.42621154785155L744.8234484375,18.347615661621088L745.4070609375,82.28347366333008L746.0784,56.061521301269515L747.0526265625,75.5346794128418L747.8264671875,75.36202926635741L748.170909375,26.364888610839838L748.7480578125,41.086822357177745L749.3630671875001,84.49614486694334L749.7213609375,29.52041610717773L750.5090531249999,48.85692489624025L751.5239109375,40.322220611572284L751.8545015625,-1.8631027221679464L752.8074890625,37.50551422119142L753.2138015625001,44.84865371704102L753.726309375,42.54321670532228L754.3108453125,75.88840072631837L754.7448609375,35.709750823974616L755.2878421875,104.64036987304686L755.7061593750001,20.918968505859354L756.7782703125,21.627199401855453L757.27415625,71.75789016723631L757.7284874999999,15.845361328124984L758.7137953125,60.857898101806654L759.111796875,32.025102539062516L760.035234375,347.163837890625L760.6105359375,337.74749313354494L761.287415625,59.63104385375974L761.6521734375,246.82105796813966L761.9587546875,13.893203430175774L762.2348625000001,35.40149917602538L762.8895796875,23.28018035888672L763.2044718750001,13.247226562499996L764.1279093750001,251.14123374938964L764.6367234375,51.21910766601563L764.9654671875,180.15073671340943L765.8889046875,215.05164779663085L766.0163390625,215.37522262573245L766.9785609375,77.52269393920898L767.1577078125,343.33060089111325L767.437509375,31.530194549560566L767.725621875,311.0990295410156L767.9112328125,303.0445637512207L768.4061953125,66.07239395141602L768.623203125,214.42919643402098L768.9205499999999,178.59055040359496L769.2511406250001,29.627601470947276L769.5457171875,208.6064536857605L770.0923921875001,205.72405780792238L770.2789265624999,202.18536907196042L770.5892015625,324.87527114868163L770.7609609375,196.02914045333858L770.924409375,242.71833869934082L771.1063265624999,193.365882768631L771.5117156250001,56.66293212890626L772.1054859375,236.71702056884766L772.438846875,178.27865060806272L772.66970625,171.84271865844727L772.9134937499999,160.64978130340577L773.3078015625,66.01960876464845L773.5128046875,184.097737698555L774.1130390625,34.86962905883788L774.3383578125,156.85835620880127L774.5165812500001,231.47481033325192L774.7197375000001,236.2492886352539L775.0567921875,7.77517822265624L776.8538015624999,204.62413410186767L777.259190625,35.95679626464843L777.8908218749999,268.8861696624756L778.0690453125,181.4272879600525L778.6046390625,70.21295974731444L779.30368125,96.20028671264646L779.6721328125001,49.36458938598632L779.981484375,185.2124618768692L780.4662890625,43.001354827880874L780.755325,205.086519985199L781.0794515625,208.51797048568724L781.7092359375,36.7924479675293L781.968721875,181.2175825595856L782.3445609375,32.976341400146474L782.7887343750001,58.40698699951171L783.0823875,202.9086155319214L783.5634984375,68.2999172973633L784.1831249999999,109.3999671936035L784.537725,23.769291687011737L784.8258375,252.44355033874515L785.433459375,77.76990280151367L785.8379249999999,37.96482513427734L786.1620515625,36.73243377685548L786.6163828125,105.39743499755859L786.8943375,236.85567901611324L787.4973421875001,30.559220123291006L788.3764546875,12.044539489746112L788.7172031250001,50.49157379150392L788.975765625,202.2393594932556L789.2888109375,196.11350927352905L789.679425,56.73873092651366L790.4717343750001,18.402756042480448L791.029490625,212.09651607513428L791.853196875,66.99456298828126L792.2761312499999,39.274053497314455L792.6131859375,23.626307373046888L793.0896796874999,240.0983438873291L793.3768687500001,220.5257557296753L793.722234375,25.379071655273446L794.1045375,23.68686950683595L794.4508265625,237.45302352905273L795.5026218749999,15.336735534667989L796.0022015625,27.632944335937484L796.8018984375,242.48625595092773L797.1417234375,200.58671258926393L798.0891703125,234.0630869293213L798.450234375,47.26159332275392L798.8703984375001,74.82988037109375L800.82346875,129.50278884887697L801.2307046875001,41.07760345458984L801.7422890624999,229.37084815979L801.99808125,195.61162161827085L802.4958140625,221.1580892944336L802.7340609375,197.65272294044493L803.5383750000001,81.40539962768553L804.4618125000001,237.1745050048828L805.38525,231.74228828430176L806.3086875,220.9608321762085L807.2182734375,312.4978321838379L808.1417109375,250.59325698852538L809.0651484374999,271.9805149841309L810.4549218750001,279.601875L811.04038125,93.76183410644529L811.7191078124999,285.14470413208005L813.0747140625,296.0645759582519L813.6814125000001,264.52433097839355L813.775603125,262.4579605865478L813.890109375,254.32180801391604L814.813546875,221.95100624084472L814.9252828125,254.2904550933838L815.8487203125001,217.0922312164307L816.4951265625,89.91872451782226L817.2246421875,289.8388366699219L818.1480796875001,148.21221519470214L819.0715171875,253.82521774291996L820.0983796875,249.64922790527342L820.8158906250001,83.56755432128907L820.94701875,271.2109625244141L821.059678125,264.0562722015381L821.983115625,238.04694580078123L822.906553125,255.9414749908447L823.349803125,79.77215423583986L824.273240625,255.0799353790283L825.1966781250001,255.86584442138673L826.120115625,243.11587142944336L827.043553125,233.04657554626468L827.966990625,257.41419708251954L828.890428125,268.3575968170166L829.8138656250001,238.78116554260254L831.660740625,253.54080642700197L832.584178125,172.38877882003783L833.0412796875,100.34526489257813L833.9647171875,251.99128578186037L834.8881546875,231.13611419677733L835.8115921875001,220.36022163391112L836.7350296875001,239.75863357543946L840.4287796875,228.80267921447754L841.3522171875,272.43239501953127L842.2756546874999,238.51074600219724L843.05041875,103.65097686767577L844.89729375,230.7081369781494L845.82073125,253.16854637145997L846.74416875,257.30418548583987L847.66760625,236.5197081756592L848.59104375,270.2937153625488L850.43791875,275.4195790100098L851.36135625,228.54830142974856L851.98929375,86.45091751098633L852.91273125,223.2196315383911L853.83616875,226.12604919433593L854.75960625,238.08823860168457L855.68304375,227.02981647491453L855.7661531250001,249.874321975708L856.689590625,199.24133440017704L857.613028125,215.39960369110108L858.536465625,206.60082086563108L859.4599031250001,215.3172872543335L860.3833406250001,191.87841668128965L861.306778125,209.01954992294313L861.5791921875,33.75382461547852" style="fill: none;" fill="none"></path></g></g></g></g></g><g><g opacity="0.455029"><span fill="rgb(0, 0, 0)" stroke="none" stroke-width="1px">Alt + Scroll to Zoom</span></g></g></g><g transform="translate(51, 378)" clip-path="url(#clip_1)"><clipPath id="clip_1"><rect width="923" height="22"></rect></clipPath><g><g><line x1="0" y1="0" x2="0" y2="5" style="visibility: inherit;" fill="rgb(0, 0, 0)" stroke="rgb(204, 204, 204)" stroke-width="1px"></line><line x1="92.34375" y1="0" x2="92.34375" y2="5" style="visibility: inherit;" fill="rgb(0, 0, 0)" stroke="rgb(204, 204, 204)" stroke-width="1px"></line><line x1="184.6875" y1="0" x2="184.6875" y2="5" style="visibility: inherit;" fill="rgb(0, 0, 0)" stroke="rgb(204, 204, 204)" stroke-width="1px"></line><line x1="277.03125" y1="0" x2="277.03125" y2="5" style="visibility: inherit;" fill="rgb(0, 0, 0)" stroke="rgb(204, 204, 204)" stroke-width="1px"></line><line x1="369.375" y1="0" x2="369.375" y2="5" style="visibility: inherit;" fill="rgb(0, 0, 0)" stroke="rgb(204, 204, 204)" stroke-width="1px"></line><line x1="461.71875" y1="0" x2="461.71875" y2="5" style="visibility: inherit;" fill="rgb(0, 0, 0)" stroke="rgb(204, 204, 204)" stroke-width="1px"></line><line x1="554.0625" y1="0" x2="554.0625" y2="5" style="visibility: inherit;" fill="rgb(0, 0, 0)" stroke="rgb(204, 204, 204)" stroke-width="1px"></line><line x1="646.40625" y1="0" x2="646.40625" y2="5" style="visibility: inherit;" fill="rgb(0, 0, 0)" stroke="rgb(204, 204, 204)" stroke-width="1px"></line><line x1="738.75" y1="0" x2="738.75" y2="5" style="visibility: inherit;" fill="rgb(0, 0, 0)" stroke="rgb(204, 204, 204)" stroke-width="1px"></line><line x1="831.09375" y1="0" x2="831.09375" y2="5" style="visibility: inherit;" fill="rgb(0, 0, 0)" stroke="rgb(204, 204, 204)" stroke-width="1px"></line><line x1="923.4375" y1="0" x2="923.4375" y2="5" style="visibility: inherit;" fill="rgb(0, 0, 0)" stroke="rgb(204, 204, 204)" stroke-width="1px"></line></g><g transform="translate(0, 8)"><text x="0" y="0" dx="0em" dy="0.95em" style="text-anchor: middle; visibility: hidden; font-family: Roboto, sans-serif; font-size: 12px; font-weight: 200;" fill="rgb(50, 49, 63)" stroke="none" stroke-width="1px">-100k</text><text x="92.34375" y="0" dx="0em" dy="0.95em" style="text-anchor: middle; visibility: inherit; font-family: Roboto, sans-serif; font-size: 12px; font-weight: 200;" fill="rgb(50, 49, 63)" stroke="none" stroke-width="1px">0</text><text x="184.6875" y="0" dx="0em" dy="0.95em" style="text-anchor: middle; visibility: inherit; font-family: Roboto, sans-serif; font-size: 12px; font-weight: 200;" fill="rgb(50, 49, 63)" stroke="none" stroke-width="1px">100k</text><text x="277.03125" y="0" dx="0em" dy="0.95em" style="text-anchor: middle; visibility: inherit; font-family: Roboto, sans-serif; font-size: 12px; font-weight: 200;" fill="rgb(50, 49, 63)" stroke="none" stroke-width="1px">200k</text><text x="369.375" y="0" dx="0em" dy="0.95em" style="text-anchor: middle; visibility: inherit; font-family: Roboto, sans-serif; font-size: 12px; font-weight: 200;" fill="rgb(50, 49, 63)" stroke="none" stroke-width="1px">300k</text><text x="461.71875" y="0" dx="0em" dy="0.95em" style="text-anchor: middle; visibility: inherit; font-family: Roboto, sans-serif; font-size: 12px; font-weight: 200;" fill="rgb(50, 49, 63)" stroke="none" stroke-width="1px">400k</text><text x="554.0625" y="0" dx="0em" dy="0.95em" style="text-anchor: middle; visibility: inherit; font-family: Roboto, sans-serif; font-size: 12px; font-weight: 200;" fill="rgb(50, 49, 63)" stroke="none" stroke-width="1px">500k</text><text x="646.40625" y="0" dx="0em" dy="0.95em" style="text-anchor: middle; visibility: inherit; font-family: Roboto, sans-serif; font-size: 12px; font-weight: 200;" fill="rgb(50, 49, 63)" stroke="none" stroke-width="1px">600k</text><text x="738.75" y="0" dx="0em" dy="0.95em" style="text-anchor: middle; visibility: inherit; font-family: Roboto, sans-serif; font-size: 12px; font-weight: 200;" fill="rgb(50, 49, 63)" stroke="none" stroke-width="1px">700k</text><text x="831.09375" y="0" dx="0em" dy="0.95em" style="text-anchor: middle; visibility: inherit; font-family: Roboto, sans-serif; font-size: 12px; font-weight: 200;" fill="rgb(50, 49, 63)" stroke="none" stroke-width="1px">800k</text><text x="923.4375" y="0" dx="0em" dy="0.95em" style="text-anchor: middle; visibility: hidden; font-family: Roboto, sans-serif; font-size: 12px; font-weight: 200;" fill="rgb(50, 49, 63)" stroke="none" stroke-width="1px">900k</text></g><line x1="0" y1="0" x2="923.4375" y2="0" fill="rgb(0, 0, 0)" stroke="rgb(204, 204, 204)" stroke-width="1px"></line></g></g></g></g></svg>